<?xml version="1.0" encoding="UTF-8" standalone="no"?>
<!DOCTYPE score-partwise PUBLIC "-//Recordare//DTD MusicXML 1.1 Partwise//EN" "http://www.musicxml.org/dtds/partwise.dtd">

<score-partwise version="2.0">
	<movement-title></movement-title>
	<identification>
		<creator type="composer"></creator>
		<encoding>
			<software>SmartScore X Pro</software>
			<encoding-date>2012-05-17</encoding-date>
			<supports attribute="new-system" element="print" type="yes" value="yes"/>
			<supports attribute="new-page" element="print" type="yes" value="yes"/>
		</encoding>
	</identification>
	<defaults>
		<scaling>
			<millimeters>6.00</millimeters>
			<tenths>40</tenths>
		</scaling>
		<page-layout>
			<page-height>1862.67</page-height>
			<page-width>1439.33</page-width>
			<page-margins type="both">
				<left-margin>92.48</left-margin>
				<right-margin>92.48</right-margin>
				<top-margin>110.00</top-margin>
				<bottom-margin>110.00</bottom-margin>
			</page-margins>
		</page-layout>
	</defaults>
	<part-list>
		<score-part id="P1">
			<part-name>Nylon Guitar</part-name>
			<part-abbreviation>GuitNyl</part-abbreviation>
			<score-instrument id="P1-S0V0">
				<instrument-name>Nylon String Guit.</instrument-name>
			</score-instrument>
			<midi-instrument id="P1-S0V0">
				<midi-channel>1</midi-channel>
				<midi-program>25</midi-program>
				<volume>78</volume>
				<pan>0</pan>
			</midi-instrument>
		</score-part>
	</part-list><!--
===========================================================
-->

	<part id="P1">
		<measure number="1" width="157">
			<print>
				<page-layout>
					<page-height>1862.67</page-height>
					<page-width>1439.33</page-width>
					<page-margins>
						<left-margin>92.48</left-margin>
						<right-margin>92.48</right-margin>
						<top-margin>110.00</top-margin>
						<bottom-margin>55.00</bottom-margin>
					</page-margins>
				</page-layout>
				<system-layout>
					<system-margins>
						<left-margin>0</left-margin>
						<right-margin>0</right-margin>
					</system-margins>
					<top-system-distance>0</top-system-distance>
				</system-layout>
			</print>
			<attributes>
				<divisions>20</divisions>
				<key>
					<fifths>1</fifths>
				</key>
				<time>
					<beats>1</beats>
					<beat-type>4</beat-type>
				</time>
				<clef>
					<sign>G</sign>
					<line>2</line>
				</clef>
				<staff-details number="1" print-object="yes">
					<staff-size>112</staff-size>
				</staff-details>
				<transpose>
					<chromatic>-12</chromatic>
				</transpose>
			</attributes>
			<attributes></attributes>
			<note>
				<pitch>
					<step>G</step>
					<octave>4</octave>
				</pitch>
				<duration>20</duration>
				<voice>1</voice>
				<type>quarter</type>
				<stem>up</stem>
			</note>
		</measure><!--
===========================================================
-->

		<measure number="2" width="165">
			<print new-system="no"></print>
			<attributes>
				<time>
					<beats>3</beats>
					<beat-type>4</beat-type>
				</time>
			</attributes>
			<barline location="left">
				<bar-style>heavy-light</bar-style>
				<repeat direction="forward"/>
			</barline>
			<note>
				<pitch>
					<step>G</step>
					<octave>4</octave>
				</pitch>
				<duration>10</duration>
				<voice>1</voice>
				<type>eighth</type>
				<stem>up</stem>
				<beam number="1">begin</beam>
			</note>
			<note>
				<pitch>
					<step>G</step>
					<octave>4</octave>
				</pitch>
				<duration>10</duration>
				<voice>1</voice>
				<type>eighth</type>
				<stem>up</stem>
				<beam number="1">end</beam>
			</note>
			<note>
				<pitch>
					<step>G</step>
					<octave>4</octave>
				</pitch>
				<duration>20</duration>
				<voice>1</voice>
				<type>quarter</type>
				<stem>up</stem>
			</note>
			<note>
				<pitch>
					<step>E</step>
					<octave>5</octave>
				</pitch>
				<duration>20</duration>
				<voice>1</voice>
				<type>quarter</type>
				<stem>down</stem>
			</note>
		</measure><!--
===========================================================
-->

		<measure number="3" width="138">
			<print new-system="no"></print>
			<attributes></attributes>
			<note>
				<pitch>
					<step>D</step>
					<octave>5</octave>
				</pitch>
				<duration>20</duration>
				<voice>1</voice>
				<type>quarter</type>
				<stem>down</stem>
			</note>
			<direction placement="below">
				<direction-type>
					<words relative-x="-4.5761" default-y="-1703.6967" font-family="Times New Roman" font-style="normal" font-size="15" font-weight="normal" color="#000000">page l made by the ABCedit Music Editor.</words>
				</direction-type>
				<staff>1</staff>
			</direction>
			<note>
				<pitch>
					<step>B</step>
					<octave>4</octave>
				</pitch>
				<duration>30</duration>
				<voice>1</voice>
				<type>quarter</type>
				<dot/>
				<stem>down</stem>
			</note>
			<note>
				<pitch>
					<step>G</step>
					<octave>4</octave>
				</pitch>
				<duration>10</duration>
				<voice>1</voice>
				<type>eighth</type>
				<stem>up</stem>
			</note>
		</measure><!--
===========================================================
-->

		<measure number="4" width="144">
			<print new-system="no"></print>
			<attributes></attributes>
			<note>
				<pitch>
					<step>G</step>
					<octave>4</octave>
				</pitch>
				<duration>10</duration>
				<voice>1</voice>
				<type>eighth</type>
				<stem>up</stem>
				<beam number="1">begin</beam>
			</note>
			<direction placement="above">
				<direction-type>
					<words relative-x="0.3168" default-y="97.7418" font-family="Times New Roman" font-style="normal" font-size="17" font-weight="normal" color="#000000">The Holly and the Ivy</words>
				</direction-type>
				<staff>1</staff>
			</direction>
			<note>
				<pitch>
					<step>G</step>
					<octave>4</octave>
				</pitch>
				<duration>10</duration>
				<voice>1</voice>
				<type>eighth</type>
				<stem>up</stem>
				<beam number="1">end</beam>
			</note>
			<note>
				<pitch>
					<step>G</step>
					<octave>4</octave>
				</pitch>
				<duration>20</duration>
				<voice>1</voice>
				<type>quarter</type>
				<stem>up</stem>
			</note>
			<note>
				<pitch>
					<step>E</step>
					<octave>5</octave>
				</pitch>
				<duration>20</duration>
				<voice>1</voice>
				<type>quarter</type>
				<stem>down</stem>
			</note>
		</measure><!--
===========================================================
-->

		<measure number="5" width="119">
			<print new-system="no"></print>
			<attributes></attributes>
			<direction placement="above">
				<direction-type>
					<words relative-x="11.7573" default-y="42.0211" font-family="Times New Roman" font-style="normal" font-size="13" font-weight="normal" color="#000000">D7</words>
				</direction-type>
				<staff>1</staff>
			</direction>
			<note>
				<pitch>
					<step>D</step>
					<octave>5</octave>
				</pitch>
				<duration>40</duration>
				<voice>1</voice>
				<type>half</type>
				<stem>down</stem>
			</note>
			<note>
				<pitch>
					<step>D</step>
					<octave>5</octave>
				</pitch>
				<duration>10</duration>
				<voice>1</voice>
				<type>eighth</type>
				<stem>down</stem>
				<beam number="1">begin</beam>
			</note>
			<note>
				<pitch>
					<step>C</step>
					<octave>5</octave>
				</pitch>
				<duration>10</duration>
				<voice>1</voice>
				<type>eighth</type>
				<stem>down</stem>
				<beam number="1">end</beam>
			</note>
		</measure><!--
===========================================================
-->

		<measure number="6" width="141">
			<print new-system="no"></print>
			<attributes></attributes>
			<note>
				<pitch>
					<step>B</step>
					<octave>4</octave>
				</pitch>
				<duration>10</duration>
				<voice>1</voice>
				<type>eighth</type>
				<stem>up</stem>
				<beam number="1">begin</beam>
			</note>
			<note>
				<pitch>
					<step>A</step>
					<octave>4</octave>
				</pitch>
				<duration>10</duration>
				<voice>1</voice>
				<type>eighth</type>
				<stem>up</stem>
				<beam number="1">end</beam>
			</note>
			<note>
				<pitch>
					<step>G</step>
					<octave>4</octave>
				</pitch>
				<duration>20</duration>
				<voice>1</voice>
				<type>quarter</type>
				<stem>up</stem>
			</note>
			<note>
				<pitch>
					<step>B</step>
					<octave>4</octave>
				</pitch>
				<duration>20</duration>
				<voice>1</voice>
				<type>quarter</type>
				<stem>up</stem>
			</note>
		</measure><!--
===========================================================
-->

		<measure number="7" width="166">
			<print new-system="no"></print>
			<attributes></attributes>
			<note>
				<pitch>
					<step>E</step>
					<octave>4</octave>
				</pitch>
				<duration>10</duration>
				<voice>1</voice>
				<type>eighth</type>
				<stem>up</stem>
				<beam number="1">begin</beam>
			</note>
			<note>
				<pitch>
					<step>E</step>
					<octave>4</octave>
				</pitch>
				<duration>10</duration>
				<voice>1</voice>
				<type>eighth</type>
				<stem>up</stem>
				<beam number="1">end</beam>
			</note>
			<note>
				<pitch>
					<step>D</step>
					<octave>4</octave>
				</pitch>
				<duration>20</duration>
				<voice>1</voice>
				<type>quarter</type>
				<stem>up</stem>
			</note>
			<direction placement="above">
				<direction-type>
					<words relative-x="-40.7817" default-y="42.5041" font-family="Times New Roman" font-style="normal" font-size="13" font-weight="normal" color="#000000">G Em</words>
				</direction-type>
				<staff>1</staff>
			</direction>
			<note>
				<pitch>
					<step>G</step>
					<octave>4</octave>
				</pitch>
				<duration>10</duration>
				<voice>1</voice>
				<type>eighth</type>
				<stem>up</stem>
				<beam number="1">begin</beam>
			</note>
			<note>
				<pitch>
					<step>A</step>
					<octave>4</octave>
				</pitch>
				<duration>10</duration>
				<voice>1</voice>
				<type>eighth</type>
				<stem>up</stem>
				<beam number="1">end</beam>
			</note>
		</measure><!--
===========================================================
-->

		<measure number="8" width="144">
			<print new-system="no"></print>
			<attributes></attributes>
			<note>
				<pitch>
					<step>B</step>
					<octave>4</octave>
				</pitch>
				<duration>10</duration>
				<voice>1</voice>
				<type>eighth</type>
				<stem>down</stem>
				<beam number="1">begin</beam>
			</note>
			<note>
				<pitch>
					<step>C</step>
					<octave>5</octave>
				</pitch>
				<duration>10</duration>
				<voice>1</voice>
				<type>eighth</type>
				<stem>down</stem>
				<beam number="1">end</beam>
			</note>
			<note>
				<pitch>
					<step>B</step>
					<octave>4</octave>
				</pitch>
				<duration>20</duration>
				<voice>1</voice>
				<type>quarter</type>
				<stem>down</stem>
			</note>
			<direction placement="above">
				<direction-type>
					<words relative-x="-26.2691" default-y="42.5041" font-family="Times New Roman" font-style="normal" font-size="13" font-weight="normal" color="#000000">G D7 G</words>
				</direction-type>
				<staff>1</staff>
			</direction>
			<note>
				<pitch>
					<step>A</step>
					<octave>4</octave>
				</pitch>
				<duration>20</duration>
				<voice>1</voice>
				<type>quarter</type>
				<stem>up</stem>
			</note>
		</measure><!--
===========================================================
-->

		<measure number="9" width="75">
			<print new-system="no"></print>
			<attributes>
				<time>
					<beats>1</beats>
					<beat-type>4</beat-type>
				</time>
			</attributes>
			<note>
				<pitch>
					<step>G</step>
					<octave>4</octave>
				</pitch>
				<duration>20</duration>
				<voice>1</voice>
				<type>quarter</type>
				<stem>up</stem>
			</note>
			<barline location="right">
				<bar-style>light-heavy</bar-style>
				<repeat direction="backward"/>
			</barline>
		</measure>
	</part>
</score-partwise>