<?xml version="1.0" encoding="UTF-8"?>
<!DOCTYPE score-partwise PUBLIC "-//Recordare//DTD MusicXML 2.0 Partwise//EN" "http://www.musicxml.org/dtds/partwise.dtd">
<score-partwise>
	<movement-title></movement-title>
	<identification>
		<creator type="composer"></creator>
		<rights></rights>
		<encoding>
			<software>Improvisor 4.07</software>
			<encoding-date>2012-02-13</encoding-date>
		</encoding>
		<source></source>
	</identification>
	<part-list>
		<score-part id="P1">
			<part-name></part-name>
			<score-instrument id="P1-I3">
				<instrument-name></instrument-name>
			</score-instrument>
			<midi-instrument id="P1-I3">
				<midi-channel>1</midi-channel>
				<midi-program>0</midi-program>
			</midi-instrument>
		</score-part>
	</part-list>
	<part id="P1">
		<measure number="1">
			<attributes>
				<divisions>120</divisions>
				<key>
					<fifths>0</fifths>
					<mode>major</mode>
				</key>
				<time>
					<beats>4</beats>
					<beat-type>4</beat-type>
				</time>
				<clef>
					<sign>G</sign>
					<line>2</line>
				</clef>
			</attributes>
			<harmony print-frame="no">
				<root>
  				<root-step>C</root-step>
  			</root>
				<kind text="">major</kind>
			</harmony>
			<note>
			 	<pitch>
			 		<step>G</step>
			 		<octave>4</octave>
			 	</pitch>
				<duration>60</duration>
				<voice>1</voice>
				<type>eighth</type>
				<accidental>natural</accidental>
			</note>
			<note>
			 	<pitch>
			 		<step>G</step>
			 		<octave>4</octave>
			 	</pitch>
				<duration>60</duration>
				<voice>1</voice>
				<type>eighth</type>
				<accidental>natural</accidental>
			</note>
			<note>
			 	<pitch>
			 		<step>D</step>
			 		<octave>4</octave>
			 	</pitch>
				<duration>60</duration>
				<voice>1</voice>
				<type>eighth</type>
				<accidental>natural</accidental>
			</note>
			<note>
			 	<pitch>
			 		<step>D</step>
			 		<octave>4</octave>
			 	</pitch>
				<duration>60</duration>
				<voice>1</voice>
				<type>eighth</type>
				<accidental>natural</accidental>
			</note>
			<harmony print-frame="no">
				<root>
  				<root-step>A</root-step>
  			</root>
				<kind text="m">minor</kind>
			</harmony>
			<note>
			 	<pitch>
			 		<step>D</step>
			 		<octave>4</octave>
			 	</pitch>
				<duration>60</duration>
				<voice>1</voice>
				<type>eighth</type>
				<accidental>natural</accidental>
			</note>
			<note>
			 	<pitch>
			 		<step>G</step>
			 		<octave>4</octave>
			 	</pitch>
				<duration>60</duration>
				<voice>1</voice>
				<type>eighth</type>
				<accidental>natural</accidental>
			</note>
			<note>
			 	<pitch>
			 		<step>D</step>
			 		<octave>4</octave>
			 	</pitch>
				<duration>60</duration>
				<voice>1</voice>
				<type>eighth</type>
				<accidental>natural</accidental>
			</note>
			<note>
			 	<pitch>
			 		<step>D</step>
			 		<octave>4</octave>
			 	</pitch>
				<duration>60</duration>
				<voice>1</voice>
				<type>eighth</type>
				<accidental>natural</accidental>
			</note>
		</measure>
		<measure number="2">
			<harmony print-frame="no">
				<root>
  				<root-step>F</root-step>
  			</root>
				<kind text="">major</kind>
			</harmony>
			<note>
			 	<pitch>
			 		<step>D</step>
			 		<octave>4</octave>
			 	</pitch>
				<duration>60</duration>
				<voice>1</voice>
				<type>eighth</type>
				<accidental>natural</accidental>
			</note>
			<note>
			 	<pitch>
			 		<step>D</step>
			 		<octave>4</octave>
			 	</pitch>
				<duration>60</duration>
				<voice>1</voice>
				<type>eighth</type>
				<accidental>natural</accidental>
			</note>
			<note>
			 	<pitch>
			 		<step>D</step>
			 		<octave>4</octave>
			 	</pitch>
				<duration>60</duration>
				<voice>1</voice>
				<type>eighth</type>
				<accidental>natural</accidental>
			</note>
			<note>
			 	<pitch>
			 		<step>E</step>
			 		<octave>4</octave>
			 	</pitch>
				<duration>60</duration>
				<voice>1</voice>
				<type>eighth</type>
				<accidental>natural</accidental>
			</note>
			<harmony print-frame="no">
				<root>
  				<root-step>G</root-step>
  			</root>
				<kind text="">major</kind>
			</harmony>
			<note>
			 	<pitch>
			 		<step>C</step>
			 		<octave>4</octave>
			 	</pitch>
				<duration>60</duration>
				<voice>1</voice>
				<type>eighth</type>
				<accidental>natural</accidental>
			</note>
			<note>
			 	<rest/>
				<duration>60</duration>
				<voice>1</voice>
				<type>eighth</type>
			</note>
			<note>
			 	<rest/>
				<duration>60</duration>
				<voice>1</voice>
				<type>eighth</type>
			</note>
			<note>
			 	<rest/>
				<duration>60</duration>
				<voice>1</voice>
				<type>eighth</type>
			</note>
		</measure>
		<measure number="3">
			<harmony print-frame="no">
				<root>
  				<root-step>C</root-step>
  			</root>
				<kind text="">major</kind>
			</harmony>
			<note>
			 	<pitch>
			 		<step>G</step>
			 		<octave>4</octave>
			 	</pitch>
				<duration>60</duration>
				<voice>1</voice>
				<type>eighth</type>
				<accidental>natural</accidental>
			</note>
			<note>
			 	<rest/>
				<duration>60</duration>
				<voice>1</voice>
				<type>eighth</type>
			</note>
			<note>
			 	<rest/>
				<duration>60</duration>
				<voice>1</voice>
				<type>eighth</type>
			</note>
			<note>
			 	<rest/>
				<duration>60</duration>
				<voice>1</voice>
				<type>eighth</type>
			</note>
			<harmony print-frame="no">
				<root>
  				<root-step>A</root-step>
  			</root>
				<kind text="m">minor</kind>
			</harmony>
			<note>
			 	<pitch>
			 		<step>D</step>
			 		<octave>4</octave>
			 	</pitch>
				<duration>60</duration>
				<voice>1</voice>
				<type>eighth</type>
				<accidental>natural</accidental>
			</note>
			<note>
			 	<rest/>
				<duration>60</duration>
				<voice>1</voice>
				<type>eighth</type>
			</note>
			<note>
			 	<rest/>
				<duration>60</duration>
				<voice>1</voice>
				<type>eighth</type>
			</note>
			<note>
			 	<rest/>
				<duration>60</duration>
				<voice>1</voice>
				<type>eighth</type>
			</note>
		</measure>
		<measure number="4">
			<harmony print-frame="no">
				<root>
  				<root-step>F</root-step>
  			</root>
				<kind text="">major</kind>
			</harmony>
			<note>
			 	<pitch>
			 		<step>C</step>
			 		<octave>4</octave>
			 	</pitch>
				<duration>60</duration>
				<voice>1</voice>
				<type>eighth</type>
				<accidental>natural</accidental>
			</note>
			<note>
			 	<rest/>
				<duration>60</duration>
				<voice>1</voice>
				<type>eighth</type>
			</note>
			<note>
			 	<rest/>
				<duration>60</duration>
				<voice>1</voice>
				<type>eighth</type>
			</note>
			<note>
			 	<pitch>
			 		<step>G</step>
			 		<octave>4</octave>
			 	</pitch>
				<duration>60</duration>
				<voice>1</voice>
				<type>eighth</type>
				<accidental>natural</accidental>
			</note>
			<harmony print-frame="no">
				<root>
  				<root-step>G</root-step>
  			</root>
				<kind text="">major</kind>
			</harmony>
			<note>
			 	<pitch>
			 		<step>C</step>
			 		<octave>4</octave>
			 	</pitch>
				<duration>60</duration>
				<voice>1</voice>
				<type>eighth</type>
				<accidental>natural</accidental>
			</note>
			<note>
			 	<rest/>
				<duration>60</duration>
				<voice>1</voice>
				<type>eighth</type>
			</note>
			<note>
			 	<pitch>
			 		<step>D</step>
			 		<octave>4</octave>
			 	</pitch>
				<duration>60</duration>
				<voice>1</voice>
				<type>eighth</type>
				<accidental>natural</accidental>
			</note>
			<note>
			 	<rest/>
				<duration>60</duration>
				<voice>1</voice>
				<type>eighth</type>
			</note>
		</measure>
		<measure number="5">
		<print new-system="yes"/>
			<harmony print-frame="no">
				<root>
  				<root-step>C</root-step>
  			</root>
				<kind text="">major</kind>
			</harmony>
			<note>
			 	<pitch>
			 		<step>D</step>
			 		<octave>4</octave>
			 	</pitch>
				<duration>60</duration>
				<voice>1</voice>
				<type>eighth</type>
				<accidental>natural</accidental>
			</note>
			<note>
			 	<pitch>
			 		<step>G</step>
			 		<octave>4</octave>
			 	</pitch>
				<duration>60</duration>
				<voice>1</voice>
				<type>eighth</type>
				<accidental>natural</accidental>
			</note>
			<note>
			 	<rest/>
				<duration>60</duration>
				<voice>1</voice>
				<type>eighth</type>
			</note>
			<note>
			 	<rest/>
				<duration>60</duration>
				<voice>1</voice>
				<type>eighth</type>
			</note>
			<harmony print-frame="no">
				<root>
  				<root-step>D</root-step>
  			</root>
				<kind text="m">minor</kind>
			</harmony>
			<note>
			 	<pitch>
			 		<step>C</step>
			 		<octave>4</octave>
			 	</pitch>
				<duration>60</duration>
				<voice>1</voice>
				<type>eighth</type>
				<accidental>natural</accidental>
			</note>
			<note>
			 	<pitch>
			 		<step>G</step>
			 		<octave>4</octave>
			 	</pitch>
				<duration>60</duration>
				<voice>1</voice>
				<type>eighth</type>
				<accidental>natural</accidental>
			</note>
			<note>
			 	<pitch>
			 		<step>G</step>
			 		<octave>4</octave>
			 	</pitch>
				<duration>60</duration>
				<voice>1</voice>
				<type>eighth</type>
				<accidental>natural</accidental>
			</note>
			<note>
			 	<pitch>
			 		<step>A</step>
			 		<octave>3</octave>
			 	</pitch>
				<duration>60</duration>
				<voice>1</voice>
				<type>eighth</type>
				<accidental>natural</accidental>
			</note>
		</measure>
		<measure number="6">
			<harmony print-frame="no">
				<root>
  				<root-step>A</root-step>
  			</root>
				<kind text="m">minor</kind>
			</harmony>
			<note>
			 	<pitch>
			 		<step>D</step>
			 		<octave>4</octave>
			 	</pitch>
				<duration>60</duration>
				<voice>1</voice>
				<type>eighth</type>
				<accidental>natural</accidental>
			</note>
			<note>
			 	<pitch>
			 		<step>A</step>
			 		<octave>3</octave>
			 	</pitch>
				<duration>60</duration>
				<voice>1</voice>
				<type>eighth</type>
				<accidental>natural</accidental>
			</note>
			<note>
			 	<pitch>
			 		<step>A</step>
			 		<octave>3</octave>
			 	</pitch>
				<duration>60</duration>
				<voice>1</voice>
				<type>eighth</type>
				<accidental>natural</accidental>
			</note>
			<note>
			 	<pitch>
			 		<step>A</step>
			 		<octave>3</octave>
			 	</pitch>
				<duration>60</duration>
				<voice>1</voice>
				<type>eighth</type>
				<accidental>natural</accidental>
			</note>
			<harmony print-frame="no">
				<root>
  				<root-step>G</root-step>
  			</root>
				<kind text="">major</kind>
			</harmony>
			<note>
			 	<pitch>
			 		<step>E</step>
			 		<octave>4</octave>
			 	</pitch>
				<duration>60</duration>
				<voice>1</voice>
				<type>eighth</type>
				<accidental>natural</accidental>
			</note>
			<note>
			 	<pitch>
			 		<step>E</step>
			 		<octave>4</octave>
			 	</pitch>
				<duration>60</duration>
				<voice>1</voice>
				<type>eighth</type>
				<accidental>natural</accidental>
			</note>
			<note>
			 	<pitch>
			 		<step>G</step>
			 		<octave>4</octave>
			 	</pitch>
				<duration>60</duration>
				<voice>1</voice>
				<type>eighth</type>
				<accidental>natural</accidental>
			</note>
			<note>
			 	<pitch>
			 		<step>A</step>
			 		<octave>3</octave>
			 	</pitch>
				<duration>60</duration>
				<voice>1</voice>
				<type>eighth</type>
				<accidental>natural</accidental>
			</note>
		</measure>
		<measure number="7">
			<harmony print-frame="no">
				<root>
  				<root-step>C</root-step>
  			</root>
				<kind text="">major</kind>
			</harmony>
			<note>
			 	<pitch>
			 		<step>C</step>
			 		<octave>4</octave>
			 	</pitch>
				<duration>60</duration>
				<voice>1</voice>
				<type>eighth</type>
				<accidental>natural</accidental>
			</note>
			<note>
			 	<rest/>
				<duration>60</duration>
				<voice>1</voice>
				<type>eighth</type>
			</note>
			<note>
			 	<rest/>
				<duration>60</duration>
				<voice>1</voice>
				<type>eighth</type>
			</note>
			<note>
			 	<rest/>
				<duration>60</duration>
				<voice>1</voice>
				<type>eighth</type>
			</note>
			<harmony print-frame="no">
				<root>
  				<root-step>A</root-step>
  			</root>
				<kind text="m">minor</kind>
			</harmony>
			<note>
			 	<pitch>
			 		<step>G</step>
			 		<octave>4</octave>
			 	</pitch>
				<duration>60</duration>
				<voice>1</voice>
				<type>eighth</type>
				<accidental>natural</accidental>
			</note>
			<note>
			 	<rest/>
				<duration>60</duration>
				<voice>1</voice>
				<type>eighth</type>
			</note>
			<note>
			 	<rest/>
				<duration>60</duration>
				<voice>1</voice>
				<type>eighth</type>
			</note>
			<note>
			 	<rest/>
				<duration>60</duration>
				<voice>1</voice>
				<type>eighth</type>
			</note>
		</measure>
		<measure number="8">
			<harmony print-frame="no">
				<root>
  				<root-step>F</root-step>
  			</root>
				<kind text="">major</kind>
			</harmony>
			<note>
			 	<pitch>
			 		<step>E</step>
			 		<octave>4</octave>
			 	</pitch>
				<duration>60</duration>
				<voice>1</voice>
				<type>eighth</type>
				<accidental>natural</accidental>
			</note>
			<note>
			 	<rest/>
				<duration>60</duration>
				<voice>1</voice>
				<type>eighth</type>
			</note>
			<note>
			 	<rest/>
				<duration>60</duration>
				<voice>1</voice>
				<type>eighth</type>
			</note>
			<note>
			 	<rest/>
				<duration>60</duration>
				<voice>1</voice>
				<type>eighth</type>
			</note>
			<harmony print-frame="no">
				<root>
  				<root-step>G</root-step>
  			</root>
				<kind text="">major</kind>
			</harmony>
			<note>
			 	<pitch>
			 		<step>G</step>
			 		<octave>4</octave>
			 	</pitch>
				<duration>60</duration>
				<voice>1</voice>
				<type>eighth</type>
				<accidental>natural</accidental>
			</note>
			<note>
			 	<rest/>
				<duration>60</duration>
				<voice>1</voice>
				<type>eighth</type>
			</note>
			<note>
			 	<rest/>
				<duration>60</duration>
				<voice>1</voice>
				<type>eighth</type>
			</note>
			<note>
			 	<pitch>
			 		<step>D</step>
			 		<octave>4</octave>
			 	</pitch>
				<duration>60</duration>
				<voice>1</voice>
				<type>eighth</type>
				<accidental>natural</accidental>
			</note>
		</measure>
		<measure number="9">
		<print new-system="yes"/>
			<harmony print-frame="no">
				<root>
  				<root-step>C</root-step>
  			</root>
				<kind text="">major</kind>
			</harmony>
			<note>
			 	<pitch>
			 		<step>D</step>
			 		<octave>4</octave>
			 	</pitch>
				<duration>60</duration>
				<voice>1</voice>
				<type>eighth</type>
				<accidental>natural</accidental>
			</note>
			<note>
			 	<rest/>
				<duration>60</duration>
				<voice>1</voice>
				<type>eighth</type>
			</note>
			<note>
			 	<pitch>
			 		<step>E</step>
			 		<octave>4</octave>
			 	</pitch>
				<duration>60</duration>
				<voice>1</voice>
				<type>eighth</type>
				<accidental>natural</accidental>
			</note>
			<note>
			 	<rest/>
				<duration>60</duration>
				<voice>1</voice>
				<type>eighth</type>
			</note>
			<note>
			 	<pitch>
			 		<step>A</step>
			 		<octave>3</octave>
			 	</pitch>
				<duration>60</duration>
				<voice>1</voice>
				<type>eighth</type>
				<accidental>natural</accidental>
			</note>
			<note>
			 	<pitch>
			 		<step>G</step>
			 		<octave>4</octave>
			 	</pitch>
				<duration>60</duration>
				<voice>1</voice>
				<type>eighth</type>
				<accidental>natural</accidental>
			</note>
			<note>
			 	<rest/>
				<duration>60</duration>
				<voice>1</voice>
				<type>eighth</type>
			</note>
			<note>
			 	<rest/>
				<duration>60</duration>
				<voice>1</voice>
				<type>eighth</type>
			</note>
		</measure>
		<measure number="10">
			<harmony print-frame="no">
				<root>
  				<root-step>C</root-step>
  			</root>
				<kind text="">major</kind>
			</harmony>
			<note>
			 	<pitch>
			 		<step>A</step>
			 		<octave>3</octave>
			 	</pitch>
				<duration>60</duration>
				<voice>1</voice>
				<type>eighth</type>
				<accidental>natural</accidental>
			</note>
			<note>
			 	<pitch>
			 		<step>C</step>
			 		<octave>4</octave>
			 	</pitch>
				<duration>60</duration>
				<voice>1</voice>
				<type>eighth</type>
				<accidental>natural</accidental>
			</note>
			<note>
			 	<pitch>
			 		<step>C</step>
			 		<octave>4</octave>
			 	</pitch>
				<duration>60</duration>
				<voice>1</voice>
				<type>eighth</type>
				<accidental>natural</accidental>
			</note>
			<note>
			 	<pitch>
			 		<step>C</step>
			 		<octave>4</octave>
			 	</pitch>
				<duration>60</duration>
				<voice>1</voice>
				<type>eighth</type>
				<accidental>natural</accidental>
			</note>
			<note>
			 	<pitch>
			 		<step>D</step>
			 		<octave>4</octave>
			 	</pitch>
				<duration>60</duration>
				<voice>1</voice>
				<type>eighth</type>
				<accidental>natural</accidental>
			</note>
			<note>
			 	<pitch>
			 		<step>G</step>
			 		<octave>4</octave>
			 	</pitch>
				<duration>60</duration>
				<voice>1</voice>
				<type>eighth</type>
				<accidental>natural</accidental>
			</note>
			<note>
			 	<pitch>
			 		<step>C</step>
			 		<octave>4</octave>
			 	</pitch>
				<duration>60</duration>
				<voice>1</voice>
				<type>eighth</type>
				<accidental>natural</accidental>
			</note>
			<note>
			 	<pitch>
			 		<step>G</step>
			 		<octave>4</octave>
			 	</pitch>
				<duration>60</duration>
				<voice>1</voice>
				<type>eighth</type>
				<accidental>natural</accidental>
			</note>
		</measure>
		<measure number="11">
			<harmony print-frame="no">
				<root>
  				<root-step>C</root-step>
  			</root>
				<kind text="">major</kind>
			</harmony>
			<note>
			 	<pitch>
			 		<step>G</step>
			 		<octave>4</octave>
			 	</pitch>
				<duration>60</duration>
				<voice>1</voice>
				<type>eighth</type>
				<accidental>natural</accidental>
			</note>
			<note>
			 	<pitch>
			 		<step>A</step>
			 		<octave>3</octave>
			 	</pitch>
				<duration>60</duration>
				<voice>1</voice>
				<type>eighth</type>
				<accidental>natural</accidental>
			</note>
			<note>
			 	<pitch>
			 		<step>G</step>
			 		<octave>4</octave>
			 	</pitch>
				<duration>60</duration>
				<voice>1</voice>
				<type>eighth</type>
				<accidental>natural</accidental>
			</note>
			<note>
			 	<pitch>
			 		<step>G</step>
			 		<octave>4</octave>
			 	</pitch>
				<duration>60</duration>
				<voice>1</voice>
				<type>eighth</type>
				<accidental>natural</accidental>
			</note>
			<note>
			 	<pitch>
			 		<step>E</step>
			 		<octave>4</octave>
			 	</pitch>
				<duration>60</duration>
				<voice>1</voice>
				<type>eighth</type>
				<accidental>natural</accidental>
			</note>
			<note>
			 	<rest/>
				<duration>60</duration>
				<voice>1</voice>
				<type>eighth</type>
			</note>
			<note>
			 	<rest/>
				<duration>60</duration>
				<voice>1</voice>
				<type>eighth</type>
			</note>
			<note>
			 	<rest/>
				<duration>60</duration>
				<voice>1</voice>
				<type>eighth</type>
			</note>
		</measure>
		<measure number="12">
			<harmony print-frame="no">
				<root>
  				<root-step>C</root-step>
  			</root>
				<kind text="">major</kind>
			</harmony>
			<note>
			 	<pitch>
			 		<step>A</step>
			 		<octave>3</octave>
			 	</pitch>
				<duration>60</duration>
				<voice>1</voice>
				<type>eighth</type>
				<accidental>natural</accidental>
			</note>
			<note>
			 	<rest/>
				<duration>60</duration>
				<voice>1</voice>
				<type>eighth</type>
			</note>
			<note>
			 	<rest/>
				<duration>60</duration>
				<voice>1</voice>
				<type>eighth</type>
			</note>
			<note>
			 	<rest/>
				<duration>60</duration>
				<voice>1</voice>
				<type>eighth</type>
			</note>
			<note>
			 	<pitch>
			 		<step>C</step>
			 		<octave>4</octave>
			 	</pitch>
				<duration>60</duration>
				<voice>1</voice>
				<type>eighth</type>
				<accidental>natural</accidental>
			</note>
			<note>
			 	<rest/>
				<duration>60</duration>
				<voice>1</voice>
				<type>eighth</type>
			</note>
			<note>
			 	<rest/>
				<duration>60</duration>
				<voice>1</voice>
				<type>eighth</type>
			</note>
			<note>
			 	<rest/>
				<duration>60</duration>
				<voice>1</voice>
				<type>eighth</type>
			</note>
		</measure>
		<measure number="13">
		<print new-system="yes"/>
			<harmony print-frame="no">
				<root>
  				<root-step>C</root-step>
  			</root>
				<kind text="">major</kind>
			</harmony>
			<note>
			 	<pitch>
			 		<step>G</step>
			 		<octave>4</octave>
			 	</pitch>
				<duration>60</duration>
				<voice>1</voice>
				<type>eighth</type>
				<accidental>natural</accidental>
			</note>
			<note>
			 	<rest/>
				<duration>60</duration>
				<voice>1</voice>
				<type>eighth</type>
			</note>
			<note>
			 	<rest/>
				<duration>60</duration>
				<voice>1</voice>
				<type>eighth</type>
			</note>
			<note>
			 	<pitch>
			 		<step>D</step>
			 		<octave>4</octave>
			 	</pitch>
				<duration>60</duration>
				<voice>1</voice>
				<type>eighth</type>
				<accidental>natural</accidental>
			</note>
			<harmony print-frame="no">
				<root>
  				<root-step>A</root-step>
  			</root>
				<kind text="m">minor</kind>
			</harmony>
			<note>
			 	<pitch>
			 		<step>D</step>
			 		<octave>4</octave>
			 	</pitch>
				<duration>60</duration>
				<voice>1</voice>
				<type>eighth</type>
				<accidental>natural</accidental>
			</note>
			<note>
			 	<rest/>
				<duration>60</duration>
				<voice>1</voice>
				<type>eighth</type>
			</note>
			<note>
			 	<pitch>
			 		<step>C</step>
			 		<octave>4</octave>
			 	</pitch>
				<duration>60</duration>
				<voice>1</voice>
				<type>eighth</type>
				<accidental>natural</accidental>
			</note>
			<note>
			 	<rest/>
				<duration>60</duration>
				<voice>1</voice>
				<type>eighth</type>
			</note>
		</measure>
		<measure number="14">
			<harmony print-frame="no">
				<root>
  				<root-step>F</root-step>
  			</root>
				<kind text="">major</kind>
			</harmony>
			<note>
			 	<pitch>
			 		<step>G</step>
			 		<octave>4</octave>
			 	</pitch>
				<duration>60</duration>
				<voice>1</voice>
				<type>eighth</type>
				<accidental>natural</accidental>
			</note>
			<note>
			 	<pitch>
			 		<step>C</step>
			 		<octave>4</octave>
			 	</pitch>
				<duration>60</duration>
				<voice>1</voice>
				<type>eighth</type>
				<accidental>natural</accidental>
			</note>
			<note>
			 	<rest/>
				<duration>60</duration>
				<voice>1</voice>
				<type>eighth</type>
			</note>
			<note>
			 	<rest/>
				<duration>60</duration>
				<voice>1</voice>
				<type>eighth</type>
			</note>
			<harmony print-frame="no">
				<root>
  				<root-step>G</root-step>
  			</root>
				<kind text="">major</kind>
			</harmony>
			<note>
			 	<pitch>
			 		<step>G</step>
			 		<octave>4</octave>
			 	</pitch>
				<duration>60</duration>
				<voice>1</voice>
				<type>eighth</type>
				<accidental>natural</accidental>
			</note>
			<note>
			 	<pitch>
			 		<step>G</step>
			 		<octave>4</octave>
			 	</pitch>
				<duration>60</duration>
				<voice>1</voice>
				<type>eighth</type>
				<accidental>natural</accidental>
			</note>
			<note>
			 	<pitch>
			 		<step>D</step>
			 		<octave>4</octave>
			 	</pitch>
				<duration>60</duration>
				<voice>1</voice>
				<type>eighth</type>
				<accidental>natural</accidental>
			</note>
			<note>
			 	<pitch>
			 		<step>D</step>
			 		<octave>4</octave>
			 	</pitch>
				<duration>60</duration>
				<voice>1</voice>
				<type>eighth</type>
				<accidental>natural</accidental>
			</note>
		</measure>
		<measure number="15">
			<harmony print-frame="no">
				<root>
  				<root-step>C</root-step>
  			</root>
				<kind text="">major</kind>
			</harmony>
			<note>
			 	<pitch>
			 		<step>D</step>
			 		<octave>4</octave>
			 	</pitch>
				<duration>60</duration>
				<voice>1</voice>
				<type>eighth</type>
				<accidental>natural</accidental>
			</note>
			<note>
			 	<pitch>
			 		<step>G</step>
			 		<octave>4</octave>
			 	</pitch>
				<duration>60</duration>
				<voice>1</voice>
				<type>eighth</type>
				<accidental>natural</accidental>
			</note>
			<note>
			 	<pitch>
			 		<step>D</step>
			 		<octave>4</octave>
			 	</pitch>
				<duration>60</duration>
				<voice>1</voice>
				<type>eighth</type>
				<accidental>natural</accidental>
			</note>
			<note>
			 	<pitch>
			 		<step>D</step>
			 		<octave>4</octave>
			 	</pitch>
				<duration>60</duration>
				<voice>1</voice>
				<type>eighth</type>
				<accidental>natural</accidental>
			</note>
			<harmony print-frame="no">
				<root>
  				<root-step>A</root-step>
  			</root>
				<kind text="m">minor</kind>
			</harmony>
			<note>
			 	<pitch>
			 		<step>D</step>
			 		<octave>4</octave>
			 	</pitch>
				<duration>60</duration>
				<voice>1</voice>
				<type>eighth</type>
				<accidental>natural</accidental>
			</note>
			<note>
			 	<pitch>
			 		<step>D</step>
			 		<octave>4</octave>
			 	</pitch>
				<duration>60</duration>
				<voice>1</voice>
				<type>eighth</type>
				<accidental>natural</accidental>
			</note>
			<note>
			 	<pitch>
			 		<step>D</step>
			 		<octave>4</octave>
			 	</pitch>
				<duration>60</duration>
				<voice>1</voice>
				<type>eighth</type>
				<accidental>natural</accidental>
			</note>
			<note>
			 	<pitch>
			 		<step>E</step>
			 		<octave>4</octave>
			 	</pitch>
				<duration>60</duration>
				<voice>1</voice>
				<type>eighth</type>
				<accidental>natural</accidental>
			</note>
		</measure>
		<measure number="16">
			<harmony print-frame="no">
				<root>
  				<root-step>F</root-step>
  			</root>
				<kind text="">major</kind>
			</harmony>
			<note>
			 	<pitch>
			 		<step>C</step>
			 		<octave>4</octave>
			 	</pitch>
				<duration>60</duration>
				<voice>1</voice>
				<type>eighth</type>
				<accidental>natural</accidental>
			</note>
			<note>
			 	<rest/>
				<duration>60</duration>
				<voice>1</voice>
				<type>eighth</type>
			</note>
			<note>
			 	<rest/>
				<duration>60</duration>
				<voice>1</voice>
				<type>eighth</type>
			</note>
			<note>
			 	<rest/>
				<duration>60</duration>
				<voice>1</voice>
				<type>eighth</type>
			</note>
			<harmony print-frame="no">
				<root>
  				<root-step>G</root-step>
  			</root>
				<kind text="">major</kind>
			</harmony>
			<note>
			 	<pitch>
			 		<step>G</step>
			 		<octave>4</octave>
			 	</pitch>
				<duration>60</duration>
				<voice>1</voice>
				<type>eighth</type>
				<accidental>natural</accidental>
			</note>
			<note>
			 	<rest/>
				<duration>60</duration>
				<voice>1</voice>
				<type>eighth</type>
			</note>
			<note>
			 	<rest/>
				<duration>60</duration>
				<voice>1</voice>
				<type>eighth</type>
			</note>
			<note>
			 	<rest/>
				<duration>60</duration>
				<voice>1</voice>
				<type>eighth</type>
			</note>
		</measure>
		<measure number="17">
		<print new-system="yes"/>
			<harmony print-frame="no">
				<root>
  				<root-step>C</root-step>
  			</root>
				<kind text="">major</kind>
			</harmony>
			<note>
			 	<pitch>
			 		<step>D</step>
			 		<octave>4</octave>
			 	</pitch>
				<duration>60</duration>
				<voice>1</voice>
				<type>eighth</type>
				<accidental>natural</accidental>
			</note>
			<note>
			 	<rest/>
				<duration>60</duration>
				<voice>1</voice>
				<type>eighth</type>
			</note>
			<note>
			 	<rest/>
				<duration>60</duration>
				<voice>1</voice>
				<type>eighth</type>
			</note>
			<note>
			 	<rest/>
				<duration>60</duration>
				<voice>1</voice>
				<type>eighth</type>
			</note>
			<harmony print-frame="no">
				<root>
  				<root-step>D</root-step>
  			</root>
				<kind text="m">minor</kind>
			</harmony>
			<note>
			 	<pitch>
			 		<step>C</step>
			 		<octave>4</octave>
			 	</pitch>
				<duration>60</duration>
				<voice>1</voice>
				<type>eighth</type>
				<accidental>natural</accidental>
			</note>
			<note>
			 	<rest/>
				<duration>60</duration>
				<voice>1</voice>
				<type>eighth</type>
			</note>
			<note>
			 	<rest/>
				<duration>60</duration>
				<voice>1</voice>
				<type>eighth</type>
			</note>
			<note>
			 	<pitch>
			 		<step>G</step>
			 		<octave>4</octave>
			 	</pitch>
				<duration>60</duration>
				<voice>1</voice>
				<type>eighth</type>
				<accidental>natural</accidental>
			</note>
		</measure>
		<measure number="18">
			<harmony print-frame="no">
				<root>
  				<root-step>A</root-step>
  			</root>
				<kind text="m">minor</kind>
			</harmony>
			<note>
			 	<pitch>
			 		<step>C</step>
			 		<octave>4</octave>
			 	</pitch>
				<duration>60</duration>
				<voice>1</voice>
				<type>eighth</type>
				<accidental>natural</accidental>
			</note>
			<note>
			 	<rest/>
				<duration>60</duration>
				<voice>1</voice>
				<type>eighth</type>
			</note>
			<note>
			 	<pitch>
			 		<step>D</step>
			 		<octave>4</octave>
			 	</pitch>
				<duration>60</duration>
				<voice>1</voice>
				<type>eighth</type>
				<accidental>natural</accidental>
			</note>
			<note>
			 	<rest/>
				<duration>60</duration>
				<voice>1</voice>
				<type>eighth</type>
			</note>
			<harmony print-frame="no">
				<root>
  				<root-step>G</root-step>
  			</root>
				<kind text="">major</kind>
			</harmony>
			<note>
			 	<pitch>
			 		<step>D</step>
			 		<octave>4</octave>
			 	</pitch>
				<duration>60</duration>
				<voice>1</voice>
				<type>eighth</type>
				<accidental>natural</accidental>
			</note>
			<note>
			 	<pitch>
			 		<step>G</step>
			 		<octave>4</octave>
			 	</pitch>
				<duration>60</duration>
				<voice>1</voice>
				<type>eighth</type>
				<accidental>natural</accidental>
			</note>
			<note>
			 	<rest/>
				<duration>60</duration>
				<voice>1</voice>
				<type>eighth</type>
			</note>
			<note>
			 	<rest/>
				<duration>60</duration>
				<voice>1</voice>
				<type>eighth</type>
			</note>
		</measure>
		<measure number="19">
			<harmony print-frame="no">
				<root>
  				<root-step>C</root-step>
  			</root>
				<kind text="">major</kind>
			</harmony>
			<note>
			 	<pitch>
			 		<step>C</step>
			 		<octave>4</octave>
			 	</pitch>
				<duration>60</duration>
				<voice>1</voice>
				<type>eighth</type>
				<accidental>natural</accidental>
			</note>
			<note>
			 	<pitch>
			 		<step>G</step>
			 		<octave>4</octave>
			 	</pitch>
				<duration>60</duration>
				<voice>1</voice>
				<type>eighth</type>
				<accidental>natural</accidental>
			</note>
			<note>
			 	<pitch>
			 		<step>G</step>
			 		<octave>4</octave>
			 	</pitch>
				<duration>60</duration>
				<voice>1</voice>
				<type>eighth</type>
				<accidental>natural</accidental>
			</note>
			<note>
			 	<pitch>
			 		<step>A</step>
			 		<octave>3</octave>
			 	</pitch>
				<duration>60</duration>
				<voice>1</voice>
				<type>eighth</type>
				<accidental>natural</accidental>
			</note>
			<harmony print-frame="no">
				<root>
  				<root-step>A</root-step>
  			</root>
				<kind text="m">minor</kind>
			</harmony>
			<note>
			 	<pitch>
			 		<step>D</step>
			 		<octave>4</octave>
			 	</pitch>
				<duration>60</duration>
				<voice>1</voice>
				<type>eighth</type>
				<accidental>natural</accidental>
			</note>
			<note>
			 	<pitch>
			 		<step>A</step>
			 		<octave>3</octave>
			 	</pitch>
				<duration>60</duration>
				<voice>1</voice>
				<type>eighth</type>
				<accidental>natural</accidental>
			</note>
			<note>
			 	<pitch>
			 		<step>A</step>
			 		<octave>3</octave>
			 	</pitch>
				<duration>60</duration>
				<voice>1</voice>
				<type>eighth</type>
				<accidental>natural</accidental>
			</note>
			<note>
			 	<pitch>
			 		<step>A</step>
			 		<octave>3</octave>
			 	</pitch>
				<duration>60</duration>
				<voice>1</voice>
				<type>eighth</type>
				<accidental>natural</accidental>
			</note>
		</measure>
		<measure number="20">
			<harmony print-frame="no">
				<root>
  				<root-step>F</root-step>
  			</root>
				<kind text="">major</kind>
			</harmony>
			<note>
			 	<pitch>
			 		<step>E</step>
			 		<octave>4</octave>
			 	</pitch>
				<duration>60</duration>
				<voice>1</voice>
				<type>eighth</type>
				<accidental>natural</accidental>
			</note>
			<note>
			 	<pitch>
			 		<step>E</step>
			 		<octave>4</octave>
			 	</pitch>
				<duration>60</duration>
				<voice>1</voice>
				<type>eighth</type>
				<accidental>natural</accidental>
			</note>
			<note>
			 	<pitch>
			 		<step>G</step>
			 		<octave>4</octave>
			 	</pitch>
				<duration>60</duration>
				<voice>1</voice>
				<type>eighth</type>
				<accidental>natural</accidental>
			</note>
			<note>
			 	<pitch>
			 		<step>A</step>
			 		<octave>3</octave>
			 	</pitch>
				<duration>60</duration>
				<voice>1</voice>
				<type>eighth</type>
				<accidental>natural</accidental>
			</note>
			<harmony print-frame="no">
				<root>
  				<root-step>G</root-step>
  			</root>
				<kind text="">major</kind>
			</harmony>
			<note>
			 	<pitch>
			 		<step>C</step>
			 		<octave>4</octave>
			 	</pitch>
				<duration>60</duration>
				<voice>1</voice>
				<type>eighth</type>
				<accidental>natural</accidental>
			</note>
			<note>
			 	<rest/>
				<duration>60</duration>
				<voice>1</voice>
				<type>eighth</type>
			</note>
			<note>
			 	<rest/>
				<duration>60</duration>
				<voice>1</voice>
				<type>eighth</type>
			</note>
			<note>
			 	<rest/>
				<duration>60</duration>
				<voice>1</voice>
				<type>eighth</type>
			</note>
		</measure>
		<measure number="21">
		<print new-system="yes"/>
			<harmony print-frame="no">
				<root>
  				<root-step>C</root-step>
  			</root>
				<kind text="">major</kind>
			</harmony>
			<note>
			 	<pitch>
			 		<step>G</step>
			 		<octave>4</octave>
			 	</pitch>
				<duration>60</duration>
				<voice>1</voice>
				<type>eighth</type>
				<accidental>natural</accidental>
			</note>
			<note>
			 	<rest/>
				<duration>60</duration>
				<voice>1</voice>
				<type>eighth</type>
			</note>
			<note>
			 	<rest/>
				<duration>60</duration>
				<voice>1</voice>
				<type>eighth</type>
			</note>
			<note>
			 	<rest/>
				<duration>60</duration>
				<voice>1</voice>
				<type>eighth</type>
			</note>
			<note>
			 	<pitch>
			 		<step>E</step>
			 		<octave>4</octave>
			 	</pitch>
				<duration>60</duration>
				<voice>1</voice>
				<type>eighth</type>
				<accidental>natural</accidental>
			</note>
			<note>
			 	<rest/>
				<duration>60</duration>
				<voice>1</voice>
				<type>eighth</type>
			</note>
			<note>
			 	<rest/>
				<duration>60</duration>
				<voice>1</voice>
				<type>eighth</type>
			</note>
			<note>
			 	<rest/>
				<duration>60</duration>
				<voice>1</voice>
				<type>eighth</type>
			</note>
		</measure>
		<measure number="22">
			<harmony print-frame="no">
				<root>
  				<root-step>C</root-step>
  			</root>
				<kind text="">major</kind>
			</harmony>
			<note>
			 	<pitch>
			 		<step>G</step>
			 		<octave>4</octave>
			 	</pitch>
				<duration>60</duration>
				<voice>1</voice>
				<type>eighth</type>
				<accidental>natural</accidental>
			</note>
			<note>
			 	<rest/>
				<duration>60</duration>
				<voice>1</voice>
				<type>eighth</type>
			</note>
			<note>
			 	<rest/>
				<duration>60</duration>
				<voice>1</voice>
				<type>eighth</type>
			</note>
			<note>
			 	<pitch>
			 		<step>D</step>
			 		<octave>4</octave>
			 	</pitch>
				<duration>60</duration>
				<voice>1</voice>
				<type>eighth</type>
				<accidental>natural</accidental>
			</note>
			<note>
			 	<pitch>
			 		<step>D</step>
			 		<octave>4</octave>
			 	</pitch>
				<duration>60</duration>
				<voice>1</voice>
				<type>eighth</type>
				<accidental>natural</accidental>
			</note>
			<note>
			 	<rest/>
				<duration>60</duration>
				<voice>1</voice>
				<type>eighth</type>
			</note>
			<note>
			 	<pitch>
			 		<step>E</step>
			 		<octave>4</octave>
			 	</pitch>
				<duration>60</duration>
				<voice>1</voice>
				<type>eighth</type>
				<accidental>natural</accidental>
			</note>
			<note>
			 	<rest/>
				<duration>60</duration>
				<voice>1</voice>
				<type>eighth</type>
			</note>
		</measure>
		<measure number="23">
			<harmony print-frame="no">
				<root>
  				<root-step>C</root-step>
  			</root>
				<kind text="">major</kind>
			</harmony>
			<note>
			 	<pitch>
			 		<step>A</step>
			 		<octave>3</octave>
			 	</pitch>
				<duration>60</duration>
				<voice>1</voice>
				<type>eighth</type>
				<accidental>natural</accidental>
			</note>
			<note>
			 	<pitch>
			 		<step>G</step>
			 		<octave>4</octave>
			 	</pitch>
				<duration>60</duration>
				<voice>1</voice>
				<type>eighth</type>
				<accidental>natural</accidental>
			</note>
			<note>
			 	<rest/>
				<duration>60</duration>
				<voice>1</voice>
				<type>eighth</type>
			</note>
			<note>
			 	<rest/>
				<duration>60</duration>
				<voice>1</voice>
				<type>eighth</type>
			</note>
			<note>
			 	<pitch>
			 		<step>A</step>
			 		<octave>3</octave>
			 	</pitch>
				<duration>60</duration>
				<voice>1</voice>
				<type>eighth</type>
				<accidental>natural</accidental>
			</note>
			<note>
			 	<pitch>
			 		<step>C</step>
			 		<octave>4</octave>
			 	</pitch>
				<duration>60</duration>
				<voice>1</voice>
				<type>eighth</type>
				<accidental>natural</accidental>
			</note>
			<note>
			 	<pitch>
			 		<step>C</step>
			 		<octave>4</octave>
			 	</pitch>
				<duration>60</duration>
				<voice>1</voice>
				<type>eighth</type>
				<accidental>natural</accidental>
			</note>
			<note>
			 	<pitch>
			 		<step>C</step>
			 		<octave>4</octave>
			 	</pitch>
				<duration>60</duration>
				<voice>1</voice>
				<type>eighth</type>
				<accidental>natural</accidental>
			</note>
		</measure>
		<measure number="24">
			<harmony print-frame="no">
				<root>
  				<root-step>C</root-step>
  			</root>
				<kind text="">major</kind>
			</harmony>
			<note>
			 	<pitch>
			 		<step>D</step>
			 		<octave>4</octave>
			 	</pitch>
				<duration>60</duration>
				<voice>1</voice>
				<type>eighth</type>
				<accidental>natural</accidental>
			</note>
			<note>
			 	<pitch>
			 		<step>G</step>
			 		<octave>4</octave>
			 	</pitch>
				<duration>60</duration>
				<voice>1</voice>
				<type>eighth</type>
				<accidental>natural</accidental>
			</note>
			<note>
			 	<pitch>
			 		<step>C</step>
			 		<octave>4</octave>
			 	</pitch>
				<duration>60</duration>
				<voice>1</voice>
				<type>eighth</type>
				<accidental>natural</accidental>
			</note>
			<harmony print-frame="no">
				<root>
  				<root-step>C</root-step>
  			</root>
				<kind text="">major</kind>
			</harmony>
			<note>
			 	<pitch>
			 		<step>G</step>
			 		<octave>4</octave>
			 	</pitch>
				<duration>60</duration>
				<voice>1</voice>
				<type>eighth</type>
				<accidental>natural</accidental>
			</note>
			<note>
			 	<pitch>
			 		<step>G</step>
			 		<octave>4</octave>
			 	</pitch>
				<duration>60</duration>
				<voice>1</voice>
				<type>eighth</type>
				<accidental>natural</accidental>
			</note>
			<note>
			 	<pitch>
			 		<step>A</step>
			 		<octave>3</octave>
			 	</pitch>
				<duration>60</duration>
				<voice>1</voice>
				<type>eighth</type>
				<accidental>natural</accidental>
			</note>
			<harmony print-frame="no">
				<root>
  				<root-step>A</root-step>
  			</root>
				<kind text="m">minor</kind>
			</harmony>
			<note>
			 	<pitch>
			 		<step>G</step>
			 		<octave>4</octave>
			 	</pitch>
				<duration>60</duration>
				<voice>1</voice>
				<type>eighth</type>
				<accidental>natural</accidental>
			</note>
			<note>
			 	<pitch>
			 		<step>G</step>
			 		<octave>4</octave>
			 	</pitch>
				<duration>60</duration>
				<voice>1</voice>
				<type>eighth</type>
				<accidental>natural</accidental>
			</note>
		</measure>
		<measure number="25">
		<print new-system="yes"/>
			<harmony print-frame="no">
				<root>
  				<root-step>F</root-step>
  			</root>
				<kind text="">major</kind>
			</harmony>
			<note>
			 	<pitch>
			 		<step>E</step>
			 		<octave>4</octave>
			 	</pitch>
				<duration>60</duration>
				<voice>1</voice>
				<type>eighth</type>
				<accidental>natural</accidental>
			</note>
			<note>
			 	<rest/>
				<duration>60</duration>
				<voice>1</voice>
				<type>eighth</type>
			</note>
			<note>
			 	<rest/>
				<duration>60</duration>
				<voice>1</voice>
				<type>eighth</type>
			</note>
			<note>
			 	<rest/>
				<duration>60</duration>
				<voice>1</voice>
				<type>eighth</type>
			</note>
			<harmony print-frame="no">
				<root>
  				<root-step>G</root-step>
  			</root>
				<kind text="">major</kind>
			</harmony>
			<note>
			 	<pitch>
			 		<step>A</step>
			 		<octave>3</octave>
			 	</pitch>
				<duration>60</duration>
				<voice>1</voice>
				<type>eighth</type>
				<accidental>natural</accidental>
			</note>
			<note>
			 	<rest/>
				<duration>60</duration>
				<voice>1</voice>
				<type>eighth</type>
			</note>
			<note>
			 	<rest/>
				<duration>60</duration>
				<voice>1</voice>
				<type>eighth</type>
			</note>
			<note>
			 	<rest/>
				<duration>60</duration>
				<voice>1</voice>
				<type>eighth</type>
			</note>
		</measure>
		<measure number="26">
			<harmony print-frame="no">
				<root>
  				<root-step>C</root-step>
  			</root>
				<kind text="">major</kind>
			</harmony>
			<note>
			 	<pitch>
			 		<step>C</step>
			 		<octave>4</octave>
			 	</pitch>
				<duration>60</duration>
				<voice>1</voice>
				<type>eighth</type>
				<accidental>natural</accidental>
			</note>
			<note>
			 	<rest/>
				<duration>60</duration>
				<voice>1</voice>
				<type>eighth</type>
			</note>
			<note>
			 	<rest/>
				<duration>60</duration>
				<voice>1</voice>
				<type>eighth</type>
			</note>
			<note>
			 	<rest/>
				<duration>60</duration>
				<voice>1</voice>
				<type>eighth</type>
			</note>
			<harmony print-frame="no">
				<root>
  				<root-step>A</root-step>
  			</root>
				<kind text="m">minor</kind>
			</harmony>
			<note>
			 	<pitch>
			 		<step>G</step>
			 		<octave>4</octave>
			 	</pitch>
				<duration>60</duration>
				<voice>1</voice>
				<type>eighth</type>
				<accidental>natural</accidental>
			</note>
			<note>
			 	<rest/>
				<duration>60</duration>
				<voice>1</voice>
				<type>eighth</type>
			</note>
			<note>
			 	<rest/>
				<duration>60</duration>
				<voice>1</voice>
				<type>eighth</type>
			</note>
			<note>
			 	<pitch>
			 		<step>D</step>
			 		<octave>4</octave>
			 	</pitch>
				<duration>60</duration>
				<voice>1</voice>
				<type>eighth</type>
				<accidental>natural</accidental>
			</note>
		</measure>
		<measure number="27">
			<harmony print-frame="no">
				<root>
  				<root-step>F</root-step>
  			</root>
				<kind text="">major</kind>
			</harmony>
			<note>
			 	<pitch>
			 		<step>D</step>
			 		<octave>4</octave>
			 	</pitch>
				<duration>60</duration>
				<voice>1</voice>
				<type>eighth</type>
				<accidental>natural</accidental>
			</note>
			<note>
			 	<rest/>
				<duration>60</duration>
				<voice>1</voice>
				<type>eighth</type>
			</note>
			<note>
			 	<pitch>
			 		<step>C</step>
			 		<octave>4</octave>
			 	</pitch>
				<duration>60</duration>
				<voice>1</voice>
				<type>eighth</type>
				<accidental>natural</accidental>
			</note>
			<note>
			 	<rest/>
				<duration>60</duration>
				<voice>1</voice>
				<type>eighth</type>
			</note>
			<harmony print-frame="no">
				<root>
  				<root-step>G</root-step>
  			</root>
				<kind text="">major</kind>
			</harmony>
			<note>
			 	<pitch>
			 		<step>G</step>
			 		<octave>4</octave>
			 	</pitch>
				<duration>60</duration>
				<voice>1</voice>
				<type>eighth</type>
				<accidental>natural</accidental>
			</note>
			<note>
			 	<pitch>
			 		<step>C</step>
			 		<octave>4</octave>
			 	</pitch>
				<duration>60</duration>
				<voice>1</voice>
				<type>eighth</type>
				<accidental>natural</accidental>
			</note>
			<note>
			 	<rest/>
				<duration>60</duration>
				<voice>1</voice>
				<type>eighth</type>
			</note>
			<note>
			 	<rest/>
				<duration>60</duration>
				<voice>1</voice>
				<type>eighth</type>
			</note>
		</measure>
		<measure number="28">
			<harmony print-frame="no">
				<root>
  				<root-step>C</root-step>
  			</root>
				<kind text="">major</kind>
			</harmony>
			<note>
			 	<pitch>
			 		<step>G</step>
			 		<octave>4</octave>
			 	</pitch>
				<duration>60</duration>
				<voice>1</voice>
				<type>eighth</type>
				<accidental>natural</accidental>
			</note>
			<note>
			 	<pitch>
			 		<step>G</step>
			 		<octave>4</octave>
			 	</pitch>
				<duration>60</duration>
				<voice>1</voice>
				<type>eighth</type>
				<accidental>natural</accidental>
			</note>
			<note>
			 	<pitch>
			 		<step>D</step>
			 		<octave>4</octave>
			 	</pitch>
				<duration>60</duration>
				<voice>1</voice>
				<type>eighth</type>
				<accidental>natural</accidental>
			</note>
			<note>
			 	<pitch>
			 		<step>D</step>
			 		<octave>4</octave>
			 	</pitch>
				<duration>60</duration>
				<voice>1</voice>
				<type>eighth</type>
				<accidental>natural</accidental>
			</note>
			<harmony print-frame="no">
				<root>
  				<root-step>D</root-step>
  			</root>
				<kind text="m">minor</kind>
			</harmony>
			<note>
			 	<pitch>
			 		<step>D</step>
			 		<octave>4</octave>
			 	</pitch>
				<duration>60</duration>
				<voice>1</voice>
				<type>eighth</type>
				<accidental>natural</accidental>
			</note>
			<note>
			 	<pitch>
			 		<step>G</step>
			 		<octave>4</octave>
			 	</pitch>
				<duration>60</duration>
				<voice>1</voice>
				<type>eighth</type>
				<accidental>natural</accidental>
			</note>
			<note>
			 	<pitch>
			 		<step>D</step>
			 		<octave>4</octave>
			 	</pitch>
				<duration>60</duration>
				<voice>1</voice>
				<type>eighth</type>
				<accidental>natural</accidental>
			</note>
			<note>
			 	<pitch>
			 		<step>D</step>
			 		<octave>4</octave>
			 	</pitch>
				<duration>60</duration>
				<voice>1</voice>
				<type>eighth</type>
				<accidental>natural</accidental>
			</note>
		</measure>
		<measure number="29">
		<print new-system="yes"/>
			<harmony print-frame="no">
				<root>
  				<root-step>A</root-step>
  			</root>
				<kind text="m">minor</kind>
			</harmony>
			<note>
			 	<pitch>
			 		<step>D</step>
			 		<octave>4</octave>
			 	</pitch>
				<duration>60</duration>
				<voice>1</voice>
				<type>eighth</type>
				<accidental>natural</accidental>
			</note>
			<note>
			 	<pitch>
			 		<step>D</step>
			 		<octave>4</octave>
			 	</pitch>
				<duration>60</duration>
				<voice>1</voice>
				<type>eighth</type>
				<accidental>natural</accidental>
			</note>
			<note>
			 	<pitch>
			 		<step>D</step>
			 		<octave>4</octave>
			 	</pitch>
				<duration>60</duration>
				<voice>1</voice>
				<type>eighth</type>
				<accidental>natural</accidental>
			</note>
			<note>
			 	<pitch>
			 		<step>E</step>
			 		<octave>4</octave>
			 	</pitch>
				<duration>60</duration>
				<voice>1</voice>
				<type>eighth</type>
				<accidental>natural</accidental>
			</note>
			<harmony print-frame="no">
				<root>
  				<root-step>G</root-step>
  			</root>
				<kind text="">major</kind>
			</harmony>
			<note>
			 	<pitch>
			 		<step>C</step>
			 		<octave>4</octave>
			 	</pitch>
				<duration>60</duration>
				<voice>1</voice>
				<type>eighth</type>
				<accidental>natural</accidental>
			</note>
			<note>
			 	<rest/>
				<duration>60</duration>
				<voice>1</voice>
				<type>eighth</type>
			</note>
			<note>
			 	<rest/>
				<duration>60</duration>
				<voice>1</voice>
				<type>eighth</type>
			</note>
			<note>
			 	<rest/>
				<duration>60</duration>
				<voice>1</voice>
				<type>eighth</type>
			</note>
		</measure>
		<measure number="30">
			<harmony print-frame="no">
				<root>
  				<root-step>C</root-step>
  			</root>
				<kind text="">major</kind>
			</harmony>
			<note>
			 	<pitch>
			 		<step>G</step>
			 		<octave>4</octave>
			 	</pitch>
				<duration>60</duration>
				<voice>1</voice>
				<type>eighth</type>
				<accidental>natural</accidental>
			</note>
			<note>
			 	<rest/>
				<duration>60</duration>
				<voice>1</voice>
				<type>eighth</type>
			</note>
			<note>
			 	<rest/>
				<duration>60</duration>
				<voice>1</voice>
				<type>eighth</type>
			</note>
			<note>
			 	<rest/>
				<duration>60</duration>
				<voice>1</voice>
				<type>eighth</type>
			</note>
			<harmony print-frame="no">
				<root>
  				<root-step>A</root-step>
  			</root>
				<kind text="m">minor</kind>
			</harmony>
			<note>
			 	<pitch>
			 		<step>D</step>
			 		<octave>4</octave>
			 	</pitch>
				<duration>60</duration>
				<voice>1</voice>
				<type>eighth</type>
				<accidental>natural</accidental>
			</note>
			<note>
			 	<rest/>
				<duration>60</duration>
				<voice>1</voice>
				<type>eighth</type>
			</note>
			<note>
			 	<rest/>
				<duration>60</duration>
				<voice>1</voice>
				<type>eighth</type>
			</note>
			<note>
			 	<rest/>
				<duration>60</duration>
				<voice>1</voice>
				<type>eighth</type>
			</note>
		</measure>
		<measure number="31">
			<harmony print-frame="no">
				<root>
  				<root-step>F</root-step>
  			</root>
				<kind text="">major</kind>
			</harmony>
			<note>
			 	<pitch>
			 		<step>C</step>
			 		<octave>4</octave>
			 	</pitch>
				<duration>60</duration>
				<voice>1</voice>
				<type>eighth</type>
				<accidental>natural</accidental>
			</note>
			<note>
			 	<rest/>
				<duration>60</duration>
				<voice>1</voice>
				<type>eighth</type>
			</note>
			<note>
			 	<rest/>
				<duration>60</duration>
				<voice>1</voice>
				<type>eighth</type>
			</note>
			<note>
			 	<pitch>
			 		<step>G</step>
			 		<octave>4</octave>
			 	</pitch>
				<duration>60</duration>
				<voice>1</voice>
				<type>eighth</type>
				<accidental>natural</accidental>
			</note>
			<harmony print-frame="no">
				<root>
  				<root-step>G</root-step>
  			</root>
				<kind text="">major</kind>
			</harmony>
			<note>
			 	<pitch>
			 		<step>C</step>
			 		<octave>4</octave>
			 	</pitch>
				<duration>60</duration>
				<voice>1</voice>
				<type>eighth</type>
				<accidental>natural</accidental>
			</note>
			<note>
			 	<rest/>
				<duration>60</duration>
				<voice>1</voice>
				<type>eighth</type>
			</note>
			<note>
			 	<pitch>
			 		<step>D</step>
			 		<octave>4</octave>
			 	</pitch>
				<duration>60</duration>
				<voice>1</voice>
				<type>eighth</type>
				<accidental>natural</accidental>
			</note>
			<note>
			 	<rest/>
				<duration>60</duration>
				<voice>1</voice>
				<type>eighth</type>
			</note>
		</measure>
		<measure number="32">
			<harmony print-frame="no">
				<root>
  				<root-step>C</root-step>
  			</root>
				<kind text="">major</kind>
			</harmony>
			<note>
			 	<pitch>
			 		<step>D</step>
			 		<octave>4</octave>
			 	</pitch>
				<duration>60</duration>
				<voice>1</voice>
				<type>eighth</type>
				<accidental>natural</accidental>
			</note>
			<note>
			 	<pitch>
			 		<step>G</step>
			 		<octave>4</octave>
			 	</pitch>
				<duration>60</duration>
				<voice>1</voice>
				<type>eighth</type>
				<accidental>natural</accidental>
			</note>
			<note>
			 	<rest/>
				<duration>60</duration>
				<voice>1</voice>
				<type>eighth</type>
			</note>
			<note>
			 	<rest/>
				<duration>60</duration>
				<voice>1</voice>
				<type>eighth</type>
			</note>
			<note>
			 	<pitch>
			 		<step>C</step>
			 		<octave>4</octave>
			 	</pitch>
				<duration>60</duration>
				<voice>1</voice>
				<type>eighth</type>
				<accidental>natural</accidental>
			</note>
			<note>
			 	<pitch>
			 		<step>G</step>
			 		<octave>4</octave>
			 	</pitch>
				<duration>60</duration>
				<voice>1</voice>
				<type>eighth</type>
				<accidental>natural</accidental>
			</note>
			<note>
			 	<pitch>
			 		<step>G</step>
			 		<octave>4</octave>
			 	</pitch>
				<duration>60</duration>
				<voice>1</voice>
				<type>eighth</type>
				<accidental>natural</accidental>
			</note>
			<note>
			 	<pitch>
			 		<step>A</step>
			 		<octave>3</octave>
			 	</pitch>
				<duration>60</duration>
				<voice>1</voice>
				<type>eighth</type>
				<accidental>natural</accidental>
			</note>
		</measure>
		<measure number="33">
		<print new-system="yes"/>
			<harmony print-frame="no">
				<root>
  				<root-step>C</root-step>
  			</root>
				<kind text="">major</kind>
			</harmony>
			<note>
			 	<pitch>
			 		<step>D</step>
			 		<octave>4</octave>
			 	</pitch>
				<duration>60</duration>
				<voice>1</voice>
				<type>eighth</type>
				<accidental>natural</accidental>
			</note>
			<note>
			 	<pitch>
			 		<step>A</step>
			 		<octave>3</octave>
			 	</pitch>
				<duration>60</duration>
				<voice>1</voice>
				<type>eighth</type>
				<accidental>natural</accidental>
			</note>
			<note>
			 	<pitch>
			 		<step>A</step>
			 		<octave>3</octave>
			 	</pitch>
				<duration>60</duration>
				<voice>1</voice>
				<type>eighth</type>
				<accidental>natural</accidental>
			</note>
			<note>
			 	<pitch>
			 		<step>A</step>
			 		<octave>3</octave>
			 	</pitch>
				<duration>60</duration>
				<voice>1</voice>
				<type>eighth</type>
				<accidental>natural</accidental>
			</note>
			<note>
			 	<pitch>
			 		<step>E</step>
			 		<octave>4</octave>
			 	</pitch>
				<duration>60</duration>
				<voice>1</voice>
				<type>eighth</type>
				<accidental>natural</accidental>
			</note>
			<note>
			 	<pitch>
			 		<step>E</step>
			 		<octave>4</octave>
			 	</pitch>
				<duration>60</duration>
				<voice>1</voice>
				<type>eighth</type>
				<accidental>natural</accidental>
			</note>
			<note>
			 	<pitch>
			 		<step>G</step>
			 		<octave>4</octave>
			 	</pitch>
				<duration>60</duration>
				<voice>1</voice>
				<type>eighth</type>
				<accidental>natural</accidental>
			</note>
			<note>
			 	<pitch>
			 		<step>A</step>
			 		<octave>3</octave>
			 	</pitch>
				<duration>60</duration>
				<voice>1</voice>
				<type>eighth</type>
				<accidental>natural</accidental>
			</note>
		</measure>
		<measure number="34">
			<harmony print-frame="no">
				<root>
  				<root-step>C</root-step>
  			</root>
				<kind text="">major</kind>
			</harmony>
			<note>
			 	<pitch>
			 		<step>C</step>
			 		<octave>4</octave>
			 	</pitch>
				<duration>60</duration>
				<voice>1</voice>
				<type>eighth</type>
				<accidental>natural</accidental>
			</note>
			<note>
			 	<rest/>
				<duration>60</duration>
				<voice>1</voice>
				<type>eighth</type>
			</note>
			<note>
			 	<rest/>
				<duration>60</duration>
				<voice>1</voice>
				<type>eighth</type>
			</note>
			<note>
			 	<rest/>
				<duration>60</duration>
				<voice>1</voice>
				<type>eighth</type>
			</note>
			<note>
			 	<pitch>
			 		<step>G</step>
			 		<octave>4</octave>
			 	</pitch>
				<duration>60</duration>
				<voice>1</voice>
				<type>eighth</type>
				<accidental>natural</accidental>
			</note>
			<note>
			 	<rest/>
				<duration>60</duration>
				<voice>1</voice>
				<type>eighth</type>
			</note>
			<note>
			 	<rest/>
				<duration>60</duration>
				<voice>1</voice>
				<type>eighth</type>
			</note>
			<note>
			 	<rest/>
				<duration>60</duration>
				<voice>1</voice>
				<type>eighth</type>
			</note>
		</measure>
		<measure number="35">
			<harmony print-frame="no">
				<root>
  				<root-step>C</root-step>
  			</root>
				<kind text="">major</kind>
			</harmony>
			<note>
			 	<pitch>
			 		<step>E</step>
			 		<octave>4</octave>
			 	</pitch>
				<duration>60</duration>
				<voice>1</voice>
				<type>eighth</type>
				<accidental>natural</accidental>
			</note>
			<note>
			 	<rest/>
				<duration>60</duration>
				<voice>1</voice>
				<type>eighth</type>
			</note>
			<note>
			 	<rest/>
				<duration>60</duration>
				<voice>1</voice>
				<type>eighth</type>
			</note>
			<note>
			 	<rest/>
				<duration>60</duration>
				<voice>1</voice>
				<type>eighth</type>
			</note>
			<note>
			 	<pitch>
			 		<step>G</step>
			 		<octave>4</octave>
			 	</pitch>
				<duration>60</duration>
				<voice>1</voice>
				<type>eighth</type>
				<accidental>natural</accidental>
			</note>
			<note>
			 	<rest/>
				<duration>60</duration>
				<voice>1</voice>
				<type>eighth</type>
			</note>
			<note>
			 	<rest/>
				<duration>60</duration>
				<voice>1</voice>
				<type>eighth</type>
			</note>
			<note>
			 	<pitch>
			 		<step>D</step>
			 		<octave>4</octave>
			 	</pitch>
				<duration>60</duration>
				<voice>1</voice>
				<type>eighth</type>
				<accidental>natural</accidental>
			</note>
		</measure>
		<measure number="36">
			<harmony print-frame="no">
				<root>
  				<root-step>C</root-step>
  			</root>
				<kind text="">major</kind>
			</harmony>
			<note>
			 	<pitch>
			 		<step>D</step>
			 		<octave>4</octave>
			 	</pitch>
				<duration>60</duration>
				<voice>1</voice>
				<type>eighth</type>
				<accidental>natural</accidental>
			</note>
			<note>
			 	<rest/>
				<duration>60</duration>
				<voice>1</voice>
				<type>eighth</type>
			</note>
			<note>
			 	<pitch>
			 		<step>E</step>
			 		<octave>4</octave>
			 	</pitch>
				<duration>60</duration>
				<voice>1</voice>
				<type>eighth</type>
				<accidental>natural</accidental>
			</note>
			<note>
			 	<rest/>
				<duration>60</duration>
				<voice>1</voice>
				<type>eighth</type>
			</note>
			<harmony print-frame="no">
				<root>
  				<root-step>A</root-step>
  			</root>
				<kind text="m">minor</kind>
			</harmony>
			<note>
			 	<pitch>
			 		<step>A</step>
			 		<octave>3</octave>
			 	</pitch>
				<duration>60</duration>
				<voice>1</voice>
				<type>eighth</type>
				<accidental>natural</accidental>
			</note>
			<note>
			 	<pitch>
			 		<step>G</step>
			 		<octave>4</octave>
			 	</pitch>
				<duration>60</duration>
				<voice>1</voice>
				<type>eighth</type>
				<accidental>natural</accidental>
			</note>
			<note>
			 	<rest/>
				<duration>60</duration>
				<voice>1</voice>
				<type>eighth</type>
			</note>
			<note>
			 	<rest/>
				<duration>60</duration>
				<voice>1</voice>
				<type>eighth</type>
			</note>
		</measure>
		<measure number="37">
		<print new-system="yes"/>
			<harmony print-frame="no">
				<root>
  				<root-step>F</root-step>
  			</root>
				<kind text="">major</kind>
			</harmony>
			<note>
			 	<pitch>
			 		<step>A</step>
			 		<octave>3</octave>
			 	</pitch>
				<duration>60</duration>
				<voice>1</voice>
				<type>eighth</type>
				<accidental>natural</accidental>
			</note>
			<note>
			 	<pitch>
			 		<step>C</step>
			 		<octave>4</octave>
			 	</pitch>
				<duration>60</duration>
				<voice>1</voice>
				<type>eighth</type>
				<accidental>natural</accidental>
			</note>
			<note>
			 	<pitch>
			 		<step>C</step>
			 		<octave>4</octave>
			 	</pitch>
				<duration>60</duration>
				<voice>1</voice>
				<type>eighth</type>
				<accidental>natural</accidental>
			</note>
			<note>
			 	<pitch>
			 		<step>C</step>
			 		<octave>4</octave>
			 	</pitch>
				<duration>60</duration>
				<voice>1</voice>
				<type>eighth</type>
				<accidental>natural</accidental>
			</note>
			<harmony print-frame="no">
				<root>
  				<root-step>G</root-step>
  			</root>
				<kind text="">major</kind>
			</harmony>
			<note>
			 	<pitch>
			 		<step>D</step>
			 		<octave>4</octave>
			 	</pitch>
				<duration>60</duration>
				<voice>1</voice>
				<type>eighth</type>
				<accidental>natural</accidental>
			</note>
			<note>
			 	<pitch>
			 		<step>G</step>
			 		<octave>4</octave>
			 	</pitch>
				<duration>60</duration>
				<voice>1</voice>
				<type>eighth</type>
				<accidental>natural</accidental>
			</note>
			<note>
			 	<pitch>
			 		<step>C</step>
			 		<octave>4</octave>
			 	</pitch>
				<duration>60</duration>
				<voice>1</voice>
				<type>eighth</type>
				<accidental>natural</accidental>
			</note>
			<note>
			 	<pitch>
			 		<step>G</step>
			 		<octave>4</octave>
			 	</pitch>
				<duration>60</duration>
				<voice>1</voice>
				<type>eighth</type>
				<accidental>natural</accidental>
			</note>
		</measure>
		<measure number="38">
			<harmony print-frame="no">
				<root>
  				<root-step>C</root-step>
  			</root>
				<kind text="">major</kind>
			</harmony>
			<note>
			 	<pitch>
			 		<step>G</step>
			 		<octave>4</octave>
			 	</pitch>
				<duration>60</duration>
				<voice>1</voice>
				<type>eighth</type>
				<accidental>natural</accidental>
			</note>
			<note>
			 	<pitch>
			 		<step>A</step>
			 		<octave>3</octave>
			 	</pitch>
				<duration>60</duration>
				<voice>1</voice>
				<type>eighth</type>
				<accidental>natural</accidental>
			</note>
			<note>
			 	<pitch>
			 		<step>G</step>
			 		<octave>4</octave>
			 	</pitch>
				<duration>60</duration>
				<voice>1</voice>
				<type>eighth</type>
				<accidental>natural</accidental>
			</note>
			<note>
			 	<pitch>
			 		<step>G</step>
			 		<octave>4</octave>
			 	</pitch>
				<duration>60</duration>
				<voice>1</voice>
				<type>eighth</type>
				<accidental>natural</accidental>
			</note>
			<harmony print-frame="no">
				<root>
  				<root-step>A</root-step>
  			</root>
				<kind text="m">minor</kind>
			</harmony>
			<note>
			 	<pitch>
			 		<step>E</step>
			 		<octave>4</octave>
			 	</pitch>
				<duration>60</duration>
				<voice>1</voice>
				<type>eighth</type>
				<accidental>natural</accidental>
			</note>
			<note>
			 	<rest/>
				<duration>60</duration>
				<voice>1</voice>
				<type>eighth</type>
			</note>
			<note>
			 	<rest/>
				<duration>60</duration>
				<voice>1</voice>
				<type>eighth</type>
			</note>
			<note>
			 	<rest/>
				<duration>60</duration>
				<voice>1</voice>
				<type>eighth</type>
			</note>
		</measure>
		<measure number="39">
			<harmony print-frame="no">
				<root>
  				<root-step>F</root-step>
  			</root>
				<kind text="">major</kind>
			</harmony>
			<note>
			 	<pitch>
			 		<step>A</step>
			 		<octave>3</octave>
			 	</pitch>
				<duration>60</duration>
				<voice>1</voice>
				<type>eighth</type>
				<accidental>natural</accidental>
			</note>
			<note>
			 	<rest/>
				<duration>60</duration>
				<voice>1</voice>
				<type>eighth</type>
			</note>
			<note>
			 	<rest/>
				<duration>60</duration>
				<voice>1</voice>
				<type>eighth</type>
			</note>
			<note>
			 	<rest/>
				<duration>60</duration>
				<voice>1</voice>
				<type>eighth</type>
			</note>
			<harmony print-frame="no">
				<root>
  				<root-step>G</root-step>
  			</root>
				<kind text="">major</kind>
			</harmony>
			<note>
			 	<pitch>
			 		<step>C</step>
			 		<octave>4</octave>
			 	</pitch>
				<duration>60</duration>
				<voice>1</voice>
				<type>eighth</type>
				<accidental>natural</accidental>
			</note>
			<note>
			 	<rest/>
				<duration>60</duration>
				<voice>1</voice>
				<type>eighth</type>
			</note>
			<note>
			 	<rest/>
				<duration>60</duration>
				<voice>1</voice>
				<type>eighth</type>
			</note>
			<note>
			 	<rest/>
				<duration>60</duration>
				<voice>1</voice>
				<type>eighth</type>
			</note>
		</measure>
		<measure number="40">
			<harmony print-frame="no">
				<root>
  				<root-step>C</root-step>
  			</root>
				<kind text="">major</kind>
			</harmony>
			<note>
			 	<pitch>
			 		<step>G</step>
			 		<octave>4</octave>
			 	</pitch>
				<duration>60</duration>
				<voice>1</voice>
				<type>eighth</type>
				<accidental>natural</accidental>
			</note>
			<note>
			 	<rest/>
				<duration>60</duration>
				<voice>1</voice>
				<type>eighth</type>
			</note>
			<note>
			 	<rest/>
				<duration>60</duration>
				<voice>1</voice>
				<type>eighth</type>
			</note>
			<note>
			 	<pitch>
			 		<step>D</step>
			 		<octave>4</octave>
			 	</pitch>
				<duration>60</duration>
				<voice>1</voice>
				<type>eighth</type>
				<accidental>natural</accidental>
			</note>
			<harmony print-frame="no">
				<root>
  				<root-step>D</root-step>
  			</root>
				<kind text="m">minor</kind>
			</harmony>
			<note>
			 	<pitch>
			 		<step>D</step>
			 		<octave>4</octave>
			 	</pitch>
				<duration>60</duration>
				<voice>1</voice>
				<type>eighth</type>
				<accidental>natural</accidental>
			</note>
			<note>
			 	<rest/>
				<duration>60</duration>
				<voice>1</voice>
				<type>eighth</type>
			</note>
			<note>
			 	<pitch>
			 		<step>C</step>
			 		<octave>4</octave>
			 	</pitch>
				<duration>60</duration>
				<voice>1</voice>
				<type>eighth</type>
				<accidental>natural</accidental>
			</note>
			<note>
			 	<rest/>
				<duration>60</duration>
				<voice>1</voice>
				<type>eighth</type>
			</note>
		</measure>
		<measure number="41">
		<print new-system="yes"/>
			<harmony print-frame="no">
				<root>
  				<root-step>A</root-step>
  			</root>
				<kind text="m">minor</kind>
			</harmony>
			<note>
			 	<pitch>
			 		<step>G</step>
			 		<octave>4</octave>
			 	</pitch>
				<duration>60</duration>
				<voice>1</voice>
				<type>eighth</type>
				<accidental>natural</accidental>
			</note>
			<note>
			 	<pitch>
			 		<step>C</step>
			 		<octave>4</octave>
			 	</pitch>
				<duration>60</duration>
				<voice>1</voice>
				<type>eighth</type>
				<accidental>natural</accidental>
			</note>
			<note>
			 	<rest/>
				<duration>60</duration>
				<voice>1</voice>
				<type>eighth</type>
			</note>
			<note>
			 	<rest/>
				<duration>60</duration>
				<voice>1</voice>
				<type>eighth</type>
			</note>
			<harmony print-frame="no">
				<root>
  				<root-step>G</root-step>
  			</root>
				<kind text="">major</kind>
			</harmony>
			<note>
			 	<pitch>
			 		<step>G</step>
			 		<octave>4</octave>
			 	</pitch>
				<duration>60</duration>
				<voice>1</voice>
				<type>eighth</type>
				<accidental>natural</accidental>
			</note>
			<note>
			 	<pitch>
			 		<step>G</step>
			 		<octave>4</octave>
			 	</pitch>
				<duration>60</duration>
				<voice>1</voice>
				<type>eighth</type>
				<accidental>natural</accidental>
			</note>
			<note>
			 	<pitch>
			 		<step>D</step>
			 		<octave>4</octave>
			 	</pitch>
				<duration>60</duration>
				<voice>1</voice>
				<type>eighth</type>
				<accidental>natural</accidental>
			</note>
			<note>
			 	<pitch>
			 		<step>D</step>
			 		<octave>4</octave>
			 	</pitch>
				<duration>60</duration>
				<voice>1</voice>
				<type>eighth</type>
				<accidental>natural</accidental>
			</note>
		</measure>
		<measure number="42">
			<harmony print-frame="no">
				<root>
  				<root-step>C</root-step>
  			</root>
				<kind text="">major</kind>
			</harmony>
			<note>
			 	<pitch>
			 		<step>D</step>
			 		<octave>4</octave>
			 	</pitch>
				<duration>60</duration>
				<voice>1</voice>
				<type>eighth</type>
				<accidental>natural</accidental>
			</note>
			<note>
			 	<pitch>
			 		<step>G</step>
			 		<octave>4</octave>
			 	</pitch>
				<duration>60</duration>
				<voice>1</voice>
				<type>eighth</type>
				<accidental>natural</accidental>
			</note>
			<note>
			 	<pitch>
			 		<step>D</step>
			 		<octave>4</octave>
			 	</pitch>
				<duration>60</duration>
				<voice>1</voice>
				<type>eighth</type>
				<accidental>natural</accidental>
			</note>
			<note>
			 	<pitch>
			 		<step>D</step>
			 		<octave>4</octave>
			 	</pitch>
				<duration>60</duration>
				<voice>1</voice>
				<type>eighth</type>
				<accidental>natural</accidental>
			</note>
			<harmony print-frame="no">
				<root>
  				<root-step>A</root-step>
  			</root>
				<kind text="m">minor</kind>
			</harmony>
			<note>
			 	<pitch>
			 		<step>D</step>
			 		<octave>4</octave>
			 	</pitch>
				<duration>60</duration>
				<voice>1</voice>
				<type>eighth</type>
				<accidental>natural</accidental>
			</note>
			<note>
			 	<pitch>
			 		<step>D</step>
			 		<octave>4</octave>
			 	</pitch>
				<duration>60</duration>
				<voice>1</voice>
				<type>eighth</type>
				<accidental>natural</accidental>
			</note>
			<note>
			 	<pitch>
			 		<step>D</step>
			 		<octave>4</octave>
			 	</pitch>
				<duration>60</duration>
				<voice>1</voice>
				<type>eighth</type>
				<accidental>natural</accidental>
			</note>
			<note>
			 	<pitch>
			 		<step>E</step>
			 		<octave>4</octave>
			 	</pitch>
				<duration>60</duration>
				<voice>1</voice>
				<type>eighth</type>
				<accidental>natural</accidental>
			</note>
		</measure>
		<measure number="43">
			<harmony print-frame="no">
				<root>
  				<root-step>F</root-step>
  			</root>
				<kind text="">major</kind>
			</harmony>
			<note>
			 	<pitch>
			 		<step>C</step>
			 		<octave>4</octave>
			 	</pitch>
				<duration>60</duration>
				<voice>1</voice>
				<type>eighth</type>
				<accidental>natural</accidental>
			</note>
			<note>
			 	<rest/>
				<duration>60</duration>
				<voice>1</voice>
				<type>eighth</type>
			</note>
			<note>
			 	<rest/>
				<duration>60</duration>
				<voice>1</voice>
				<type>eighth</type>
			</note>
			<note>
			 	<rest/>
				<duration>60</duration>
				<voice>1</voice>
				<type>eighth</type>
			</note>
			<harmony print-frame="no">
				<root>
  				<root-step>G</root-step>
  			</root>
				<kind text="">major</kind>
			</harmony>
			<note>
			 	<pitch>
			 		<step>G</step>
			 		<octave>4</octave>
			 	</pitch>
				<duration>60</duration>
				<voice>1</voice>
				<type>eighth</type>
				<accidental>natural</accidental>
			</note>
			<note>
			 	<rest/>
				<duration>60</duration>
				<voice>1</voice>
				<type>eighth</type>
			</note>
			<note>
			 	<rest/>
				<duration>60</duration>
				<voice>1</voice>
				<type>eighth</type>
			</note>
			<note>
			 	<rest/>
				<duration>60</duration>
				<voice>1</voice>
				<type>eighth</type>
			</note>
		</measure>
		<measure number="44">
			<harmony print-frame="no">
				<root>
  				<root-step>C</root-step>
  			</root>
				<kind text="">major</kind>
			</harmony>
			<note>
			 	<pitch>
			 		<step>D</step>
			 		<octave>4</octave>
			 	</pitch>
				<duration>60</duration>
				<voice>1</voice>
				<type>eighth</type>
				<accidental>natural</accidental>
			</note>
			<note>
			 	<rest/>
				<duration>60</duration>
				<voice>1</voice>
				<type>eighth</type>
			</note>
			<note>
			 	<rest/>
				<duration>60</duration>
				<voice>1</voice>
				<type>eighth</type>
			</note>
			<note>
			 	<rest/>
				<duration>60</duration>
				<voice>1</voice>
				<type>eighth</type>
			</note>
			<note>
			 	<pitch>
			 		<step>C</step>
			 		<octave>4</octave>
			 	</pitch>
				<duration>60</duration>
				<voice>1</voice>
				<type>eighth</type>
				<accidental>natural</accidental>
			</note>
			<note>
			 	<rest/>
				<duration>60</duration>
				<voice>1</voice>
				<type>eighth</type>
			</note>
			<note>
			 	<rest/>
				<duration>60</duration>
				<voice>1</voice>
				<type>eighth</type>
			</note>
			<note>
			 	<pitch>
			 		<step>G</step>
			 		<octave>4</octave>
			 	</pitch>
				<duration>60</duration>
				<voice>1</voice>
				<type>eighth</type>
				<accidental>natural</accidental>
			</note>
		</measure>
		<measure number="45">
		<print new-system="yes"/>
			<harmony print-frame="no">
				<root>
  				<root-step>C</root-step>
  			</root>
				<kind text="">major</kind>
			</harmony>
			<note>
			 	<pitch>
			 		<step>C</step>
			 		<octave>4</octave>
			 	</pitch>
				<duration>60</duration>
				<voice>1</voice>
				<type>eighth</type>
				<accidental>natural</accidental>
			</note>
			<note>
			 	<rest/>
				<duration>60</duration>
				<voice>1</voice>
				<type>eighth</type>
			</note>
			<note>
			 	<pitch>
			 		<step>D</step>
			 		<octave>4</octave>
			 	</pitch>
				<duration>60</duration>
				<voice>1</voice>
				<type>eighth</type>
				<accidental>natural</accidental>
			</note>
			<note>
			 	<rest/>
				<duration>60</duration>
				<voice>1</voice>
				<type>eighth</type>
			</note>
			<note>
			 	<pitch>
			 		<step>D</step>
			 		<octave>4</octave>
			 	</pitch>
				<duration>60</duration>
				<voice>1</voice>
				<type>eighth</type>
				<accidental>natural</accidental>
			</note>
			<note>
			 	<pitch>
			 		<step>G</step>
			 		<octave>4</octave>
			 	</pitch>
				<duration>60</duration>
				<voice>1</voice>
				<type>eighth</type>
				<accidental>natural</accidental>
			</note>
			<note>
			 	<rest/>
				<duration>60</duration>
				<voice>1</voice>
				<type>eighth</type>
			</note>
			<note>
			 	<rest/>
				<duration>60</duration>
				<voice>1</voice>
				<type>eighth</type>
			</note>
		</measure>
		<measure number="46">
			<harmony print-frame="no">
				<root>
  				<root-step>C</root-step>
  			</root>
				<kind text="">major</kind>
			</harmony>
			<note>
			 	<pitch>
			 		<step>C</step>
			 		<octave>4</octave>
			 	</pitch>
				<duration>60</duration>
				<voice>1</voice>
				<type>eighth</type>
				<accidental>natural</accidental>
			</note>
			<note>
			 	<pitch>
			 		<step>G</step>
			 		<octave>4</octave>
			 	</pitch>
				<duration>60</duration>
				<voice>1</voice>
				<type>eighth</type>
				<accidental>natural</accidental>
			</note>
			<note>
			 	<pitch>
			 		<step>G</step>
			 		<octave>4</octave>
			 	</pitch>
				<duration>60</duration>
				<voice>1</voice>
				<type>eighth</type>
				<accidental>natural</accidental>
			</note>
			<note>
			 	<pitch>
			 		<step>A</step>
			 		<octave>3</octave>
			 	</pitch>
				<duration>60</duration>
				<voice>1</voice>
				<type>eighth</type>
				<accidental>natural</accidental>
			</note>
			<note>
			 	<pitch>
			 		<step>D</step>
			 		<octave>4</octave>
			 	</pitch>
				<duration>60</duration>
				<voice>1</voice>
				<type>eighth</type>
				<accidental>natural</accidental>
			</note>
			<note>
			 	<pitch>
			 		<step>A</step>
			 		<octave>3</octave>
			 	</pitch>
				<duration>60</duration>
				<voice>1</voice>
				<type>eighth</type>
				<accidental>natural</accidental>
			</note>
			<note>
			 	<pitch>
			 		<step>A</step>
			 		<octave>3</octave>
			 	</pitch>
				<duration>60</duration>
				<voice>1</voice>
				<type>eighth</type>
				<accidental>natural</accidental>
			</note>
			<note>
			 	<pitch>
			 		<step>A</step>
			 		<octave>3</octave>
			 	</pitch>
				<duration>60</duration>
				<voice>1</voice>
				<type>eighth</type>
				<accidental>natural</accidental>
			</note>
		</measure>
		<measure number="47">
			<harmony print-frame="no">
				<root>
  				<root-step>C</root-step>
  			</root>
				<kind text="">major</kind>
			</harmony>
			<note>
			 	<pitch>
			 		<step>E</step>
			 		<octave>4</octave>
			 	</pitch>
				<duration>60</duration>
				<voice>1</voice>
				<type>eighth</type>
				<accidental>natural</accidental>
			</note>
			<note>
			 	<pitch>
			 		<step>E</step>
			 		<octave>4</octave>
			 	</pitch>
				<duration>60</duration>
				<voice>1</voice>
				<type>eighth</type>
				<accidental>natural</accidental>
			</note>
			<note>
			 	<pitch>
			 		<step>G</step>
			 		<octave>4</octave>
			 	</pitch>
				<duration>60</duration>
				<voice>1</voice>
				<type>eighth</type>
				<accidental>natural</accidental>
			</note>
			<note>
			 	<pitch>
			 		<step>A</step>
			 		<octave>3</octave>
			 	</pitch>
				<duration>60</duration>
				<voice>1</voice>
				<type>eighth</type>
				<accidental>natural</accidental>
			</note>
			<note>
			 	<pitch>
			 		<step>C</step>
			 		<octave>4</octave>
			 	</pitch>
				<duration>60</duration>
				<voice>1</voice>
				<type>eighth</type>
				<accidental>natural</accidental>
			</note>
			<note>
			 	<rest/>
				<duration>60</duration>
				<voice>1</voice>
				<type>eighth</type>
			</note>
			<note>
			 	<rest/>
				<duration>60</duration>
				<voice>1</voice>
				<type>eighth</type>
			</note>
			<note>
			 	<rest/>
				<duration>60</duration>
				<voice>1</voice>
				<type>eighth</type>
			</note>
		</measure>
		<measure number="48">
			<harmony print-frame="no">
				<root>
  				<root-step>C</root-step>
  			</root>
				<kind text="">major</kind>
			</harmony>
			<note>
			 	<pitch>
			 		<step>G</step>
			 		<octave>4</octave>
			 	</pitch>
				<duration>60</duration>
				<voice>1</voice>
				<type>eighth</type>
				<accidental>natural</accidental>
			</note>
			<note>
			 	<rest/>
				<duration>60</duration>
				<voice>1</voice>
				<type>eighth</type>
			</note>
			<note>
			 	<rest/>
				<duration>60</duration>
				<voice>1</voice>
				<type>eighth</type>
			</note>
			<note>
			 	<rest/>
				<duration>60</duration>
				<voice>1</voice>
				<type>eighth</type>
			</note>
			<harmony print-frame="no">
				<root>
  				<root-step>A</root-step>
  			</root>
				<kind text="m">minor</kind>
			</harmony>
			<note>
			 	<pitch>
			 		<step>E</step>
			 		<octave>4</octave>
			 	</pitch>
				<duration>60</duration>
				<voice>1</voice>
				<type>eighth</type>
				<accidental>natural</accidental>
			</note>
			<note>
			 	<rest/>
				<duration>60</duration>
				<voice>1</voice>
				<type>eighth</type>
			</note>
			<note>
			 	<rest/>
				<duration>60</duration>
				<voice>1</voice>
				<type>eighth</type>
			</note>
			<note>
			 	<rest/>
				<duration>60</duration>
				<voice>1</voice>
				<type>eighth</type>
			</note>
		</measure>
		<measure number="49">
		<print new-system="yes"/>
			<harmony print-frame="no">
				<root>
  				<root-step>F</root-step>
  			</root>
				<kind text="">major</kind>
			</harmony>
			<note>
			 	<pitch>
			 		<step>G</step>
			 		<octave>4</octave>
			 	</pitch>
				<duration>60</duration>
				<voice>1</voice>
				<type>eighth</type>
				<accidental>natural</accidental>
			</note>
			<note>
			 	<rest/>
				<duration>60</duration>
				<voice>1</voice>
				<type>eighth</type>
			</note>
			<note>
			 	<rest/>
				<duration>60</duration>
				<voice>1</voice>
				<type>eighth</type>
			</note>
			<note>
			 	<pitch>
			 		<step>D</step>
			 		<octave>4</octave>
			 	</pitch>
				<duration>60</duration>
				<voice>1</voice>
				<type>eighth</type>
				<accidental>natural</accidental>
			</note>
			<harmony print-frame="no">
				<root>
  				<root-step>G</root-step>
  			</root>
				<kind text="">major</kind>
			</harmony>
			<note>
			 	<pitch>
			 		<step>D</step>
			 		<octave>4</octave>
			 	</pitch>
				<duration>60</duration>
				<voice>1</voice>
				<type>eighth</type>
				<accidental>natural</accidental>
			</note>
			<note>
			 	<rest/>
				<duration>60</duration>
				<voice>1</voice>
				<type>eighth</type>
			</note>
			<note>
			 	<pitch>
			 		<step>E</step>
			 		<octave>4</octave>
			 	</pitch>
				<duration>60</duration>
				<voice>1</voice>
				<type>eighth</type>
				<accidental>natural</accidental>
			</note>
			<note>
			 	<rest/>
				<duration>60</duration>
				<voice>1</voice>
				<type>eighth</type>
			</note>
		</measure>
		<measure number="50">
			<harmony print-frame="no">
				<root>
  				<root-step>C</root-step>
  			</root>
				<kind text="">major</kind>
			</harmony>
			<note>
			 	<pitch>
			 		<step>A</step>
			 		<octave>3</octave>
			 	</pitch>
				<duration>60</duration>
				<voice>1</voice>
				<type>eighth</type>
				<accidental>natural</accidental>
			</note>
			<note>
			 	<pitch>
			 		<step>G</step>
			 		<octave>4</octave>
			 	</pitch>
				<duration>60</duration>
				<voice>1</voice>
				<type>eighth</type>
				<accidental>natural</accidental>
			</note>
			<note>
			 	<rest/>
				<duration>60</duration>
				<voice>1</voice>
				<type>eighth</type>
			</note>
			<note>
			 	<rest/>
				<duration>60</duration>
				<voice>1</voice>
				<type>eighth</type>
			</note>
			<harmony print-frame="no">
				<root>
  				<root-step>A</root-step>
  			</root>
				<kind text="m">minor</kind>
			</harmony>
			<note>
			 	<pitch>
			 		<step>A</step>
			 		<octave>3</octave>
			 	</pitch>
				<duration>60</duration>
				<voice>1</voice>
				<type>eighth</type>
				<accidental>natural</accidental>
			</note>
			<note>
			 	<pitch>
			 		<step>C</step>
			 		<octave>4</octave>
			 	</pitch>
				<duration>60</duration>
				<voice>1</voice>
				<type>eighth</type>
				<accidental>natural</accidental>
			</note>
			<note>
			 	<pitch>
			 		<step>C</step>
			 		<octave>4</octave>
			 	</pitch>
				<duration>60</duration>
				<voice>1</voice>
				<type>eighth</type>
				<accidental>natural</accidental>
			</note>
			<note>
			 	<pitch>
			 		<step>C</step>
			 		<octave>4</octave>
			 	</pitch>
				<duration>60</duration>
				<voice>1</voice>
				<type>eighth</type>
				<accidental>natural</accidental>
			</note>
		</measure>
		<measure number="51">
			<harmony print-frame="no">
				<root>
  				<root-step>F</root-step>
  			</root>
				<kind text="">major</kind>
			</harmony>
			<note>
			 	<pitch>
			 		<step>D</step>
			 		<octave>4</octave>
			 	</pitch>
				<duration>60</duration>
				<voice>1</voice>
				<type>eighth</type>
				<accidental>natural</accidental>
			</note>
			<note>
			 	<pitch>
			 		<step>G</step>
			 		<octave>4</octave>
			 	</pitch>
				<duration>60</duration>
				<voice>1</voice>
				<type>eighth</type>
				<accidental>natural</accidental>
			</note>
			<note>
			 	<pitch>
			 		<step>C</step>
			 		<octave>4</octave>
			 	</pitch>
				<duration>60</duration>
				<voice>1</voice>
				<type>eighth</type>
				<accidental>natural</accidental>
			</note>
			<note>
			 	<pitch>
			 		<step>G</step>
			 		<octave>4</octave>
			 	</pitch>
				<duration>60</duration>
				<voice>1</voice>
				<type>eighth</type>
				<accidental>natural</accidental>
			</note>
			<harmony print-frame="no">
				<root>
  				<root-step>G</root-step>
  			</root>
				<kind text="">major</kind>
			</harmony>
			<note>
			 	<pitch>
			 		<step>G</step>
			 		<octave>4</octave>
			 	</pitch>
				<duration>60</duration>
				<voice>1</voice>
				<type>eighth</type>
				<accidental>natural</accidental>
			</note>
			<note>
			 	<pitch>
			 		<step>A</step>
			 		<octave>3</octave>
			 	</pitch>
				<duration>60</duration>
				<voice>1</voice>
				<type>eighth</type>
				<accidental>natural</accidental>
			</note>
			<note>
			 	<pitch>
			 		<step>G</step>
			 		<octave>4</octave>
			 	</pitch>
				<duration>60</duration>
				<voice>1</voice>
				<type>eighth</type>
				<accidental>natural</accidental>
			</note>
			<note>
			 	<pitch>
			 		<step>G</step>
			 		<octave>4</octave>
			 	</pitch>
				<duration>60</duration>
				<voice>1</voice>
				<type>eighth</type>
				<accidental>natural</accidental>
			</note>
		</measure>
		<measure number="52">
			<harmony print-frame="no">
				<root>
  				<root-step>C</root-step>
  			</root>
				<kind text="">major</kind>
			</harmony>
			<note>
			 	<pitch>
			 		<step>E</step>
			 		<octave>4</octave>
			 	</pitch>
				<duration>60</duration>
				<voice>1</voice>
				<type>eighth</type>
				<accidental>natural</accidental>
			</note>
			<note>
			 	<rest/>
				<duration>60</duration>
				<voice>1</voice>
				<type>eighth</type>
			</note>
			<note>
			 	<rest/>
				<duration>60</duration>
				<voice>1</voice>
				<type>eighth</type>
			</note>
			<note>
			 	<rest/>
				<duration>60</duration>
				<voice>1</voice>
				<type>eighth</type>
			</note>
			<harmony print-frame="no">
				<root>
  				<root-step>D</root-step>
  			</root>
				<kind text="m">minor</kind>
			</harmony>
			<note>
			 	<pitch>
			 		<step>A</step>
			 		<octave>3</octave>
			 	</pitch>
				<duration>60</duration>
				<voice>1</voice>
				<type>eighth</type>
				<accidental>natural</accidental>
			</note>
			<note>
			 	<rest/>
				<duration>60</duration>
				<voice>1</voice>
				<type>eighth</type>
			</note>
			<note>
			 	<rest/>
				<duration>60</duration>
				<voice>1</voice>
				<type>eighth</type>
			</note>
			<note>
			 	<rest/>
				<duration>60</duration>
				<voice>1</voice>
				<type>eighth</type>
			</note>
		</measure>
		<measure number="53">
		<print new-system="yes"/>
			<harmony print-frame="no">
				<root>
  				<root-step>A</root-step>
  			</root>
				<kind text="m">minor</kind>
			</harmony>
			<note>
			 	<pitch>
			 		<step>C</step>
			 		<octave>4</octave>
			 	</pitch>
				<duration>60</duration>
				<voice>1</voice>
				<type>eighth</type>
				<accidental>natural</accidental>
			</note>
			<note>
			 	<rest/>
				<duration>60</duration>
				<voice>1</voice>
				<type>eighth</type>
			</note>
			<note>
			 	<rest/>
				<duration>60</duration>
				<voice>1</voice>
				<type>eighth</type>
			</note>
			<note>
			 	<rest/>
				<duration>60</duration>
				<voice>1</voice>
				<type>eighth</type>
			</note>
			<harmony print-frame="no">
				<root>
  				<root-step>G</root-step>
  			</root>
				<kind text="">major</kind>
			</harmony>
			<note>
			 	<pitch>
			 		<step>G</step>
			 		<octave>4</octave>
			 	</pitch>
				<duration>60</duration>
				<voice>1</voice>
				<type>eighth</type>
				<accidental>natural</accidental>
			</note>
			<note>
			 	<rest/>
				<duration>60</duration>
				<voice>1</voice>
				<type>eighth</type>
			</note>
			<note>
			 	<rest/>
				<duration>60</duration>
				<voice>1</voice>
				<type>eighth</type>
			</note>
			<note>
			 	<pitch>
			 		<step>D</step>
			 		<octave>4</octave>
			 	</pitch>
				<duration>60</duration>
				<voice>1</voice>
				<type>eighth</type>
				<accidental>natural</accidental>
			</note>
		</measure>
		<measure number="54">
			<harmony print-frame="no">
				<root>
  				<root-step>C</root-step>
  			</root>
				<kind text="">major</kind>
			</harmony>
			<note>
			 	<pitch>
			 		<step>D</step>
			 		<octave>4</octave>
			 	</pitch>
				<duration>60</duration>
				<voice>1</voice>
				<type>eighth</type>
				<accidental>natural</accidental>
			</note>
			<note>
			 	<rest/>
				<duration>60</duration>
				<voice>1</voice>
				<type>eighth</type>
			</note>
			<note>
			 	<pitch>
			 		<step>C</step>
			 		<octave>4</octave>
			 	</pitch>
				<duration>60</duration>
				<voice>1</voice>
				<type>eighth</type>
				<accidental>natural</accidental>
			</note>
			<note>
			 	<rest/>
				<duration>60</duration>
				<voice>1</voice>
				<type>eighth</type>
			</note>
			<harmony print-frame="no">
				<root>
  				<root-step>A</root-step>
  			</root>
				<kind text="m">minor</kind>
			</harmony>
			<note>
			 	<pitch>
			 		<step>G</step>
			 		<octave>4</octave>
			 	</pitch>
				<duration>60</duration>
				<voice>1</voice>
				<type>eighth</type>
				<accidental>natural</accidental>
			</note>
			<note>
			 	<pitch>
			 		<step>C</step>
			 		<octave>4</octave>
			 	</pitch>
				<duration>60</duration>
				<voice>1</voice>
				<type>eighth</type>
				<accidental>natural</accidental>
			</note>
			<note>
			 	<rest/>
				<duration>60</duration>
				<voice>1</voice>
				<type>eighth</type>
			</note>
			<note>
			 	<rest/>
				<duration>60</duration>
				<voice>1</voice>
				<type>eighth</type>
				<notations>
				</notations>
			</note>
		</measure>
		<measure number="55">
			<harmony print-frame="no">
				<root>
  				<root-step>F</root-step>
  			</root>
				<kind text="">major</kind>
			</harmony>
			<note>
			 	<rest/>
				<duration>480</duration>
				<voice>1</voice>
				<type>whole</type>
				<notations>
				</notations>
			</note>
		</measure>
		<measure number="56">
			<harmony print-frame="no">
				<root>
  				<root-step>G</root-step>
  			</root>
				<kind text="">major</kind>
			</harmony>
			<harmony print-frame="no">
				<root>
  				<root-step>C</root-step>
  			</root>
				<kind text="">major</kind>
			</harmony>
			<note>
			 	<rest/>
				<duration>480</duration>
				<voice>1</voice>
				<type>whole</type>
				<notations>
				</notations>
			</note>
		</measure>
		<measure number="57">
		<print new-system="yes"/>
			<harmony print-frame="no">
				<root>
  				<root-step>C</root-step>
  			</root>
				<kind text="">major</kind>
			</harmony>
			<note>
			 	<rest/>
				<duration>480</duration>
				<voice>1</voice>
				<type>whole</type>
				<notations>
				</notations>
			</note>
		</measure>
		<measure number="58">
			<harmony print-frame="no">
				<root>
  				<root-step>C</root-step>
  			</root>
				<kind text="">major</kind>
			</harmony>
			<note>
			 	<rest/>
				<duration>480</duration>
				<voice>1</voice>
				<type>whole</type>
				<notations>
				</notations>
			</note>
		</measure>
		<measure number="59">
			<harmony print-frame="no">
				<root>
  				<root-step>C</root-step>
  			</root>
				<kind text="">major</kind>
			</harmony>
			<note>
			 	<rest/>
				<duration>480</duration>
				<voice>1</voice>
				<type>whole</type>
				<notations>
				</notations>
			</note>
		</measure>
		<measure number="60">
			<harmony print-frame="no">
				<root>
  				<root-step>C</root-step>
  			</root>
				<kind text="">major</kind>
			</harmony>
			<note>
			 	<rest/>
				<duration>480</duration>
				<voice>1</voice>
				<type>whole</type>
				<notations>
				</notations>
			</note>
		</measure>
		<measure number="61">
		<print new-system="yes"/>
			<harmony print-frame="no">
				<root>
  				<root-step>A</root-step>
  			</root>
				<kind text="m">minor</kind>
			</harmony>
			<harmony print-frame="no">
				<root>
  				<root-step>F</root-step>
  			</root>
				<kind text="">major</kind>
			</harmony>
			<note>
			 	<rest/>
				<duration>480</duration>
				<voice>1</voice>
				<type>whole</type>
				<notations>
				</notations>
			</note>
		</measure>
		<measure number="62">
			<harmony print-frame="no">
				<root>
  				<root-step>G</root-step>
  			</root>
				<kind text="">major</kind>
			</harmony>
			<harmony print-frame="no">
				<root>
  				<root-step>C</root-step>
  			</root>
				<kind text="">major</kind>
			</harmony>
			<note>
			 	<rest/>
				<duration>480</duration>
				<voice>1</voice>
				<type>whole</type>
				<notations>
				</notations>
			</note>
		</measure>
		<measure number="63">
			<harmony print-frame="no">
				<root>
  				<root-step>A</root-step>
  			</root>
				<kind text="m">minor</kind>
			</harmony>
			<harmony print-frame="no">
				<root>
  				<root-step>F</root-step>
  			</root>
				<kind text="">major</kind>
			</harmony>
			<note>
			 	<rest/>
				<duration>480</duration>
				<voice>1</voice>
				<type>whole</type>
				<notations>
				</notations>
			</note>
		</measure>
		<measure number="64">
			<harmony print-frame="no">
				<root>
  				<root-step>G</root-step>
  			</root>
				<kind text="">major</kind>
			</harmony>
			<harmony print-frame="no">
				<root>
  				<root-step>C</root-step>
  			</root>
				<kind text="">major</kind>
			</harmony>
			<note>
			 	<rest/>
				<duration>480</duration>
				<voice>1</voice>
				<type>whole</type>
				<notations>
				</notations>
			</note>
		</measure>
		<measure number="65">
		<print new-system="yes"/>
			<harmony print-frame="no">
				<root>
  				<root-step>D</root-step>
  			</root>
				<kind text="m">minor</kind>
			</harmony>
			<harmony print-frame="no">
				<root>
  				<root-step>A</root-step>
  			</root>
				<kind text="m">minor</kind>
			</harmony>
			<note>
			 	<rest/>
				<duration>480</duration>
				<voice>1</voice>
				<type>whole</type>
				<notations>
				</notations>
			</note>
		</measure>
		<measure number="66">
			<harmony print-frame="no">
				<root>
  				<root-step>G</root-step>
  			</root>
				<kind text="">major</kind>
			</harmony>
			<harmony print-frame="no">
				<root>
  				<root-step>C</root-step>
  			</root>
				<kind text="">major</kind>
			</harmony>
			<note>
			 	<rest/>
				<duration>480</duration>
				<voice>1</voice>
				<type>whole</type>
				<notations>
				</notations>
			</note>
		</measure>
		<measure number="67">
			<harmony print-frame="no">
				<root>
  				<root-step>A</root-step>
  			</root>
				<kind text="m">minor</kind>
			</harmony>
			<harmony print-frame="no">
				<root>
  				<root-step>F</root-step>
  			</root>
				<kind text="">major</kind>
			</harmony>
			<note>
			 	<rest/>
				<duration>480</duration>
				<voice>1</voice>
				<type>whole</type>
				<notations>
				</notations>
			</note>
		</measure>
		<measure number="68">
			<harmony print-frame="no">
				<root>
  				<root-step>G</root-step>
  			</root>
				<kind text="">major</kind>
			</harmony>
			<harmony print-frame="no">
				<root>
  				<root-step>C</root-step>
  			</root>
				<kind text="">major</kind>
			</harmony>
			<note>
			 	<rest/>
				<duration>480</duration>
				<voice>1</voice>
				<type>whole</type>
				<notations>
				</notations>
			</note>
		</measure>
		<measure number="69">
		<print new-system="yes"/>
			<harmony print-frame="no">
				<root>
  				<root-step>C</root-step>
  			</root>
				<kind text="">major</kind>
			</harmony>
			<note>
			 	<rest/>
				<duration>480</duration>
				<voice>1</voice>
				<type>whole</type>
				<notations>
				</notations>
			</note>
		</measure>
		<measure number="70">
			<harmony print-frame="no">
				<root>
  				<root-step>C</root-step>
  			</root>
				<kind text="">major</kind>
			</harmony>
			<note>
			 	<rest/>
				<duration>480</duration>
				<voice>1</voice>
				<type>whole</type>
				<notations>
				</notations>
			</note>
		</measure>
		<measure number="71">
			<harmony print-frame="no">
				<root>
  				<root-step>C</root-step>
  			</root>
				<kind text="">major</kind>
			</harmony>
			<note>
			 	<rest/>
				<duration>480</duration>
				<voice>1</voice>
				<type>whole</type>
				<notations>
				</notations>
			</note>
		</measure>
		<measure number="72">
			<note>
			 	<rest/>
				<duration>480</duration>
				<voice>1</voice>
				<type>whole</type>
				<notations>
				</notations>
			</note>
			<barline location="right">
				<bar-style>light-heavy</bar-style>
			</barline>
		</measure>
	</part>
</score-partwise>
