<?xml version="1.0" encoding="UTF-8" standalone="no"?>
<!DOCTYPE score-partwise PUBLIC "-//Recordare//DTD MusicXML 1.1 Partwise//EN" "http://www.musicxml.org/dtds/partwise.dtd">

<score-partwise version="2.0">
	<movement-title></movement-title>
	<identification>
		<creator type="composer"></creator>
		<encoding>
			<software>SmartScore X Pro</software>
			<encoding-date>2012-09-07</encoding-date>
			<supports attribute="new-system" element="print" type="yes" value="yes"/>
			<supports attribute="new-page" element="print" type="yes" value="yes"/>
		</encoding>
	</identification>
	<defaults>
		<scaling>
			<millimeters>6.00</millimeters>
			<tenths>40</tenths>
		</scaling>
		<page-layout>
			<page-height>1862.67</page-height>
			<page-width>1439.33</page-width>
			<page-margins type="both">
				<left-margin>282.13</left-margin>
				<right-margin>282.13</right-margin>
				<top-margin>1.96</top-margin>
				<bottom-margin>1.96</bottom-margin>
			</page-margins>
		</page-layout>
	</defaults>
	<part-list>
		<score-part id="P1">
			<part-name>Piano</part-name>
			<part-abbreviation>Pno</part-abbreviation>
			<score-instrument id="P1-S0V0">
				<instrument-name>Grand Piano</instrument-name>
			</score-instrument>
			<score-instrument id="P1-S0V1">
				<instrument-name>Grand Piano</instrument-name>
			</score-instrument>
			<score-instrument id="P1-S1V0">
				<instrument-name>Grand Piano</instrument-name>
			</score-instrument>
			<score-instrument id="P1-S1V1">
				<instrument-name>Grand Piano</instrument-name>
			</score-instrument>
			<midi-instrument id="P1-S1V0">
				<midi-channel>5</midi-channel>
				<midi-program>1</midi-program>
				<volume>78</volume>
				<pan>0</pan>
			</midi-instrument>
			<midi-instrument id="P1-S0V0">
				<midi-channel>1</midi-channel>
				<midi-program>1</midi-program>
				<volume>78</volume>
				<pan>0</pan>
			</midi-instrument>
			<midi-instrument id="P1-S0V1">
				<midi-channel>2</midi-channel>
				<midi-program>1</midi-program>
				<volume>78</volume>
				<pan>0</pan>
			</midi-instrument>
			<midi-instrument id="P1-S1V1">
				<midi-channel>6</midi-channel>
				<midi-program>1</midi-program>
				<volume>78</volume>
				<pan>0</pan>
			</midi-instrument>
		</score-part>
	</part-list><!--
===========================================================
-->

	<part id="P1">
		<measure number="1" width="140">
			<print>
				<page-layout>
					<page-height>1862.67</page-height>
					<page-width>1439.33</page-width>
					<page-margins>
						<left-margin>282.13</left-margin>
						<right-margin>282.13</right-margin>
						<top-margin>1.96</top-margin>
						<bottom-margin>0.98</bottom-margin>
					</page-margins>
				</page-layout>
				<system-layout>
					<system-margins>
						<left-margin>0</left-margin>
						<right-margin>0</right-margin>
					</system-margins>
					<top-system-distance>89</top-system-distance>
				</system-layout>
				<staff-layout number="2">
					<staff-distance>176</staff-distance>
				</staff-layout>
			</print>
			<attributes>
				<divisions>120</divisions>
				<key>
					<fifths>1</fifths>
				</key>
				<time>
					<beats>4</beats>
					<beat-type>4</beat-type>
				</time>
				<staves>2</staves>
				<clef number="1">
					<sign>G</sign>
					<line>2</line>
				</clef>
				<clef number="2">
					<sign>F</sign>
					<line>4</line>
				</clef>
				<staff-details number="1" print-object="yes">
					<staff-size>102</staff-size>
				</staff-details>
				<staff-details number="2" print-object="yes">
					<staff-size>102</staff-size>
				</staff-details>
			</attributes>
			<attributes></attributes>
			<direction placement="above">
				<direction-type>
					<words relative-x="-172.4996" default-y="137.3378" font-family="Times New Roman" font-style="normal" font-size="9" font-weight="normal" color="#000000">GOD THE FATHER</words>
				</direction-type>
				<staff>1</staff>
			</direction>
			<direction placement="above">
				<direction-type>
					<words relative-x="7.7406" default-y="103.5544" font-family="Times New Roman" font-style="normal" font-size="32" font-weight="normal" color="#000000"> The God of Abraham Praise</words>
				</direction-type>
				<staff>1</staff>
			</direction>
			<direction placement="above">
				<direction-type>
					<words relative-x="7.7406" default-y="57.2074" font-family="Times New Roman" font-style="italic" font-size="9" font-weight="normal" color="#000000">GoI said  o Moses l AM WHO l AM. Ex. 3:14</words>
				</direction-type>
				<staff>1</staff>
			</direction>
			<note>
				<pitch>
					<step>B</step>
					<octave>3</octave>
				</pitch>
				<duration>80</duration>
				<instrument id="P1-S0V0"/>
				<voice>1</voice>
				<type>quarter</type>
				<time-modification>
					<actual-notes>6</actual-notes>
					<normal-notes>4</normal-notes>
				</time-modification>
				<stem>up</stem>
				<staff>1</staff>
				<notations>
					<tuplet type="start" number="1"></tuplet>
				</notations>
				<lyric number="1">
					<syllabic>single</syllabic>
					<text>The</text>
				</lyric>
				<lyric number="2">
					<syllabic>single</syllabic>
					<text>He</text>
				</lyric>
				<lyric number="3">
					<syllabic>single</syllabic>
					<text>The</text>
				</lyric>
				<lyric number="4">
					<syllabic>single</syllabic>
					<text>The</text>
				</lyric>
			</note>
			<backup>
				<duration>80</duration>
			</backup>
			<note>
				<pitch>
					<step>B</step>
					<octave>3</octave>
				</pitch>
				<duration>120</duration>
				<instrument id="P1-S0V1"/>
				<voice>2</voice>
				<type>quarter</type>
				<stem>down</stem>
				<staff>1</staff>
			</note>
			<backup>
				<duration>40</duration>
			</backup>
			<backup>
				<duration>80</duration>
			</backup>
			<note>
				<pitch>
					<step>E</step>
					<octave>3</octave>
				</pitch>
				<duration>120</duration>
				<instrument id="P1-S1V0"/>
				<voice>5</voice>
				<type>quarter</type>
				<stem>down</stem>
				<staff>2</staff>
			</note>
			<note>
				<chord/>
				<pitch>
					<step>G</step>
					<octave>3</octave>
				</pitch>
				<duration>120</duration>
				<instrument id="P1-S1V0"/>
				<voice>5</voice>
				<type>quarter</type>
				<stem>down</stem>
				<staff>2</staff>
			</note>
			<forward>
				<duration>360</duration>
			</forward>
		</measure><!--
===========================================================
-->

		<measure number="2" width="252">
			<print new-system="no"></print>
			<attributes></attributes>
			<note>
				<pitch>
					<step>B</step>
					<octave>3</octave>
				</pitch>
				<duration>80</duration>
				<instrument id="P1-S0V0"/>
				<voice>1</voice>
				<type>quarter</type>
				<time-modification>
					<actual-notes>6</actual-notes>
					<normal-notes>4</normal-notes>
				</time-modification>
				<stem>up</stem>
				<staff>1</staff>
				<notations></notations>
				<lyric number="1">
					<syllabic>single</syllabic>
					<text>cod</text>
				</lyric>
				<lyric number="2">
					<syllabic>single</syllabic>
					<text>by</text>
				</lyric>
				<lyric number="3">
					<syllabic>single</syllabic>
					<text>God</text>
				</lyric>
				<lyric number="4">
					<syllabic>single</syllabic>
					<text>whole</text>
				</lyric>
			</note>
			<note>
				<chord/>
				<pitch>
					<step>E</step>
					<octave>4</octave>
				</pitch>
				<duration>80</duration>
				<instrument id="P1-S0V0"/>
				<voice>1</voice>
				<type>quarter</type>
				<time-modification>
					<actual-notes>6</actual-notes>
					<normal-notes>4</normal-notes>
				</time-modification>
				<stem>up</stem>
				<staff>1</staff>
				<notations></notations>
			</note>
			<note>
				<pitch>
					<step>B</step>
					<octave>3</octave>
				</pitch>
				<duration>80</duration>
				<instrument id="P1-S0V0"/>
				<voice>1</voice>
				<type>quarter</type>
				<time-modification>
					<actual-notes>6</actual-notes>
					<normal-notes>4</normal-notes>
				</time-modification>
				<stem>up</stem>
				<staff>1</staff>
				<notations></notations>
				<lyric number="1">
					<syllabic>single</syllabic>
					<text>of</text>
				</lyric>
				<lyric number="2">
					<syllabic>begin</syllabic>
					<text>him</text>
				</lyric>
				<lyric number="3">
					<syllabic>single</syllabic>
					<text>who</text>
				</lyric>
				<lyric number="4">
					<syllabic>begin</syllabic>
					<text>tri</text>
				</lyric>
			</note>
			<note>
				<chord/>
				<pitch>
					<step>F</step>
					<alter>1</alter>
					<octave>4</octave>
				</pitch>
				<duration>80</duration>
				<instrument id="P1-S0V0"/>
				<voice>1</voice>
				<type>quarter</type>
				<time-modification>
					<actual-notes>6</actual-notes>
					<normal-notes>4</normal-notes>
				</time-modification>
				<stem>up</stem>
				<staff>1</staff>
				<notations></notations>
			</note>
			<note>
				<pitch>
					<step>B</step>
					<octave>3</octave>
				</pitch>
				<duration>80</duration>
				<instrument id="P1-S0V0"/>
				<voice>1</voice>
				<type>quarter</type>
				<time-modification>
					<actual-notes>6</actual-notes>
					<normal-notes>4</normal-notes>
				</time-modification>
				<stem>up</stem>
				<staff>1</staff>
				<notations></notations>
				<lyric number="1">
					<syllabic>begin</syllabic>
					<text>A</text>
				</lyric>
				<lyric number="2">
					<syllabic>end</syllabic>
					<text>self</text>
				</lyric>
				<lyric number="3">
					<syllabic>single</syllabic>
					<text>reigns</text>
				</lyric>
				<lyric number="4">
					<syllabic>middle</syllabic>
					<text>um</text>
				</lyric>
			</note>
			<note>
				<chord/>
				<pitch>
					<step>G</step>
					<octave>4</octave>
				</pitch>
				<duration>80</duration>
				<instrument id="P1-S0V0"/>
				<voice>1</voice>
				<type>quarter</type>
				<time-modification>
					<actual-notes>6</actual-notes>
					<normal-notes>4</normal-notes>
				</time-modification>
				<stem>up</stem>
				<staff>1</staff>
				<notations></notations>
			</note>
			<note>
				<pitch>
					<step>E</step>
					<octave>4</octave>
				</pitch>
				<duration>80</duration>
				<instrument id="P1-S0V0"/>
				<voice>1</voice>
				<type>quarter</type>
				<time-modification>
					<actual-notes>6</actual-notes>
					<normal-notes>4</normal-notes>
				</time-modification>
				<stem>up</stem>
				<staff>1</staff>
				<notations></notations>
				<lyric number="1">
					<syllabic>end</syllabic>
					<text>braham</text>
				</lyric>
				<lyric number="2">
					<syllabic>single</syllabic>
					<text>hath</text>
				</lyric>
				<lyric number="3">
					<syllabic>single</syllabic>
					<text>on</text>
				</lyric>
				<lyric number="4">
					<syllabic>end</syllabic>
					<text>phant</text>
				</lyric>
			</note>
			<note>
				<chord/>
				<pitch>
					<step>A</step>
					<octave>4</octave>
				</pitch>
				<duration>80</duration>
				<instrument id="P1-S0V0"/>
				<voice>1</voice>
				<type>quarter</type>
				<time-modification>
					<actual-notes>6</actual-notes>
					<normal-notes>4</normal-notes>
				</time-modification>
				<stem>up</stem>
				<staff>1</staff>
				<notations></notations>
			</note>
			<backup>
				<duration>320</duration>
			</backup>
			<note>
				<pitch>
					<step>E</step>
					<octave>3</octave>
				</pitch>
				<duration>120</duration>
				<instrument id="P1-S1V0"/>
				<voice>5</voice>
				<type>quarter</type>
				<stem>down</stem>
				<staff>2</staff>
			</note>
			<note>
				<chord/>
				<pitch>
					<step>G</step>
					<octave>3</octave>
				</pitch>
				<duration>120</duration>
				<instrument id="P1-S1V0"/>
				<voice>5</voice>
				<type>quarter</type>
				<stem>down</stem>
				<staff>2</staff>
			</note>
			<note>
				<pitch>
					<step>D</step>
					<alter>1</alter>
					<octave>3</octave>
				</pitch>
				<duration>120</duration>
				<instrument id="P1-S1V0"/>
				<voice>5</voice>
				<type>quarter</type>
				<accidental parentheses="no">sharp</accidental>
				<stem>down</stem>
				<staff>2</staff>
			</note>
			<note>
				<chord/>
				<pitch>
					<step>F</step>
					<alter>1</alter>
					<octave>3</octave>
				</pitch>
				<duration>120</duration>
				<instrument id="P1-S1V0"/>
				<voice>5</voice>
				<type>quarter</type>
				<stem>down</stem>
				<staff>2</staff>
			</note>
			<note>
				<pitch>
					<step>E</step>
					<octave>3</octave>
				</pitch>
				<duration>120</duration>
				<instrument id="P1-S1V0"/>
				<voice>5</voice>
				<type>quarter</type>
				<stem>down</stem>
				<staff>2</staff>
			</note>
			<backup>
				<duration>120</duration>
			</backup>
			<note>
				<pitch>
					<step>E</step>
					<octave>3</octave>
				</pitch>
				<duration>120</duration>
				<instrument id="P1-S1V1"/>
				<voice>6</voice>
				<type>quarter</type>
				<stem>up</stem>
				<staff>2</staff>
			</note>
			<note>
				<pitch>
					<step>C</step>
					<octave>3</octave>
				</pitch>
				<duration>120</duration>
				<instrument id="P1-S1V0"/>
				<voice>5</voice>
				<type>quarter</type>
				<stem>down</stem>
				<staff>2</staff>
			</note>
			<note>
				<chord/>
				<pitch>
					<step>E</step>
					<octave>3</octave>
				</pitch>
				<duration>120</duration>
				<instrument id="P1-S1V0"/>
				<voice>5</voice>
				<type>quarter</type>
				<stem>down</stem>
				<staff>2</staff>
			</note>
		</measure><!--
===========================================================
-->

		<measure number="3" width="153">
			<print new-system="no"></print>
			<attributes></attributes>
			<note>
				<pitch>
					<step>D</step>
					<alter>1</alter>
					<octave>4</octave>
				</pitch>
				<duration>240</duration>
				<instrument id="P1-S0V0"/>
				<voice>1</voice>
				<type>half</type>
				<dot/>
				<accidental parentheses="no">sharp</accidental>
				<time-modification>
					<actual-notes>6</actual-notes>
					<normal-notes>4</normal-notes>
				</time-modification>
				<stem>up</stem>
				<staff>1</staff>
				<notations></notations>
				<lyric number="1">
					<syllabic>single</syllabic>
					<text>praise,</text>
				</lyric>
				<lyric number="2">
					<syllabic>single</syllabic>
					<text>sworn,</text>
				</lyric>
				<lyric number="3">
					<syllabic>single</syllabic>
					<text>hi</text>
				</lyric>
				<lyric number="4">
					<syllabic>single</syllabic>
					<text>host</text>
				</lyric>
			</note>
			<note>
				<chord/>
				<pitch>
					<step>B</step>
					<octave>4</octave>
				</pitch>
				<duration>240</duration>
				<instrument id="P1-S0V0"/>
				<voice>1</voice>
				<type>half</type>
				<dot/>
				<time-modification>
					<actual-notes>6</actual-notes>
					<normal-notes>4</normal-notes>
				</time-modification>
				<stem>up</stem>
				<staff>1</staff>
				<notations></notations>
			</note>
			<note>
				<pitch>
					<step>D</step>
					<octave>4</octave>
				</pitch>
				<duration>80</duration>
				<instrument id="P1-S0V0"/>
				<voice>1</voice>
				<type>quarter</type>
				<accidental parentheses="no">natural</accidental>
				<time-modification>
					<actual-notes>6</actual-notes>
					<normal-notes>4</normal-notes>
				</time-modification>
				<stem>up</stem>
				<staff>1</staff>
				<notations></notations>
				<lyric number="1">
					<syllabic>single</syllabic>
					<text>who</text>
				</lyric>
				<lyric number="2">
					<syllabic>single</syllabic>
					<text>we</text>
				</lyric>
				<lyric number="3">
					<syllabic>single</syllabic>
					<text>the</text>
				</lyric>
				<lyric number="4">
					<syllabic>single</syllabic>
					<text>$5ve</text>
				</lyric>
			</note>
			<note>
				<chord/>
				<pitch>
					<step>G</step>
					<octave>4</octave>
				</pitch>
				<duration>80</duration>
				<instrument id="P1-S0V0"/>
				<voice>1</voice>
				<type>quarter</type>
				<time-modification>
					<actual-notes>6</actual-notes>
					<normal-notes>4</normal-notes>
				</time-modification>
				<stem>up</stem>
				<staff>1</staff>
				<notations></notations>
			</note>
			<backup>
				<duration>320</duration>
			</backup>
			<note>
				<pitch>
					<step>B</step>
					<octave>2</octave>
				</pitch>
				<duration>360</duration>
				<instrument id="P1-S1V0"/>
				<voice>5</voice>
				<type>half</type>
				<dot/>
				<stem>down</stem>
				<staff>2</staff>
			</note>
			<note>
				<chord/>
				<pitch>
					<step>F</step>
					<alter>1</alter>
					<octave>3</octave>
				</pitch>
				<duration>360</duration>
				<instrument id="P1-S1V0"/>
				<voice>5</voice>
				<type>half</type>
				<dot/>
				<stem>down</stem>
				<staff>2</staff>
			</note>
			<note>
				<pitch>
					<step>B</step>
					<octave>2</octave>
				</pitch>
				<duration>120</duration>
				<instrument id="P1-S1V0"/>
				<voice>5</voice>
				<type>quarter</type>
				<stem>down</stem>
				<staff>2</staff>
			</note>
			<note>
				<chord/>
				<pitch>
					<step>G</step>
					<octave>3</octave>
				</pitch>
				<duration>120</duration>
				<instrument id="P1-S1V0"/>
				<voice>5</voice>
				<type>quarter</type>
				<stem>down</stem>
				<staff>2</staff>
			</note>
		</measure><!--
===========================================================
-->

		<measure number="4" width="245">
			<print new-system="no"></print>
			<attributes></attributes>
			<note>
				<pitch>
					<step>E</step>
					<octave>4</octave>
				</pitch>
				<duration>80</duration>
				<instrument id="P1-S0V0"/>
				<voice>1</voice>
				<type>quarter</type>
				<time-modification>
					<actual-notes>6</actual-notes>
					<normal-notes>4</normal-notes>
				</time-modification>
				<stem>up</stem>
				<staff>1</staff>
				<notations></notations>
				<lyric number="1">
					<syllabic>single</syllabic>
					<text>reigns</text>
				</lyric>
				<lyric number="2">
					<syllabic>single</syllabic>
					<text>on</text>
				</lyric>
				<lyric number="3">
					<syllabic>single</syllabic>
					<text>great</text>
				</lyric>
				<lyric number="4">
					<syllabic>single</syllabic>
					<text>thanks</text>
				</lyric>
			</note>
			<note>
				<chord/>
				<pitch>
					<step>A</step>
					<octave>4</octave>
				</pitch>
				<duration>80</duration>
				<instrument id="P1-S0V0"/>
				<voice>1</voice>
				<type>quarter</type>
				<time-modification>
					<actual-notes>6</actual-notes>
					<normal-notes>4</normal-notes>
				</time-modification>
				<stem>up</stem>
				<staff>1</staff>
				<notations></notations>
			</note>
			<note>
				<pitch>
					<step>E</step>
					<octave>4</octave>
				</pitch>
				<duration>80</duration>
				<instrument id="P1-S0V0"/>
				<voice>1</voice>
				<type>quarter</type>
				<time-modification>
					<actual-notes>6</actual-notes>
					<normal-notes>4</normal-notes>
				</time-modification>
				<stem>up</stem>
				<staff>1</staff>
				<notations></notations>
				<lyric number="1">
					<syllabic>begin</syllabic>
					<text>en</text>
				</lyric>
				<lyric number="2">
					<syllabic>single</syllabic>
					<text>his</text>
				</lyric>
				<lyric number="3">
					<syllabic>begin</syllabic>
					<text>arch</text>
				</lyric>
				<lyric number="4">
					<syllabic>single</syllabic>
					<text>to</text>
				</lyric>
			</note>
			<note>
				<chord/>
				<pitch>
					<step>B</step>
					<octave>4</octave>
				</pitch>
				<duration>80</duration>
				<instrument id="P1-S0V0"/>
				<voice>1</voice>
				<type>quarter</type>
				<time-modification>
					<actual-notes>6</actual-notes>
					<normal-notes>4</normal-notes>
				</time-modification>
				<stem>up</stem>
				<staff>1</staff>
				<notations></notations>
			</note>
			<note>
				<pitch>
					<step>E</step>
					<octave>4</octave>
				</pitch>
				<duration>80</duration>
				<instrument id="P1-S0V0"/>
				<voice>1</voice>
				<type>quarter</type>
				<time-modification>
					<actual-notes>6</actual-notes>
					<normal-notes>4</normal-notes>
				</time-modification>
				<stem>up</stem>
				<staff>1</staff>
				<notations></notations>
				<lyric number="1">
					<syllabic>end</syllabic>
					<text>throned</text>
				</lyric>
				<lyric number="2">
					<syllabic>single</syllabic>
					<text>oath</text>
				</lyric>
				<lyric number="3">
					<syllabic>middle</syllabic>
					<text>an</text>
				</lyric>
				<lyric number="4">
					<syllabic>single</syllabic>
					<text>God</text>
				</lyric>
			</note>
			<note>
				<chord/>
				<pitch>
					<step>C</step>
					<octave>5</octave>
				</pitch>
				<duration>80</duration>
				<instrument id="P1-S0V0"/>
				<voice>1</voice>
				<type>quarter</type>
				<time-modification>
					<actual-notes>6</actual-notes>
					<normal-notes>4</normal-notes>
				</time-modification>
				<stem>up</stem>
				<staff>1</staff>
				<notations></notations>
			</note>
			<note>
				<pitch>
					<step>D</step>
					<octave>4</octave>
				</pitch>
				<duration>80</duration>
				<instrument id="P1-S0V0"/>
				<voice>1</voice>
				<type>quarter</type>
				<time-modification>
					<actual-notes>6</actual-notes>
					<normal-notes>4</normal-notes>
				</time-modification>
				<stem>up</stem>
				<staff>1</staff>
				<notations></notations>
				<lyric number="1">
					<syllabic>begin</syllabic>
					<text>a</text>
				</lyric>
				<lyric number="2">
					<syllabic>begin</syllabic>
					<text>de</text>
				</lyric>
				<lyric number="3">
					<syllabic>end</syllabic>
					<text>gels</text>
				</lyric>
				<lyric number="4">
					<syllabic>single</syllabic>
					<text>on</text>
				</lyric>
			</note>
			<note>
				<chord/>
				<pitch>
					<step>D</step>
					<octave>5</octave>
				</pitch>
				<duration>80</duration>
				<instrument id="P1-S0V0"/>
				<voice>1</voice>
				<type>quarter</type>
				<time-modification>
					<actual-notes>6</actual-notes>
					<normal-notes>4</normal-notes>
				</time-modification>
				<stem>up</stem>
				<staff>1</staff>
				<notations></notations>
			</note>
			<backup>
				<duration>320</duration>
			</backup>
			<note>
				<pitch>
					<step>E</step>
					<octave>3</octave>
				</pitch>
				<duration>60</duration>
				<instrument id="P1-S1V0"/>
				<voice>5</voice>
				<type>eighth</type>
				<stem>up</stem>
				<staff>2</staff>
				<beam number="1">begin</beam>
			</note>
			<backup>
				<duration>60</duration>
			</backup>
			<note>
				<pitch>
					<step>C</step>
					<octave>3</octave>
				</pitch>
				<duration>120</duration>
				<instrument id="P1-S1V1"/>
				<voice>6</voice>
				<type>quarter</type>
				<stem>down</stem>
				<staff>2</staff>
			</note>
			<backup>
				<duration>60</duration>
			</backup>
			<note>
				<pitch>
					<step>F</step>
					<alter>1</alter>
					<octave>3</octave>
				</pitch>
				<duration>60</duration>
				<instrument id="P1-S1V0"/>
				<voice>5</voice>
				<type>eighth</type>
				<stem>up</stem>
				<staff>2</staff>
				<beam number="1">end</beam>
			</note>
			<note>
				<pitch>
					<step>B</step>
					<octave>2</octave>
				</pitch>
				<duration>120</duration>
				<instrument id="P1-S1V1"/>
				<voice>6</voice>
				<type>quarter</type>
				<stem>down</stem>
				<staff>2</staff>
			</note>
			<note>
				<chord/>
				<pitch>
					<step>G</step>
					<alter>1</alter>
					<octave>3</octave>
				</pitch>
				<duration>120</duration>
				<instrument id="P1-S1V1"/>
				<voice>6</voice>
				<type>quarter</type>
				<accidental parentheses="no">sharp</accidental>
				<stem>down</stem>
				<staff>2</staff>
			</note>
			<note>
				<pitch>
					<step>A</step>
					<octave>2</octave>
				</pitch>
				<duration>120</duration>
				<instrument id="P1-S1V1"/>
				<voice>6</voice>
				<type>quarter</type>
				<stem>down</stem>
				<staff>2</staff>
			</note>
			<note>
				<chord/>
				<pitch>
					<step>A</step>
					<octave>3</octave>
				</pitch>
				<duration>120</duration>
				<instrument id="P1-S1V1"/>
				<voice>6</voice>
				<type>quarter</type>
				<stem>down</stem>
				<staff>2</staff>
			</note>
			<note>
				<pitch>
					<step>D</step>
					<octave>3</octave>
				</pitch>
				<duration>120</duration>
				<instrument id="P1-S1V1"/>
				<voice>6</voice>
				<type>quarter</type>
				<stem>down</stem>
				<staff>2</staff>
			</note>
			<note>
				<chord/>
				<pitch>
					<step>F</step>
					<alter>1</alter>
					<octave>3</octave>
				</pitch>
				<duration>120</duration>
				<instrument id="P1-S1V1"/>
				<voice>6</voice>
				<type>quarter</type>
				<stem>down</stem>
				<staff>2</staff>
			</note>
		</measure><!--
===========================================================
-->

		<measure number="5" width="83">
			<print new-system="no"></print>
			<attributes></attributes>
			<note>
				<pitch>
					<step>D</step>
					<octave>4</octave>
				</pitch>
				<duration>240</duration>
				<instrument id="P1-S0V0"/>
				<voice>1</voice>
				<type>half</type>
				<dot/>
				<time-modification>
					<actual-notes>6</actual-notes>
					<normal-notes>4</normal-notes>
				</time-modification>
				<stem>up</stem>
				<staff>1</staff>
				<notations></notations>
				<lyric number="1">
					<syllabic>end</syllabic>
					<text>bove,</text>
				</lyric>
				<lyric number="2">
					<syllabic>end</syllabic>
					<text>pend,</text>
				</lyric>
				<lyric number="3">
					<syllabic>single</syllabic>
					<text>sing,</text>
				</lyric>
				<lyric number="4">
					<syllabic>single</syllabic>
					<text>hi,</text>
				</lyric>
			</note>
			<note>
				<chord/>
				<pitch>
					<step>B</step>
					<octave>4</octave>
				</pitch>
				<duration>240</duration>
				<instrument id="P1-S0V0"/>
				<voice>1</voice>
				<type>half</type>
				<dot/>
				<time-modification>
					<actual-notes>6</actual-notes>
					<normal-notes>4</normal-notes>
				</time-modification>
				<stem>up</stem>
				<staff>1</staff>
				<notations></notations>
			</note>
			<backup>
				<duration>240</duration>
			</backup>
			<note>
				<pitch>
					<step>G</step>
					<octave>2</octave>
				</pitch>
				<duration>360</duration>
				<instrument id="P1-S1V0"/>
				<voice>5</voice>
				<type>half</type>
				<dot/>
				<stem>up</stem>
				<staff>2</staff>
			</note>
			<note>
				<chord/>
				<pitch>
					<step>G</step>
					<octave>3</octave>
				</pitch>
				<duration>360</duration>
				<instrument id="P1-S1V0"/>
				<voice>5</voice>
				<type>half</type>
				<dot/>
				<stem>up</stem>
				<staff>2</staff>
			</note>
			<forward>
				<duration>120</duration>
			</forward>
		</measure><!--
===========================================================
-->

		<measure number="6" width="118">
			<print new-system="yes">
				<system-layout>
					<system-margins>
						<left-margin>0</left-margin>
						<right-margin>0</right-margin>
					</system-margins>
					<system-distance>60</system-distance>
				</system-layout>
				<staff-layout number="2">
					<staff-distance>174</staff-distance>
				</staff-layout>
			</print>
			<attributes></attributes>
			<note>
				<pitch>
					<step>B</step>
					<octave>3</octave>
				</pitch>
				<duration>80</duration>
				<instrument id="P1-S0V0"/>
				<voice>1</voice>
				<type>quarter</type>
				<time-modification>
					<actual-notes>6</actual-notes>
					<normal-notes>4</normal-notes>
				</time-modification>
				<stem>up</stem>
				<staff>1</staff>
				<notations></notations>
				<lyric number="1">
					<syllabic>begin</syllabic>
					<text>An</text>
				</lyric>
				<lyric number="2">
					<syllabic>single</syllabic>
					<text>we</text>
				</lyric>
				<lyric number="3">
					<syllabic>single</syllabic>
					<text>and</text>
				</lyric>
				<lyric number="4">
					<syllabic>single</syllabic>
					<text>&apos;&apos;Hail,</text>
				</lyric>
			</note>
			<note>
				<chord/>
				<pitch>
					<step>F</step>
					<alter>1</alter>
					<octave>4</octave>
				</pitch>
				<duration>80</duration>
				<instrument id="P1-S0V0"/>
				<voice>1</voice>
				<type>quarter</type>
				<time-modification>
					<actual-notes>6</actual-notes>
					<normal-notes>4</normal-notes>
				</time-modification>
				<stem>up</stem>
				<staff>1</staff>
				<notations></notations>
			</note>
			<backup>
				<duration>80</duration>
			</backup>
			<note>
				<pitch>
					<step>B</step>
					<octave>2</octave>
				</pitch>
				<duration>120</duration>
				<instrument id="P1-S1V0"/>
				<voice>5</voice>
				<type>quarter</type>
				<stem>up</stem>
				<staff>2</staff>
			</note>
			<note>
				<chord/>
				<pitch>
					<step>D</step>
					<alter>1</alter>
					<octave>3</octave>
				</pitch>
				<duration>120</duration>
				<instrument id="P1-S1V0"/>
				<voice>5</voice>
				<type>quarter</type>
				<accidental parentheses="no">sharp</accidental>
				<stem>up</stem>
				<staff>2</staff>
			</note>
			<forward>
				<duration>360</duration>
			</forward>
		</measure><!--
===========================================================
-->

		<measure number="7" width="246">
			<print new-system="no"></print>
			<attributes></attributes>
			<note>
				<pitch>
					<step>B</step>
					<octave>3</octave>
				</pitch>
				<duration>80</duration>
				<instrument id="P1-S0V0"/>
				<voice>1</voice>
				<type>quarter</type>
				<time-modification>
					<actual-notes>6</actual-notes>
					<normal-notes>4</normal-notes>
				</time-modification>
				<stem>up</stem>
				<staff>1</staff>
				<notations></notations>
				<lyric number="1">
					<syllabic>end</syllabic>
					<text>cient</text>
				</lyric>
				<lyric number="2">
					<syllabic>single</syllabic>
					<text>shall,</text>
				</lyric>
				<lyric number="3">
					<syllabic>begin</syllabic>
					<text>&apos;&apos;Ho</text>
				</lyric>
				<lyric number="4">
					<syllabic>begin</syllabic>
					<text>Fa</text>
				</lyric>
			</note>
			<note>
				<chord/>
				<pitch>
					<step>G</step>
					<octave>4</octave>
				</pitch>
				<duration>80</duration>
				<instrument id="P1-S0V0"/>
				<voice>1</voice>
				<type>quarter</type>
				<time-modification>
					<actual-notes>6</actual-notes>
					<normal-notes>4</normal-notes>
				</time-modification>
				<stem>up</stem>
				<staff>1</staff>
				<notations></notations>
			</note>
			<note>
				<pitch>
					<step>D</step>
					<octave>4</octave>
				</pitch>
				<duration>80</duration>
				<instrument id="P1-S0V0"/>
				<voice>1</voice>
				<type>quarter</type>
				<time-modification>
					<actual-notes>6</actual-notes>
					<normal-notes>4</normal-notes>
				</time-modification>
				<stem>up</stem>
				<staff>1</staff>
				<notations></notations>
				<lyric number="1">
					<syllabic>single</syllabic>
					<text>of</text>
				</lyric>
				<lyric number="2">
					<syllabic>single</syllabic>
					<text>on</text>
				</lyric>
				<lyric number="3">
					<syllabic>end</syllabic>
					<text>ly,</text>
				</lyric>
				<lyric number="4">
					<syllabic>end</syllabic>
					<text>ther,</text>
				</lyric>
			</note>
			<note>
				<chord/>
				<pitch>
					<step>A</step>
					<octave>4</octave>
				</pitch>
				<duration>80</duration>
				<instrument id="P1-S0V0"/>
				<voice>1</voice>
				<type>quarter</type>
				<time-modification>
					<actual-notes>6</actual-notes>
					<normal-notes>4</normal-notes>
				</time-modification>
				<stem>up</stem>
				<staff>1</staff>
				<notations></notations>
			</note>
			<note>
				<pitch>
					<step>D</step>
					<octave>4</octave>
				</pitch>
				<duration>80</duration>
				<instrument id="P1-S0V0"/>
				<voice>1</voice>
				<type>quarter</type>
				<time-modification>
					<actual-notes>6</actual-notes>
					<normal-notes>4</normal-notes>
				</time-modification>
				<stem>up</stem>
				<staff>1</staff>
				<notations></notations>
				<lyric number="1">
					<syllabic>begin</syllabic>
					<text>ev</text>
				</lyric>
				<lyric number="2">
					<syllabic>begin</syllabic>
					<text>ea</text>
				</lyric>
				<lyric number="3">
					<syllabic>begin</syllabic>
					<text>ho</text>
				</lyric>
				<lyric number="4">
					<syllabic>single</syllabic>
					<text>Son</text>
				</lyric>
			</note>
			<note>
				<chord/>
				<pitch>
					<step>B</step>
					<octave>4</octave>
				</pitch>
				<duration>80</duration>
				<instrument id="P1-S0V0"/>
				<voice>1</voice>
				<type>quarter</type>
				<time-modification>
					<actual-notes>6</actual-notes>
					<normal-notes>4</normal-notes>
				</time-modification>
				<stem>up</stem>
				<staff>1</staff>
				<notations></notations>
			</note>
			<note>
				<pitch>
					<step>E</step>
					<octave>4</octave>
				</pitch>
				<duration>80</duration>
				<instrument id="P1-S0V0"/>
				<voice>1</voice>
				<type>quarter</type>
				<time-modification>
					<actual-notes>6</actual-notes>
					<normal-notes>4</normal-notes>
				</time-modification>
				<stem>up</stem>
				<staff>1</staff>
				<notations></notations>
				<lyric number="1">
					<syllabic>middle</syllabic>
					<text>er</text>
				</lyric>
				<lyric number="2">
					<syllabic>end</syllabic>
					<text>gdes&apos;</text>
				</lyric>
				<lyric number="3">
					<syllabic>end</syllabic>
					<text>ly,</text>
				</lyric>
				<lyric number="4">
					<syllabic>single</syllabic>
					<text>and</text>
				</lyric>
			</note>
			<note>
				<chord/>
				<pitch>
					<step>C</step>
					<octave>5</octave>
				</pitch>
				<duration>80</duration>
				<instrument id="P1-S0V0"/>
				<voice>1</voice>
				<type>quarter</type>
				<time-modification>
					<actual-notes>6</actual-notes>
					<normal-notes>4</normal-notes>
				</time-modification>
				<stem>up</stem>
				<staff>1</staff>
				<notations></notations>
			</note>
			<backup>
				<duration>320</duration>
			</backup>
			<note>
				<pitch>
					<step>E</step>
					<octave>3</octave>
				</pitch>
				<duration>120</duration>
				<instrument id="P1-S1V0"/>
				<voice>5</voice>
				<type>quarter</type>
				<stem>up</stem>
				<staff>2</staff>
			</note>
			<backup>
				<duration>120</duration>
			</backup>
			<note>
				<pitch>
					<step>E</step>
					<octave>3</octave>
				</pitch>
				<duration>120</duration>
				<instrument id="P1-S1V1"/>
				<voice>6</voice>
				<type>quarter</type>
				<stem>down</stem>
				<staff>2</staff>
			</note>
			<note>
				<pitch>
					<step>D</step>
					<octave>3</octave>
				</pitch>
				<duration>120</duration>
				<instrument id="P1-S1V1"/>
				<voice>6</voice>
				<type>quarter</type>
				<accidental parentheses="no">natural</accidental>
				<stem>down</stem>
				<staff>2</staff>
			</note>
			<note>
				<chord/>
				<pitch>
					<step>F</step>
					<alter>1</alter>
					<octave>3</octave>
				</pitch>
				<duration>120</duration>
				<instrument id="P1-S1V1"/>
				<voice>6</voice>
				<type>quarter</type>
				<stem>down</stem>
				<staff>2</staff>
			</note>
			<note>
				<pitch>
					<step>G</step>
					<octave>3</octave>
				</pitch>
				<duration>120</duration>
				<instrument id="P1-S1V0"/>
				<voice>5</voice>
				<type>quarter</type>
				<stem>up</stem>
				<staff>2</staff>
			</note>
			<backup>
				<duration>120</duration>
			</backup>
			<note>
				<pitch>
					<step>G</step>
					<octave>3</octave>
				</pitch>
				<duration>120</duration>
				<instrument id="P1-S1V1"/>
				<voice>6</voice>
				<type>quarter</type>
				<stem>down</stem>
				<staff>2</staff>
			</note>
			<note>
				<pitch>
					<step>E</step>
					<octave>3</octave>
				</pitch>
				<duration>120</duration>
				<instrument id="P1-S1V1"/>
				<voice>6</voice>
				<type>quarter</type>
				<stem>down</stem>
				<staff>2</staff>
			</note>
			<note>
				<chord/>
				<pitch>
					<step>G</step>
					<octave>3</octave>
				</pitch>
				<duration>120</duration>
				<instrument id="P1-S1V1"/>
				<voice>6</voice>
				<type>quarter</type>
				<stem>down</stem>
				<staff>2</staff>
			</note>
		</measure><!--
===========================================================
-->

		<measure number="8" width="244">
			<print new-system="no"></print>
			<attributes></attributes>
			<note>
				<pitch>
					<step>D</step>
					<octave>4</octave>
				</pitch>
				<duration>80</duration>
				<instrument id="P1-S0V0"/>
				<voice>1</voice>
				<type>quarter</type>
				<time-modification>
					<actual-notes>6</actual-notes>
					<normal-notes>4</normal-notes>
				</time-modification>
				<stem>up</stem>
				<staff>1</staff>
				<notations></notations>
				<lyric number="1">
					<syllabic>middle</syllabic>
					<text>last</text>
				</lyric>
				<lyric number="2">
					<syllabic>single</syllabic>
					<text>rigs</text>
				</lyric>
				<lyric number="3">
					<syllabic>begin</syllabic>
					<text>ho</text>
				</lyric>
				<lyric number="4">
					<syllabic>begin</syllabic>
					<text>Ho</text>
				</lyric>
			</note>
			<note>
				<chord/>
				<pitch>
					<step>D</step>
					<octave>5</octave>
				</pitch>
				<duration>80</duration>
				<instrument id="P1-S0V0"/>
				<voice>1</voice>
				<type>quarter</type>
				<time-modification>
					<actual-notes>6</actual-notes>
					<normal-notes>4</normal-notes>
				</time-modification>
				<stem>up</stem>
				<staff>1</staff>
				<notations></notations>
			</note>
			<note>
				<pitch>
					<step>C</step>
					<octave>4</octave>
				</pitch>
				<duration>80</duration>
				<instrument id="P1-S0V0"/>
				<voice>1</voice>
				<type>quarter</type>
				<time-modification>
					<actual-notes>6</actual-notes>
					<normal-notes>4</normal-notes>
				</time-modification>
				<stem>up</stem>
				<staff>1</staff>
				<notations></notations>
				<lyric number="1">
					<syllabic>end</syllabic>
					<text>ing</text>
				</lyric>
				<lyric number="2">
					<syllabic>begin</syllabic>
					<text>up</text>
				</lyric>
				<lyric number="3">
					<syllabic>end</syllabic>
					<text>ly&apos;&apos;</text>
				</lyric>
				<lyric number="4">
					<syllabic>end</syllabic>
					<text>ly</text>
				</lyric>
			</note>
			<note>
				<chord/>
				<pitch>
					<step>F</step>
					<alter>1</alter>
					<octave>4</octave>
				</pitch>
				<duration>80</duration>
				<instrument id="P1-S0V0"/>
				<voice>1</voice>
				<type>quarter</type>
				<time-modification>
					<actual-notes>6</actual-notes>
					<normal-notes>4</normal-notes>
				</time-modification>
				<stem>up</stem>
				<staff>1</staff>
				<notations></notations>
			</note>
			<note>
				<pitch>
					<step>B</step>
					<octave>3</octave>
				</pitch>
				<duration>80</duration>
				<instrument id="P1-S0V0"/>
				<voice>1</voice>
				<type>quarter</type>
				<time-modification>
					<actual-notes>6</actual-notes>
					<normal-notes>4</normal-notes>
				</time-modification>
				<stem>up</stem>
				<staff>1</staff>
				<notations></notations>
				<lyric number="1">
					<syllabic>single</syllabic>
					<text>days,</text>
				</lyric>
				<lyric number="2">
					<syllabic>end</syllabic>
					<text>borne,</text>
				</lyric>
				<lyric number="3">
					<syllabic>single</syllabic>
					<text>cry,</text>
				</lyric>
				<lyric number="4">
					<syllabic>single</syllabic>
					<text>Ghost!&apos;&apos;</text>
				</lyric>
			</note>
			<note>
				<chord/>
				<pitch>
					<step>G</step>
					<octave>4</octave>
				</pitch>
				<duration>80</duration>
				<instrument id="P1-S0V0"/>
				<voice>1</voice>
				<type>quarter</type>
				<time-modification>
					<actual-notes>6</actual-notes>
					<normal-notes>4</normal-notes>
				</time-modification>
				<stem>up</stem>
				<staff>1</staff>
				<notations></notations>
			</note>
			<note>
				<pitch>
					<step>E</step>
					<octave>4</octave>
				</pitch>
				<duration>80</duration>
				<instrument id="P1-S0V0"/>
				<voice>1</voice>
				<type>quarter</type>
				<time-modification>
					<actual-notes>6</actual-notes>
					<normal-notes>4</normal-notes>
				</time-modification>
				<stem>up</stem>
				<staff>1</staff>
				<notations></notations>
				<lyric number="1">
					<syllabic>single</syllabic>
					<text>and</text>
				</lyric>
				<lyric number="2">
					<syllabic>single</syllabic>
					<text>to</text>
				</lyric>
				<lyric number="3">
					<syllabic>begin</syllabic>
					<text>&apos;&apos;AI</text>
				</lyric>
				<lyric number="4">
					<syllabic>single</syllabic>
					<text>they</text>
				</lyric>
			</note>
			<note>
				<chord/>
				<pitch>
					<step>C</step>
					<octave>5</octave>
				</pitch>
				<duration>80</duration>
				<instrument id="P1-S0V0"/>
				<voice>1</voice>
				<type>quarter</type>
				<time-modification>
					<actual-notes>6</actual-notes>
					<normal-notes>4</normal-notes>
				</time-modification>
				<stem>up</stem>
				<staff>1</staff>
				<notations></notations>
			</note>
			<backup>
				<duration>320</duration>
			</backup>
			<note>
				<pitch>
					<step>B</step>
					<octave>2</octave>
				</pitch>
				<duration>120</duration>
				<instrument id="P1-S1V0"/>
				<voice>5</voice>
				<type>quarter</type>
				<stem>down</stem>
				<staff>2</staff>
			</note>
			<note>
				<chord/>
				<pitch>
					<step>G</step>
					<octave>3</octave>
				</pitch>
				<duration>120</duration>
				<instrument id="P1-S1V0"/>
				<voice>5</voice>
				<type>quarter</type>
				<stem>down</stem>
				<staff>2</staff>
			</note>
			<note>
				<pitch>
					<step>D</step>
					<octave>3</octave>
				</pitch>
				<duration>120</duration>
				<instrument id="P1-S1V0"/>
				<voice>5</voice>
				<type>quarter</type>
				<stem>down</stem>
				<staff>2</staff>
			</note>
			<note>
				<chord/>
				<pitch>
					<step>A</step>
					<octave>3</octave>
				</pitch>
				<duration>120</duration>
				<instrument id="P1-S1V0"/>
				<voice>5</voice>
				<type>quarter</type>
				<stem>down</stem>
				<staff>2</staff>
			</note>
			<note>
				<pitch>
					<step>E</step>
					<octave>3</octave>
				</pitch>
				<duration>120</duration>
				<instrument id="P1-S1V0"/>
				<voice>5</voice>
				<type>quarter</type>
				<stem>down</stem>
				<staff>2</staff>
			</note>
			<note>
				<chord/>
				<pitch>
					<step>G</step>
					<octave>3</octave>
				</pitch>
				<duration>120</duration>
				<instrument id="P1-S1V0"/>
				<voice>5</voice>
				<type>quarter</type>
				<stem>down</stem>
				<staff>2</staff>
			</note>
			<note>
				<pitch>
					<step>C</step>
					<octave>3</octave>
				</pitch>
				<duration>120</duration>
				<instrument id="P1-S1V0"/>
				<voice>5</voice>
				<type>quarter</type>
				<stem>down</stem>
				<staff>2</staff>
			</note>
			<note>
				<chord/>
				<pitch>
					<step>G</step>
					<octave>3</octave>
				</pitch>
				<duration>120</duration>
				<instrument id="P1-S1V0"/>
				<voice>5</voice>
				<type>quarter</type>
				<stem>down</stem>
				<staff>2</staff>
			</note>
		</measure><!--
===========================================================
-->

		<measure number="9" width="185">
			<print new-system="no"></print>
			<attributes></attributes>
			<note>
				<pitch>
					<step>D</step>
					<octave>4</octave>
				</pitch>
				<duration>160</duration>
				<instrument id="P1-S0V0"/>
				<voice>1</voice>
				<type>half</type>
				<time-modification>
					<actual-notes>6</actual-notes>
					<normal-notes>4</normal-notes>
				</time-modification>
				<stem>up</stem>
				<staff>1</staff>
				<notations></notations>
				<lyric number="1">
					<syllabic>single</syllabic>
					<text>God</text>
				</lyric>
				<lyric number="2">
					<syllabic>single</syllabic>
					<text>heaten</text>
				</lyric>
				<lyric number="3">
					<syllabic>middle</syllabic>
					<text>might</text>
				</lyric>
				<lyric number="4">
					<syllabic>begin</syllabic>
					<text>ev</text>
				</lyric>
			</note>
			<note>
				<chord/>
				<pitch>
					<step>B</step>
					<octave>4</octave>
				</pitch>
				<duration>160</duration>
				<instrument id="P1-S0V0"/>
				<voice>1</voice>
				<type>half</type>
				<time-modification>
					<actual-notes>6</actual-notes>
					<normal-notes>4</normal-notes>
				</time-modification>
				<stem>up</stem>
				<staff>1</staff>
				<notations></notations>
			</note>
			<note>
				<pitch>
					<step>A</step>
					<octave>4</octave>
				</pitch>
				<duration>160</duration>
				<instrument id="P1-S0V0"/>
				<voice>1</voice>
				<type>half</type>
				<time-modification>
					<actual-notes>6</actual-notes>
					<normal-notes>4</normal-notes>
				</time-modification>
				<stem>up</stem>
				<staff>1</staff>
				<notations></notations>
				<lyric number="1">
					<syllabic>single</syllabic>
					<text>of</text>
				</lyric>
				<lyric number="2">
					<syllabic>begin</syllabic>
					<text>as</text>
				</lyric>
				<lyric number="3">
					<syllabic>end</syllabic>
					<text>y</text>
				</lyric>
				<lyric number="4">
					<syllabic>end</syllabic>
					<text>er</text>
				</lyric>
			</note>
			<backup>
				<duration>160</duration>
			</backup>
			<note>
				<pitch>
					<step>D</step>
					<octave>4</octave>
				</pitch>
				<duration>120</duration>
				<instrument id="P1-S0V1"/>
				<voice>2</voice>
				<type>quarter</type>
				<stem>down</stem>
				<staff>1</staff>
				<notations></notations>
			</note>
			<note>
				<pitch>
					<step>C</step>
					<octave>4</octave>
				</pitch>
				<duration>120</duration>
				<instrument id="P1-S0V1"/>
				<voice>2</voice>
				<type>quarter</type>
				<stem>down</stem>
				<staff>1</staff>
			</note>
			<backup>
				<duration>400</duration>
			</backup>
			<note>
				<pitch>
					<step>D</step>
					<octave>3</octave>
				</pitch>
				<duration>240</duration>
				<instrument id="P1-S1V0"/>
				<voice>5</voice>
				<type>half</type>
				<stem>down</stem>
				<staff>2</staff>
			</note>
			<note>
				<chord/>
				<pitch>
					<step>G</step>
					<octave>3</octave>
				</pitch>
				<duration>240</duration>
				<instrument id="P1-S1V0"/>
				<voice>5</voice>
				<type>half</type>
				<stem>down</stem>
				<staff>2</staff>
			</note>
			<note>
				<pitch>
					<step>D</step>
					<octave>3</octave>
				</pitch>
				<duration>240</duration>
				<instrument id="P1-S1V0"/>
				<voice>5</voice>
				<type>half</type>
				<stem>down</stem>
				<staff>2</staff>
			</note>
			<note>
				<chord/>
				<pitch>
					<step>F</step>
					<alter>1</alter>
					<octave>3</octave>
				</pitch>
				<duration>240</duration>
				<instrument id="P1-S1V0"/>
				<voice>5</voice>
				<type>half</type>
				<stem>down</stem>
				<staff>2</staff>
			</note>
		</measure><!--
===========================================================
-->

		<measure number="10" width="78">
			<print new-system="no"></print>
			<attributes></attributes>
			<note>
				<pitch>
					<step>B</step>
					<octave>3</octave>
				</pitch>
				<duration>240</duration>
				<instrument id="P1-S0V0"/>
				<voice>1</voice>
				<type>half</type>
				<dot/>
				<time-modification>
					<actual-notes>6</actual-notes>
					<normal-notes>4</normal-notes>
				</time-modification>
				<stem>up</stem>
				<staff>1</staff>
				<notations>
					<articulations>
						<strong-accent placement="below"/>
					</articulations>
				</notations>
				<lyric number="1">
					<syllabic>single</syllabic>
					<text>love.</text>
				</lyric>
				<lyric number="2">
					<syllabic>end</syllabic>
					<text>cend,</text>
				</lyric>
				<lyric number="3">
					<syllabic>single</syllabic>
					<text>King!</text>
				</lyric>
				<lyric number="4">
					<syllabic>single</syllabic>
					<text>cry.</text>
				</lyric>
			</note>
			<note>
				<chord/>
				<pitch>
					<step>G</step>
					<octave>4</octave>
				</pitch>
				<duration>240</duration>
				<instrument id="P1-S0V0"/>
				<voice>1</voice>
				<type>half</type>
				<dot/>
				<time-modification>
					<actual-notes>6</actual-notes>
					<normal-notes>4</normal-notes>
				</time-modification>
				<stem>up</stem>
				<staff>1</staff>
				<notations>
					<articulations>
						<strong-accent placement="below"/>
					</articulations>
				</notations>
			</note>
			<backup>
				<duration>240</duration>
			</backup>
			<note>
				<pitch>
					<step>G</step>
					<octave>2</octave>
				</pitch>
				<duration>360</duration>
				<instrument id="P1-S1V0"/>
				<voice>5</voice>
				<type>half</type>
				<dot/>
				<stem>up</stem>
				<staff>2</staff>
			</note>
			<note>
				<chord/>
				<pitch>
					<step>G</step>
					<octave>3</octave>
				</pitch>
				<duration>360</duration>
				<instrument id="P1-S1V0"/>
				<voice>5</voice>
				<type>half</type>
				<dot/>
				<stem>up</stem>
				<staff>2</staff>
			</note>
			<forward>
				<duration>120</duration>
			</forward>
		</measure><!--
===========================================================
-->

		<measure number="11" width="115">
			<print new-system="yes">
				<system-layout>
					<system-margins>
						<left-margin>0</left-margin>
						<right-margin>0</right-margin>
					</system-margins>
					<system-distance>58</system-distance>
				</system-layout>
				<staff-layout number="2">
					<staff-distance>175</staff-distance>
				</staff-layout>
			</print>
			<attributes></attributes>
			<note>
				<pitch>
					<step>D</step>
					<octave>4</octave>
				</pitch>
				<duration>80</duration>
				<instrument id="P1-S0V0"/>
				<voice>1</voice>
				<type>quarter</type>
				<time-modification>
					<actual-notes>6</actual-notes>
					<normal-notes>4</normal-notes>
				</time-modification>
				<stem>up</stem>
				<staff>1</staff>
				<notations></notations>
				<lyric number="1">
					<syllabic>begin</syllabic>
					<text>Je</text>
				</lyric>
				<lyric number="2">
					<syllabic>single</syllabic>
					<text>we</text>
				</lyric>
				<lyric number="3">
					<syllabic>single</syllabic>
					<text>Wo</text>
				</lyric>
				<lyric number="4">
					<syllabic>single</syllabic>
					<text>HaIl,</text>
				</lyric>
			</note>
			<note>
				<chord/>
				<pitch>
					<step>G</step>
					<octave>4</octave>
				</pitch>
				<duration>80</duration>
				<instrument id="P1-S0V0"/>
				<voice>1</voice>
				<type>quarter</type>
				<time-modification>
					<actual-notes>6</actual-notes>
					<normal-notes>4</normal-notes>
				</time-modification>
				<stem>up</stem>
				<staff>1</staff>
				<notations></notations>
			</note>
			<backup>
				<duration>80</duration>
			</backup>
			<note>
				<pitch>
					<step>G</step>
					<octave>2</octave>
				</pitch>
				<duration>120</duration>
				<instrument id="P1-S1V0"/>
				<voice>5</voice>
				<type>quarter</type>
				<stem>down</stem>
				<staff>2</staff>
			</note>
			<note>
				<chord/>
				<pitch>
					<step>B</step>
					<octave>3</octave>
				</pitch>
				<duration>120</duration>
				<instrument id="P1-S1V0"/>
				<voice>5</voice>
				<type>quarter</type>
				<stem>down</stem>
				<staff>2</staff>
			</note>
			<forward>
				<duration>360</duration>
			</forward>
		</measure><!--
===========================================================
-->

		<measure number="12" width="240">
			<print new-system="no"></print>
			<attributes></attributes>
			<note>
				<pitch>
					<step>D</step>
					<octave>4</octave>
				</pitch>
				<duration>80</duration>
				<instrument id="P1-S0V0"/>
				<voice>1</voice>
				<type>quarter</type>
				<time-modification>
					<actual-notes>6</actual-notes>
					<normal-notes>4</normal-notes>
				</time-modification>
				<stem>up</stem>
				<staff>1</staff>
				<notations></notations>
				<lyric number="1">
					<syllabic>middle</syllabic>
					<text>ho</text>
				</lyric>
				<lyric number="2">
					<syllabic>single</syllabic>
					<text>shall</text>
				</lyric>
				<lyric number="3">
					<syllabic>single</syllabic>
					<text>was</text>
				</lyric>
				<lyric number="4">
					<syllabic>single</syllabic>
					<text>A-braham&apos;s</text>
				</lyric>
			</note>
			<note>
				<chord/>
				<pitch>
					<step>B</step>
					<octave>4</octave>
				</pitch>
				<duration>80</duration>
				<instrument id="P1-S0V0"/>
				<voice>1</voice>
				<type>quarter</type>
				<time-modification>
					<actual-notes>6</actual-notes>
					<normal-notes>4</normal-notes>
				</time-modification>
				<stem>up</stem>
				<staff>1</staff>
				<notations></notations>
			</note>
			<note>
				<pitch>
					<step>F</step>
					<alter>1</alter>
					<octave>4</octave>
				</pitch>
				<duration>80</duration>
				<instrument id="P1-S0V0"/>
				<voice>1</voice>
				<type>quarter</type>
				<time-modification>
					<actual-notes>6</actual-notes>
					<normal-notes>4</normal-notes>
				</time-modification>
				<stem>up</stem>
				<staff>1</staff>
				<notations></notations>
				<lyric number="1">
					<syllabic>end</syllabic>
					<text>vah,</text>
				</lyric>
				<lyric number="2">
					<syllabic>begin</syllabic>
					<text>be</text>
				</lyric>
				<lyric number="3">
					<syllabic>single</syllabic>
					<text>and</text>
				</lyric>
			</note>
			<note>
				<chord/>
				<pitch>
					<step>B</step>
					<octave>4</octave>
				</pitch>
				<duration>80</duration>
				<instrument id="P1-S0V0"/>
				<voice>1</voice>
				<type>quarter</type>
				<time-modification>
					<actual-notes>6</actual-notes>
					<normal-notes>4</normal-notes>
				</time-modification>
				<stem>up</stem>
				<staff>1</staff>
				<notations></notations>
			</note>
			<note>
				<pitch>
					<step>E</step>
					<octave>4</octave>
				</pitch>
				<duration>80</duration>
				<instrument id="P1-S0V0"/>
				<voice>1</voice>
				<type>quarter</type>
				<time-modification>
					<actual-notes>6</actual-notes>
					<normal-notes>4</normal-notes>
				</time-modification>
				<stem>up</stem>
				<staff>1</staff>
				<notations></notations>
				<lyric number="1">
					<syllabic>single</syllabic>
					<text>great</text>
				</lyric>
				<lyric number="2">
					<syllabic>end</syllabic>
					<text>hold</text>
				</lyric>
				<lyric number="3">
					<syllabic>single</syllabic>
					<text>is</text>
				</lyric>
				<lyric number="4">
					<syllabic>single</syllabic>
					<text>God</text>
				</lyric>
			</note>
			<note>
				<chord/>
				<pitch>
					<step>B</step>
					<octave>4</octave>
				</pitch>
				<duration>80</duration>
				<instrument id="P1-S0V0"/>
				<voice>1</voice>
				<type>quarter</type>
				<time-modification>
					<actual-notes>6</actual-notes>
					<normal-notes>4</normal-notes>
				</time-modification>
				<stem>up</stem>
				<staff>1</staff>
				<notations></notations>
			</note>
			<note>
				<pitch>
					<step>D</step>
					<octave>4</octave>
				</pitch>
				<duration>80</duration>
				<instrument id="P1-S0V0"/>
				<voice>1</voice>
				<type>quarter</type>
				<accidental parentheses="no">natural</accidental>
				<time-modification>
					<actual-notes>6</actual-notes>
					<normal-notes>4</normal-notes>
				</time-modification>
				<stem>up</stem>
				<staff>1</staff>
				<notations></notations>
				<lyric number="1">
					<syllabic>single</syllabic>
					<text>I</text>
				</lyric>
				<lyric number="2">
					<syllabic>single</syllabic>
					<text>his</text>
				</lyric>
				<lyric number="3">
					<syllabic>single</syllabic>
					<text>the</text>
				</lyric>
				<lyric number="4">
					<syllabic>single</syllabic>
					<text>and</text>
				</lyric>
			</note>
			<note>
				<chord/>
				<pitch>
					<step>B</step>
					<octave>4</octave>
				</pitch>
				<duration>80</duration>
				<instrument id="P1-S0V0"/>
				<voice>1</voice>
				<type>quarter</type>
				<time-modification>
					<actual-notes>6</actual-notes>
					<normal-notes>4</normal-notes>
				</time-modification>
				<stem>up</stem>
				<staff>1</staff>
				<notations></notations>
			</note>
			<backup>
				<duration>320</duration>
			</backup>
			<note>
				<pitch>
					<step>G</step>
					<octave>3</octave>
				</pitch>
				<duration>120</duration>
				<instrument id="P1-S1V0"/>
				<voice>5</voice>
				<type>quarter</type>
				<stem>up</stem>
				<staff>2</staff>
				<notations>
					<articulations>
						<strong-accent placement="above"/>
					</articulations>
				</notations>
			</note>
			<backup>
				<duration>120</duration>
			</backup>
			<note>
				<pitch>
					<step>G</step>
					<octave>3</octave>
				</pitch>
				<duration>120</duration>
				<instrument id="P1-S1V1"/>
				<voice>6</voice>
				<type>quarter</type>
				<stem>down</stem>
				<staff>2</staff>
			</note>
			<note>
				<pitch>
					<step>D</step>
					<alter>1</alter>
					<octave>3</octave>
				</pitch>
				<duration>120</duration>
				<instrument id="P1-S1V1"/>
				<voice>6</voice>
				<type>quarter</type>
				<accidental parentheses="no">sharp</accidental>
				<stem>down</stem>
				<staff>2</staff>
			</note>
			<note>
				<chord/>
				<pitch>
					<step>A</step>
					<octave>3</octave>
				</pitch>
				<duration>120</duration>
				<instrument id="P1-S1V1"/>
				<voice>6</voice>
				<type>quarter</type>
				<stem>down</stem>
				<staff>2</staff>
			</note>
			<note>
				<pitch>
					<step>E</step>
					<octave>3</octave>
				</pitch>
				<duration>120</duration>
				<instrument id="P1-S1V1"/>
				<voice>6</voice>
				<type>quarter</type>
				<stem>down</stem>
				<staff>2</staff>
			</note>
			<note>
				<chord/>
				<pitch>
					<step>G</step>
					<octave>3</octave>
				</pitch>
				<duration>120</duration>
				<instrument id="P1-S1V1"/>
				<voice>6</voice>
				<type>quarter</type>
				<stem>down</stem>
				<staff>2</staff>
			</note>
			<note>
				<pitch>
					<step>B</step>
					<octave>2</octave>
				</pitch>
				<duration>120</duration>
				<instrument id="P1-S1V1"/>
				<voice>6</voice>
				<type>quarter</type>
				<stem>down</stem>
				<staff>2</staff>
			</note>
			<note>
				<chord/>
				<pitch>
					<step>G</step>
					<octave>3</octave>
				</pitch>
				<duration>120</duration>
				<instrument id="P1-S1V1"/>
				<voice>6</voice>
				<type>quarter</type>
				<stem>down</stem>
				<staff>2</staff>
			</note>
		</measure><!--
===========================================================
-->

		<measure number="13" width="175">
			<print new-system="no"></print>
			<attributes></attributes>
			<note>
				<pitch>
					<step>D</step>
					<octave>4</octave>
				</pitch>
				<duration>240</duration>
				<instrument id="P1-S0V0"/>
				<voice>1</voice>
				<type>half</type>
				<dot/>
				<time-modification>
					<actual-notes>6</actual-notes>
					<normal-notes>4</normal-notes>
				</time-modification>
				<stem>up</stem>
				<staff>1</staff>
				<notations></notations>
				<lyric number="1">
					<syllabic>single</syllabic>
					<text>AM,</text>
				</lyric>
				<lyric number="2">
					<syllabic>single</syllabic>
					<text>face,</text>
				</lyric>
				<lyric number="3">
					<syllabic>single</syllabic>
					<text>same,</text>
				</lyric>
				<lyric number="4">
					<syllabic>single</syllabic>
					<text>mine!</text>
				</lyric>
			</note>
			<note>
				<chord/>
				<pitch>
					<step>A</step>
					<octave>4</octave>
				</pitch>
				<duration>240</duration>
				<instrument id="P1-S0V0"/>
				<voice>1</voice>
				<type>half</type>
				<dot/>
				<time-modification>
					<actual-notes>6</actual-notes>
					<normal-notes>4</normal-notes>
				</time-modification>
				<stem>up</stem>
				<staff>1</staff>
				<notations></notations>
			</note>
			<note>
				<pitch>
					<step>G</step>
					<octave>4</octave>
				</pitch>
				<duration>40</duration>
				<instrument id="P1-S0V0"/>
				<voice>1</voice>
				<type>eighth</type>
				<time-modification>
					<actual-notes>6</actual-notes>
					<normal-notes>4</normal-notes>
				</time-modification>
				<stem>up</stem>
				<staff>1</staff>
				<beam number="1">begin</beam>
				<notations></notations>
				<lyric number="1">
					<syllabic>single</syllabic>
					<text>by</text>
				</lyric>
				<lyric number="2">
					<syllabic>single</syllabic>
					<text>we</text>
				</lyric>
				<lyric number="3">
					<syllabic>single</syllabic>
					<text>and</text>
				</lyric>
				<lyric number="4">
					<syllabic>single</syllabic>
					<text>With</text>
				</lyric>
			</note>
			<backup>
				<duration>40</duration>
			</backup>
			<note>
				<pitch>
					<step>B</step>
					<octave>3</octave>
				</pitch>
				<duration>120</duration>
				<instrument id="P1-S0V1"/>
				<voice>2</voice>
				<type>quarter</type>
				<stem>down</stem>
				<staff>1</staff>
				<notations>
					<articulations>
						<strong-accent placement="below"/>
					</articulations>
				</notations>
			</note>
			<backup>
				<duration>80</duration>
			</backup>
			<note>
				<pitch>
					<step>F</step>
					<alter>1</alter>
					<octave>4</octave>
				</pitch>
				<duration>40</duration>
				<instrument id="P1-S0V0"/>
				<voice>1</voice>
				<type>eighth</type>
				<time-modification>
					<actual-notes>6</actual-notes>
					<normal-notes>4</normal-notes>
				</time-modification>
				<stem>up</stem>
				<staff>1</staff>
				<beam number="1">end</beam>
				<notations></notations>
			</note>
			<backup>
				<duration>320</duration>
			</backup>
			<note>
				<pitch>
					<step>D</step>
					<octave>3</octave>
				</pitch>
				<duration>360</duration>
				<instrument id="P1-S1V0"/>
				<voice>5</voice>
				<type>half</type>
				<dot/>
				<stem>down</stem>
				<staff>2</staff>
			</note>
			<note>
				<chord/>
				<pitch>
					<step>F</step>
					<alter>1</alter>
					<octave>3</octave>
				</pitch>
				<duration>360</duration>
				<instrument id="P1-S1V0"/>
				<voice>5</voice>
				<type>half</type>
				<dot/>
				<stem>down</stem>
				<staff>2</staff>
			</note>
			<note>
				<pitch>
					<step>D</step>
					<alter>1</alter>
					<octave>3</octave>
				</pitch>
				<duration>120</duration>
				<instrument id="P1-S1V0"/>
				<voice>5</voice>
				<type>quarter</type>
				<accidental parentheses="no">sharp</accidental>
				<stem>down</stem>
				<staff>2</staff>
			</note>
			<note>
				<chord/>
				<pitch>
					<step>A</step>
					<octave>3</octave>
				</pitch>
				<duration>120</duration>
				<instrument id="P1-S1V0"/>
				<voice>5</voice>
				<type>quarter</type>
				<stem>down</stem>
				<staff>2</staff>
			</note>
		</measure><!--
===========================================================
-->

		<measure number="14" width="262">
			<print new-system="no"></print>
			<attributes></attributes>
			<note>
				<pitch>
					<step>E</step>
					<octave>4</octave>
				</pitch>
				<duration>40</duration>
				<instrument id="P1-S0V0"/>
				<voice>1</voice>
				<type>eighth</type>
				<time-modification>
					<actual-notes>6</actual-notes>
					<normal-notes>4</normal-notes>
				</time-modification>
				<stem>up</stem>
				<staff>1</staff>
				<beam number="1">begin</beam>
				<notations></notations>
				<lyric number="1">
					<syllabic>single</syllabic>
					<text>earth</text>
				</lyric>
				<lyric number="2">
					<syllabic>single</syllabic>
					<text>shall</text>
				</lyric>
				<lyric number="3">
					<syllabic>begin</syllabic>
					<text>ev</text>
				</lyric>
				<lyric number="4">
					<syllabic>single</syllabic>
					<text>heaven</text>
				</lyric>
			</note>
			<backup>
				<duration>40</duration>
			</backup>
			<note>
				<pitch>
					<step>B</step>
					<octave>3</octave>
				</pitch>
				<duration>120</duration>
				<instrument id="P1-S0V1"/>
				<voice>2</voice>
				<type>quarter</type>
				<stem>down</stem>
				<staff>1</staff>
			</note>
			<backup>
				<duration>80</duration>
			</backup>
			<note>
				<pitch>
					<step>F</step>
					<alter>1</alter>
					<octave>4</octave>
				</pitch>
				<duration>40</duration>
				<instrument id="P1-S0V0"/>
				<voice>1</voice>
				<type>eighth</type>
				<time-modification>
					<actual-notes>6</actual-notes>
					<normal-notes>4</normal-notes>
				</time-modification>
				<stem>up</stem>
				<staff>1</staff>
				<beam number="1">end</beam>
				<notations></notations>
			</note>
			<forward>
				<duration>40</duration>
			</forward>
			<note>
				<pitch>
					<step>G</step>
					<octave>4</octave>
				</pitch>
				<duration>40</duration>
				<instrument id="P1-S0V0"/>
				<voice>1</voice>
				<type>eighth</type>
				<time-modification>
					<actual-notes>6</actual-notes>
					<normal-notes>4</normal-notes>
				</time-modification>
				<stem>up</stem>
				<staff>1</staff>
				<beam number="1">begin</beam>
				<notations></notations>
				<lyric number="1">
					<syllabic>single</syllabic>
					<text>and</text>
				</lyric>
				<lyric number="2">
					<syllabic>single</syllabic>
					<text>his</text>
				</lyric>
				<lyric number="3">
					<syllabic>middle</syllabic>
					<text>er</text>
				</lyric>
			</note>
			<backup>
				<duration>40</duration>
			</backup>
			<note>
				<pitch>
					<step>E</step>
					<octave>4</octave>
				</pitch>
				<duration>120</duration>
				<instrument id="P1-S0V1"/>
				<voice>2</voice>
				<type>quarter</type>
				<stem>down</stem>
				<staff>1</staff>
			</note>
			<backup>
				<duration>80</duration>
			</backup>
			<note>
				<pitch>
					<step>A</step>
					<octave>4</octave>
				</pitch>
				<duration>40</duration>
				<instrument id="P1-S0V0"/>
				<voice>1</voice>
				<type>eighth</type>
				<time-modification>
					<actual-notes>6</actual-notes>
					<normal-notes>4</normal-notes>
				</time-modification>
				<stem>up</stem>
				<staff>1</staff>
				<beam number="1">end</beam>
				<notations></notations>
			</note>
			<note>
				<pitch>
					<step>D</step>
					<octave>4</octave>
				</pitch>
				<duration>80</duration>
				<instrument id="P1-S0V0"/>
				<voice>1</voice>
				<type>quarter</type>
				<time-modification>
					<actual-notes>6</actual-notes>
					<normal-notes>4</normal-notes>
				</time-modification>
				<stem>up</stem>
				<staff>1</staff>
				<notations>
					<articulations>
						<strong-accent placement="below"/>
					</articulations>
				</notations>
				<lyric number="1">
					<syllabic>single</syllabic>
					<text>heaven</text>
				</lyric>
				<lyric number="2">
					<syllabic>single</syllabic>
					<text>power</text>
				</lyric>
				<lyric number="3">
					<syllabic>end</syllabic>
					<text>more</text>
				</lyric>
				<lyric number="4">
					<syllabic>single</syllabic>
					<text>songs</text>
				</lyric>
			</note>
			<note>
				<chord/>
				<pitch>
					<step>B</step>
					<octave>4</octave>
				</pitch>
				<duration>80</duration>
				<instrument id="P1-S0V0"/>
				<voice>1</voice>
				<type>quarter</type>
				<time-modification>
					<actual-notes>6</actual-notes>
					<normal-notes>4</normal-notes>
				</time-modification>
				<stem>up</stem>
				<staff>1</staff>
				<notations>
					<articulations>
						<strong-accent placement="below"/>
					</articulations>
				</notations>
			</note>
			<backup>
				<duration>40</duration>
			</backup>
			<note>
				<pitch>
					<step>C</step>
					<octave>4</octave>
				</pitch>
				<duration>120</duration>
				<instrument id="P1-S0V1"/>
				<voice>2</voice>
				<type>quarter</type>
				<stem>up</stem>
				<staff>1</staff>
				<lyric number="1">
					<syllabic>begin</syllabic>
					<text>con</text>
				</lyric>
				<lyric number="2">
					<syllabic>begin</syllabic>
					<text>a</text>
				</lyric>
				<lyric number="3">
					<syllabic>single</syllabic>
					<text>shall</text>
				</lyric>
				<lyric number="4">
					<syllabic>single</syllabic>
					<text>we</text>
				</lyric>
			</note>
			<note>
				<chord/>
				<pitch>
					<step>E</step>
					<octave>4</octave>
				</pitch>
				<duration>120</duration>
				<instrument id="P1-S0V1"/>
				<voice>2</voice>
				<type>quarter</type>
				<stem>up</stem>
				<staff>1</staff>
			</note>
			<backup>
				<duration>360</duration>
			</backup>
			<note>
				<pitch>
					<step>E</step>
					<octave>3</octave>
				</pitch>
				<duration>120</duration>
				<instrument id="P1-S1V0"/>
				<voice>5</voice>
				<type>quarter</type>
				<stem>down</stem>
				<staff>2</staff>
			</note>
			<note>
				<chord/>
				<pitch>
					<step>G</step>
					<octave>3</octave>
				</pitch>
				<duration>120</duration>
				<instrument id="P1-S1V0"/>
				<voice>5</voice>
				<type>quarter</type>
				<stem>down</stem>
				<staff>2</staff>
			</note>
			<note>
				<pitch>
					<step>C</step>
					<octave>3</octave>
				</pitch>
				<duration>120</duration>
				<instrument id="P1-S1V0"/>
				<voice>5</voice>
				<type>quarter</type>
				<stem>down</stem>
				<staff>2</staff>
			</note>
			<backup>
				<duration>120</duration>
			</backup>
			<note>
				<pitch>
					<step>E</step>
					<octave>3</octave>
				</pitch>
				<duration>60</duration>
				<instrument id="P1-S1V1"/>
				<voice>6</voice>
				<type>eighth</type>
				<stem>up</stem>
				<staff>2</staff>
				<beam number="1">begin</beam>
			</note>
			<note>
				<pitch>
					<step>F</step>
					<alter>1</alter>
					<octave>3</octave>
				</pitch>
				<duration>60</duration>
				<instrument id="P1-S1V1"/>
				<voice>6</voice>
				<type>eighth</type>
				<stem>up</stem>
				<staff>2</staff>
				<beam number="1">end</beam>
			</note>
			<note>
				<pitch>
					<step>G</step>
					<octave>2</octave>
				</pitch>
				<duration>120</duration>
				<instrument id="P1-S1V1"/>
				<voice>6</voice>
				<type>quarter</type>
				<stem>up</stem>
				<staff>2</staff>
			</note>
			<note>
				<chord/>
				<pitch>
					<step>G</step>
					<octave>3</octave>
				</pitch>
				<duration>120</duration>
				<instrument id="P1-S1V1"/>
				<voice>6</voice>
				<type>quarter</type>
				<stem>up</stem>
				<staff>2</staff>
			</note>
			<note>
				<pitch>
					<step>A</step>
					<octave>2</octave>
				</pitch>
				<duration>120</duration>
				<instrument id="P1-S1V1"/>
				<voice>6</voice>
				<type>quarter</type>
				<stem>up</stem>
				<staff>2</staff>
			</note>
			<note>
				<chord/>
				<pitch>
					<step>F</step>
					<alter>1</alter>
					<octave>3</octave>
				</pitch>
				<duration>120</duration>
				<instrument id="P1-S1V1"/>
				<voice>6</voice>
				<type>quarter</type>
				<stem>up</stem>
				<staff>2</staff>
			</note>
		</measure><!--
===========================================================
-->

		<measure number="15" width="79">
			<print new-system="no"></print>
			<attributes></attributes>
			<note>
				<pitch>
					<step>B</step>
					<octave>3</octave>
				</pitch>
				<duration>240</duration>
				<instrument id="P1-S0V0"/>
				<voice>1</voice>
				<type>half</type>
				<dot/>
				<time-modification>
					<actual-notes>6</actual-notes>
					<normal-notes>4</normal-notes>
				</time-modification>
				<stem>up</stem>
				<staff>1</staff>
				<notations></notations>
				<lyric number="1">
					<syllabic>end</syllabic>
					<text>fessed:</text>
				</lyric>
				<lyric number="2">
					<syllabic>end</syllabic>
					<text>dore,</text>
				</lyric>
				<lyric number="3">
					<syllabic>single</syllabic>
					<text>be:</text>
				</lyric>
				<lyric number="4">
					<syllabic>single</syllabic>
					<text>raise,</text>
				</lyric>
			</note>
			<note>
				<chord/>
				<pitch>
					<step>D</step>
					<alter>1</alter>
					<octave>4</octave>
				</pitch>
				<duration>240</duration>
				<instrument id="P1-S0V0"/>
				<voice>1</voice>
				<type>half</type>
				<dot/>
				<accidental parentheses="no">sharp</accidental>
				<time-modification>
					<actual-notes>6</actual-notes>
					<normal-notes>4</normal-notes>
				</time-modification>
				<stem>up</stem>
				<staff>1</staff>
				<notations></notations>
			</note>
			<backup>
				<duration>240</duration>
			</backup>
			<note>
				<pitch>
					<step>B</step>
					<octave>2</octave>
				</pitch>
				<duration>360</duration>
				<instrument id="P1-S1V0"/>
				<voice>5</voice>
				<type>half</type>
				<dot/>
				<stem>down</stem>
				<staff>2</staff>
			</note>
			<note>
				<chord/>
				<pitch>
					<step>F</step>
					<alter>1</alter>
					<octave>3</octave>
				</pitch>
				<duration>360</duration>
				<instrument id="P1-S1V0"/>
				<voice>5</voice>
				<type>half</type>
				<dot/>
				<stem>down</stem>
				<staff>2</staff>
			</note>
			<forward>
				<duration>120</duration>
			</forward>
		</measure><!--
===========================================================
-->

		<measure number="16" width="143">
			<print new-system="yes">
				<system-layout>
					<system-margins>
						<left-margin>0</left-margin>
						<right-margin>1</right-margin>
					</system-margins>
					<system-distance>58</system-distance>
				</system-layout>
				<staff-layout number="2">
					<staff-distance>175</staff-distance>
				</staff-layout>
			</print>
			<attributes></attributes>
			<note>
				<pitch>
					<step>B</step>
					<octave>3</octave>
				</pitch>
				<duration>80</duration>
				<instrument id="P1-S0V0"/>
				<voice>1</voice>
				<type>quarter</type>
				<time-modification>
					<actual-notes>6</actual-notes>
					<normal-notes>4</normal-notes>
				</time-modification>
				<stem>up</stem>
				<staff>1</staff>
				<notations></notations>
				<lyric number="1">
					<syllabic>single</syllabic>
					<text>we</text>
				</lyric>
				<lyric number="2">
					<syllabic>single</syllabic>
					<text>and</text>
				</lyric>
				<lyric number="3">
					<syllabic>single</syllabic>
					<text>all</text>
				</lyric>
			</note>
			<backup>
				<duration>80</duration>
			</backup>
			<note>
				<pitch>
					<step>D</step>
					<alter>1</alter>
					<octave>3</octave>
				</pitch>
				<duration>120</duration>
				<instrument id="P1-S1V0"/>
				<voice>5</voice>
				<type>quarter</type>
				<accidental parentheses="no">sharp</accidental>
				<stem>up</stem>
				<staff>2</staff>
				<lyric number="1">
					<syllabic>single</syllabic>
					<text>TTomas</text>
				</lyric>
				<lyric number="2">
					<syllabic>single</syllabic>
					<text>Synagogue</text>
				</lyric>
			</note>
			<backup>
				<duration>120</duration>
			</backup>
			<note>
				<pitch>
					<step>B</step>
					<octave>2</octave>
				</pitch>
				<duration>60</duration>
				<instrument id="P1-S1V1"/>
				<voice>6</voice>
				<type>eighth</type>
				<stem>down</stem>
				<staff>2</staff>
				<beam number="1">begin</beam>
			</note>
			<note>
				<pitch>
					<step>A</step>
					<octave>2</octave>
				</pitch>
				<duration>60</duration>
				<instrument id="P1-S1V1"/>
				<voice>6</voice>
				<type>eighth</type>
				<stem>down</stem>
				<staff>2</staff>
				<beam number="1">end</beam>
			</note>
			<forward>
				<duration>360</duration>
			</forward>
		</measure><!--
===========================================================
-->

		<measure number="17" width="216">
			<print new-system="no"></print>
			<attributes></attributes>
			<note>
				<pitch>
					<step>B</step>
					<octave>3</octave>
				</pitch>
				<duration>80</duration>
				<instrument id="P1-S0V0"/>
				<voice>1</voice>
				<type>quarter</type>
				<time-modification>
					<actual-notes>6</actual-notes>
					<normal-notes>4</normal-notes>
				</time-modification>
				<stem>up</stem>
				<staff>1</staff>
				<notations></notations>
				<lyric number="1">
					<syllabic>single</syllabic>
					<text>bow</text>
				</lyric>
				<lyric number="2">
					<syllabic>single</syllabic>
					<text>sing</text>
				</lyric>
				<lyric number="3">
					<syllabic>begin</syllabic>
					<text>ter</text>
				</lyric>
				<lyric number="4">
					<syllabic>single</syllabic>
					<text>might</text>
				</lyric>
			</note>
			<note>
				<chord/>
				<pitch>
					<step>E</step>
					<octave>4</octave>
				</pitch>
				<duration>80</duration>
				<instrument id="P1-S0V0"/>
				<voice>1</voice>
				<type>quarter</type>
				<time-modification>
					<actual-notes>6</actual-notes>
					<normal-notes>4</normal-notes>
				</time-modification>
				<stem>up</stem>
				<staff>1</staff>
				<notations></notations>
			</note>
			<note>
				<pitch>
					<step>B</step>
					<octave>3</octave>
				</pitch>
				<duration>80</duration>
				<instrument id="P1-S0V0"/>
				<voice>1</voice>
				<type>quarter</type>
				<time-modification>
					<actual-notes>6</actual-notes>
					<normal-notes>4</normal-notes>
				</time-modification>
				<stem>up</stem>
				<staff>1</staff>
				<notations></notations>
				<lyric number="1">
					<syllabic>single</syllabic>
					<text>and</text>
				</lyric>
				<lyric number="2">
					<syllabic>single</syllabic>
					<text>the</text>
				</lyric>
				<lyric number="3">
					<syllabic>end</syllabic>
					<text>nal</text>
				</lyric>
				<lyric number="4">
					<syllabic>single</syllabic>
					<text>and</text>
				</lyric>
			</note>
			<note>
				<chord/>
				<pitch>
					<step>F</step>
					<alter>1</alter>
					<octave>4</octave>
				</pitch>
				<duration>80</duration>
				<instrument id="P1-S0V0"/>
				<voice>1</voice>
				<type>quarter</type>
				<time-modification>
					<actual-notes>6</actual-notes>
					<normal-notes>4</normal-notes>
				</time-modification>
				<stem>up</stem>
				<staff>1</staff>
				<notations></notations>
			</note>
			<note>
				<pitch>
					<step>B</step>
					<octave>3</octave>
				</pitch>
				<duration>80</duration>
				<instrument id="P1-S0V0"/>
				<voice>1</voice>
				<type>quarter</type>
				<time-modification>
					<actual-notes>6</actual-notes>
					<normal-notes>4</normal-notes>
				</time-modification>
				<stem>up</stem>
				<staff>1</staff>
				<notations></notations>
				<lyric number="1">
					<syllabic>single</syllabic>
					<text>bless</text>
				</lyric>
				<lyric number="2">
					<syllabic>begin</syllabic>
					<text>won</text>
				</lyric>
				<lyric number="3">
					<syllabic>begin</syllabic>
					<text>Fa</text>
				</lyric>
				<lyric number="4">
					<syllabic>begin</syllabic>
					<text>maj</text>
				</lyric>
			</note>
			<note>
				<chord/>
				<pitch>
					<step>G</step>
					<octave>4</octave>
				</pitch>
				<duration>80</duration>
				<instrument id="P1-S0V0"/>
				<voice>1</voice>
				<type>quarter</type>
				<time-modification>
					<actual-notes>6</actual-notes>
					<normal-notes>4</normal-notes>
				</time-modification>
				<stem>up</stem>
				<staff>1</staff>
				<notations></notations>
			</note>
			<note>
				<pitch>
					<step>D</step>
					<octave>4</octave>
				</pitch>
				<duration>80</duration>
				<instrument id="P1-S0V0"/>
				<voice>1</voice>
				<type>quarter</type>
				<time-modification>
					<actual-notes>6</actual-notes>
					<normal-notes>4</normal-notes>
				</time-modification>
				<stem>up</stem>
				<staff>1</staff>
				<notations></notations>
				<lyric number="1">
					<syllabic>single</syllabic>
					<text>the</text>
				</lyric>
				<lyric number="2">
					<syllabic>end</syllabic>
					<text>ders</text>
				</lyric>
				<lyric number="3">
					<syllabic>end</syllabic>
					<text>ther,</text>
				</lyric>
				<lyric number="4">
					<syllabic>middle</syllabic>
					<text>es</text>
				</lyric>
			</note>
			<note>
				<chord/>
				<pitch>
					<step>A</step>
					<octave>4</octave>
				</pitch>
				<duration>80</duration>
				<instrument id="P1-S0V0"/>
				<voice>1</voice>
				<type>quarter</type>
				<time-modification>
					<actual-notes>6</actual-notes>
					<normal-notes>4</normal-notes>
				</time-modification>
				<stem>up</stem>
				<staff>1</staff>
				<notations></notations>
			</note>
			<backup>
				<duration>320</duration>
			</backup>
			<note>
				<pitch>
					<step>G</step>
					<octave>2</octave>
				</pitch>
				<duration>120</duration>
				<instrument id="P1-S1V0"/>
				<voice>5</voice>
				<type>quarter</type>
				<stem>up</stem>
				<staff>2</staff>
				<lyric number="1">
					<syllabic>single</syllabic>
					<text>Olives,</text>
				</lyric>
				<lyric number="2">
					<syllabic>single</syllabic>
					<text>elody</text>
				</lyric>
			</note>
			<note>
				<chord/>
				<pitch>
					<step>E</step>
					<octave>3</octave>
				</pitch>
				<duration>120</duration>
				<instrument id="P1-S1V0"/>
				<voice>5</voice>
				<type>quarter</type>
				<stem>up</stem>
				<staff>2</staff>
			</note>
			<note>
				<pitch>
					<step>B</step>
					<octave>2</octave>
				</pitch>
				<duration>120</duration>
				<instrument id="P1-S1V0"/>
				<voice>5</voice>
				<type>quarter</type>
				<stem>up</stem>
				<staff>2</staff>
				<lyric number="1">
					<syllabic>single</syllabic>
					<text>170</text>
				</lyric>
			</note>
			<note>
				<chord/>
				<pitch>
					<step>D</step>
					<alter>1</alter>
					<octave>3</octave>
				</pitch>
				<duration>120</duration>
				<instrument id="P1-S1V0"/>
				<voice>5</voice>
				<type>quarter</type>
				<accidental parentheses="no">sharp</accidental>
				<stem>up</stem>
				<staff>2</staff>
			</note>
			<note>
				<pitch>
					<step>E</step>
					<octave>3</octave>
				</pitch>
				<duration>120</duration>
				<instrument id="P1-S1V0"/>
				<voice>5</voice>
				<type>quarter</type>
				<stem>up</stem>
				<staff>2</staff>
				<lyric number="1">
					<syllabic>single</syllabic>
					<text>of</text>
				</lyric>
				<lyric number="2">
					<syllabic>single</syllabic>
					<text>Lyon,</text>
				</lyric>
			</note>
			<backup>
				<duration>120</duration>
			</backup>
			<note>
				<pitch>
					<step>E</step>
					<octave>3</octave>
				</pitch>
				<duration>120</duration>
				<instrument id="P1-S1V1"/>
				<voice>6</voice>
				<type>quarter</type>
				<stem>down</stem>
				<staff>2</staff>
			</note>
			<note>
				<pitch>
					<step>D</step>
					<octave>3</octave>
				</pitch>
				<duration>120</duration>
				<instrument id="P1-S1V1"/>
				<voice>6</voice>
				<type>quarter</type>
				<accidental parentheses="no">natural</accidental>
				<stem>down</stem>
				<staff>2</staff>
				<lyric number="1">
					<syllabic>single</syllabic>
					<text>Hebew</text>
				</lyric>
				<lyric number="2">
					<syllabic>single</syllabic>
					<text>1770</text>
				</lyric>
			</note>
			<note>
				<chord/>
				<pitch>
					<step>F</step>
					<alter>1</alter>
					<octave>3</octave>
				</pitch>
				<duration>120</duration>
				<instrument id="P1-S1V1"/>
				<voice>6</voice>
				<type>quarter</type>
				<stem>down</stem>
				<staff>2</staff>
			</note>
		</measure><!--
===========================================================
-->

		<measure number="18" width="269">
			<print new-system="no"></print>
			<attributes></attributes>
			<note>
				<pitch>
					<step>D</step>
					<octave>4</octave>
				</pitch>
				<duration>80</duration>
				<instrument id="P1-S0V0"/>
				<voice>1</voice>
				<type>quarter</type>
				<time-modification>
					<actual-notes>6</actual-notes>
					<normal-notes>4</normal-notes>
				</time-modification>
				<stem>up</stem>
				<staff>1</staff>
				<notations></notations>
				<lyric number="1">
					<syllabic>begin</syllabic>
					<text>sa</text>
				</lyric>
				<lyric number="2">
					<syllabic>single</syllabic>
					<text>of</text>
				</lyric>
				<lyric number="3">
					<syllabic>single</syllabic>
					<text>great</text>
				</lyric>
				<lyric number="4">
					<syllabic>end</syllabic>
					<text>ty</text>
				</lyric>
			</note>
			<note>
				<chord/>
				<pitch>
					<step>B</step>
					<octave>4</octave>
				</pitch>
				<duration>80</duration>
				<instrument id="P1-S0V0"/>
				<voice>1</voice>
				<type>quarter</type>
				<time-modification>
					<actual-notes>6</actual-notes>
					<normal-notes>4</normal-notes>
				</time-modification>
				<stem>up</stem>
				<staff>1</staff>
				<notations></notations>
			</note>
			<note>
				<pitch>
					<step>A</step>
					<octave>4</octave>
				</pitch>
				<duration>40</duration>
				<instrument id="P1-S0V0"/>
				<voice>1</voice>
				<type>eighth</type>
				<time-modification>
					<actual-notes>6</actual-notes>
					<normal-notes>4</normal-notes>
				</time-modification>
				<stem>up</stem>
				<staff>1</staff>
				<beam number="1">begin</beam>
				<notations></notations>
				<lyric number="1">
					<syllabic>end</syllabic>
					<text>cred</text>
				</lyric>
				<lyric number="2">
					<syllabic>single</syllabic>
					<text>his</text>
				</lyric>
				<lyric number="3">
					<syllabic>single</syllabic>
					<text>I</text>
				</lyric>
				<lyric number="4">
					<syllabic>single</syllabic>
					<text>are</text>
				</lyric>
			</note>
			<backup>
				<duration>40</duration>
			</backup>
			<note>
				<pitch>
					<step>E</step>
					<octave>4</octave>
				</pitch>
				<duration>120</duration>
				<instrument id="P1-S0V1"/>
				<voice>2</voice>
				<type>quarter</type>
				<stem>down</stem>
				<staff>1</staff>
			</note>
			<backup>
				<duration>80</duration>
			</backup>
			<note>
				<pitch>
					<step>B</step>
					<octave>4</octave>
				</pitch>
				<duration>40</duration>
				<instrument id="P1-S0V0"/>
				<voice>1</voice>
				<type>eighth</type>
				<time-modification>
					<actual-notes>6</actual-notes>
					<normal-notes>4</normal-notes>
				</time-modification>
				<stem>up</stem>
				<staff>1</staff>
				<beam number="1">end</beam>
				<notations></notations>
			</note>
			<note>
				<pitch>
					<step>E</step>
					<octave>4</octave>
				</pitch>
				<duration>80</duration>
				<instrument id="P1-S0V0"/>
				<voice>1</voice>
				<type>quarter</type>
				<time-modification>
					<actual-notes>6</actual-notes>
					<normal-notes>4</normal-notes>
				</time-modification>
				<stem>up</stem>
				<staff>1</staff>
				<notations></notations>
				<lyric number="1">
					<syllabic>single</syllabic>
					<text>name</text>
				</lyric>
				<lyric number="2">
					<syllabic>single</syllabic>
					<text>grace</text>
				</lyric>
				<lyric number="3">
					<syllabic>single</syllabic>
					<text>AM</text>
				</lyric>
				<lyric number="4">
					<syllabic>single</syllabic>
					<text>thine,</text>
				</lyric>
			</note>
			<note>
				<chord/>
				<pitch>
					<step>C</step>
					<octave>5</octave>
				</pitch>
				<duration>80</duration>
				<instrument id="P1-S0V0"/>
				<voice>1</voice>
				<type>quarter</type>
				<time-modification>
					<actual-notes>6</actual-notes>
					<normal-notes>4</normal-notes>
				</time-modification>
				<stem>up</stem>
				<staff>1</staff>
				<notations></notations>
			</note>
			<note>
				<pitch>
					<step>B</step>
					<octave>4</octave>
				</pitch>
				<duration>40</duration>
				<instrument id="P1-S0V0"/>
				<voice>1</voice>
				<type>eighth</type>
				<time-modification>
					<actual-notes>6</actual-notes>
					<normal-notes>4</normal-notes>
				</time-modification>
				<stem>up</stem>
				<staff>1</staff>
				<beam number="1">begin</beam>
				<notations></notations>
				<lyric number="1">
					<syllabic>begin</syllabic>
					<text>for</text>
				</lyric>
				<lyric number="2">
					<syllabic>begin</syllabic>
					<text>for</text>
				</lyric>
				<lyric number="3">
					<syllabic>single</syllabic>
					<text>we</text>
				</lyric>
				<lyric number="4">
					<syllabic>single</syllabic>
					<text>and</text>
				</lyric>
			</note>
			<backup>
				<duration>40</duration>
			</backup>
			<note>
				<pitch>
					<step>F</step>
					<alter>1</alter>
					<octave>4</octave>
				</pitch>
				<duration>120</duration>
				<instrument id="P1-S0V1"/>
				<voice>2</voice>
				<type>quarter</type>
				<stem>down</stem>
				<staff>1</staff>
			</note>
			<backup>
				<duration>80</duration>
			</backup>
			<note>
				<pitch>
					<step>A</step>
					<octave>4</octave>
				</pitch>
				<duration>40</duration>
				<instrument id="P1-S0V0"/>
				<voice>1</voice>
				<type>eighth</type>
				<time-modification>
					<actual-notes>6</actual-notes>
					<normal-notes>4</normal-notes>
				</time-modification>
				<stem>up</stem>
				<staff>1</staff>
				<beam number="1">end</beam>
				<notations></notations>
			</note>
			<backup>
				<duration>320</duration>
			</backup>
			<note>
				<pitch>
					<step>G</step>
					<octave>2</octave>
				</pitch>
				<duration>120</duration>
				<instrument id="P1-S1V0"/>
				<voice>5</voice>
				<type>quarter</type>
				<stem>up</stem>
				<staff>2</staff>
				<lyric number="1">
					<syllabic>end</syllabic>
					<text>Yigdal</text>
				</lyric>
			</note>
			<note>
				<chord/>
				<pitch>
					<step>G</step>
					<octave>3</octave>
				</pitch>
				<duration>120</duration>
				<instrument id="P1-S1V0"/>
				<voice>5</voice>
				<type>quarter</type>
				<stem>up</stem>
				<staff>2</staff>
			</note>
			<note>
				<pitch>
					<step>C</step>
					<octave>3</octave>
				</pitch>
				<duration>60</duration>
				<instrument id="P1-S1V0"/>
				<voice>5</voice>
				<type>eighth</type>
				<stem>down</stem>
				<staff>2</staff>
				<beam number="1">begin</beam>
			</note>
			<note>
				<chord/>
				<pitch>
					<step>E</step>
					<octave>3</octave>
				</pitch>
				<duration>60</duration>
				<instrument id="P1-S1V0"/>
				<voice>5</voice>
				<type>eighth</type>
				<stem>down</stem>
				<staff>2</staff>
				<beam number="1">begin</beam>
			</note>
			<note>
				<pitch>
					<step>B</step>
					<octave>2</octave>
				</pitch>
				<duration>60</duration>
				<instrument id="P1-S1V0"/>
				<voice>5</voice>
				<type>eighth</type>
				<stem>down</stem>
				<staff>2</staff>
				<beam number="1">end</beam>
			</note>
			<note>
				<chord/>
				<pitch>
					<step>G</step>
					<alter>1</alter>
					<octave>3</octave>
				</pitch>
				<duration>60</duration>
				<instrument id="P1-S1V0"/>
				<voice>5</voice>
				<type>eighth</type>
				<accidental parentheses="no">sharp</accidental>
				<stem>down</stem>
				<staff>2</staff>
				<beam number="1">end</beam>
			</note>
			<note>
				<pitch>
					<step>A</step>
					<octave>2</octave>
				</pitch>
				<duration>120</duration>
				<instrument id="P1-S1V0"/>
				<voice>5</voice>
				<type>quarter</type>
				<stem>down</stem>
				<staff>2</staff>
			</note>
			<note>
				<chord/>
				<pitch>
					<step>A</step>
					<octave>3</octave>
				</pitch>
				<duration>120</duration>
				<instrument id="P1-S1V0"/>
				<voice>5</voice>
				<type>quarter</type>
				<stem>down</stem>
				<staff>2</staff>
			</note>
			<note>
				<pitch>
					<step>A</step>
					<octave>2</octave>
				</pitch>
				<duration>120</duration>
				<instrument id="P1-S1V0"/>
				<voice>5</voice>
				<type>quarter</type>
				<stem>down</stem>
				<staff>2</staff>
			</note>
			<note>
				<chord/>
				<pitch>
					<step>C</step>
					<octave>4</octave>
				</pitch>
				<duration>120</duration>
				<instrument id="P1-S1V0"/>
				<voice>5</voice>
				<type>quarter</type>
				<stem>down</stem>
				<staff>2</staff>
			</note>
		</measure><!--
===========================================================
-->

		<measure number="19" width="170">
			<print new-system="no"></print>
			<attributes></attributes>
			<note>
				<pitch>
					<step>E</step>
					<octave>4</octave>
				</pitch>
				<duration>160</duration>
				<instrument id="P1-S0V0"/>
				<voice>1</voice>
				<type>half</type>
				<time-modification>
					<actual-notes>6</actual-notes>
					<normal-notes>4</normal-notes>
				</time-modification>
				<stem>up</stem>
				<staff>1</staff>
				<notations></notations>
				<lyric number="1">
					<syllabic>begin</syllabic>
					<text>ev</text>
				</lyric>
				<lyric number="2">
					<syllabic>middle</syllabic>
					<text>ev</text>
				</lyric>
				<lyric number="3">
					<syllabic>begin</syllabic>
					<text>wor</text>
				</lyric>
				<lyric number="4">
					<syllabic>single</syllabic>
					<text>end</text>
				</lyric>
			</note>
			<note>
				<chord/>
				<pitch>
					<step>G</step>
					<octave>4</octave>
				</pitch>
				<duration>160</duration>
				<instrument id="P1-S0V0"/>
				<voice>1</voice>
				<type>half</type>
				<time-modification>
					<actual-notes>6</actual-notes>
					<normal-notes>4</normal-notes>
				</time-modification>
				<stem>up</stem>
				<staff>1</staff>
				<notations></notations>
			</note>
			<note>
				<pitch>
					<step>D</step>
					<alter>1</alter>
					<octave>4</octave>
				</pitch>
				<duration>160</duration>
				<instrument id="P1-S0V0"/>
				<voice>1</voice>
				<type>half</type>
				<accidental parentheses="no">sharp</accidental>
				<time-modification>
					<actual-notes>6</actual-notes>
					<normal-notes>4</normal-notes>
				</time-modification>
				<stem>up</stem>
				<staff>1</staff>
				<notations></notations>
				<lyric number="1">
					<syllabic>end</syllabic>
					<text>er</text>
				</lyric>
				<lyric number="2">
					<syllabic>middle</syllabic>
					<text>er</text>
				</lyric>
				<lyric number="3">
					<syllabic>end</syllabic>
					<text>ship</text>
				</lyric>
				<lyric number="4">
					<syllabic>single</syllabic>
					<text>less</text>
				</lyric>
			</note>
			<note>
				<chord/>
				<pitch>
					<step>F</step>
					<alter>1</alter>
					<octave>4</octave>
				</pitch>
				<duration>160</duration>
				<instrument id="P1-S0V0"/>
				<voice>1</voice>
				<type>half</type>
				<time-modification>
					<actual-notes>6</actual-notes>
					<normal-notes>4</normal-notes>
				</time-modification>
				<stem>up</stem>
				<staff>1</staff>
				<notations></notations>
			</note>
			<backup>
				<duration>320</duration>
			</backup>
			<note>
				<pitch>
					<step>B</step>
					<octave>2</octave>
				</pitch>
				<duration>240</duration>
				<instrument id="P1-S1V0"/>
				<voice>5</voice>
				<type>half</type>
				<stem>down</stem>
				<staff>2</staff>
			</note>
			<note>
				<chord/>
				<pitch>
					<step>B</step>
					<octave>3</octave>
				</pitch>
				<duration>240</duration>
				<instrument id="P1-S1V0"/>
				<voice>5</voice>
				<type>half</type>
				<stem>down</stem>
				<staff>2</staff>
			</note>
			<note>
				<pitch>
					<step>B</step>
					<octave>2</octave>
				</pitch>
				<duration>240</duration>
				<instrument id="P1-S1V0"/>
				<voice>5</voice>
				<type>half</type>
				<stem>down</stem>
				<staff>2</staff>
			</note>
			<backup>
				<duration>240</duration>
			</backup>
			<note>
				<pitch>
					<step>B</step>
					<octave>3</octave>
				</pitch>
				<duration>120</duration>
				<instrument id="P1-S1V1"/>
				<voice>6</voice>
				<type>quarter</type>
				<stem>up</stem>
				<staff>2</staff>
			</note>
			<note>
				<pitch>
					<step>A</step>
					<octave>3</octave>
				</pitch>
				<duration>120</duration>
				<instrument id="P1-S1V1"/>
				<voice>6</voice>
				<type>quarter</type>
				<stem>up</stem>
				<staff>2</staff>
				<notations></notations>
			</note>
		</measure><!--
===========================================================
-->

		<measure number="20" width="71">
			<print new-system="no"></print>
			<attributes></attributes>
			<note>
				<pitch>
					<step>B</step>
					<octave>3</octave>
				</pitch>
				<duration>240</duration>
				<instrument id="P1-S0V0"/>
				<voice>1</voice>
				<type>half</type>
				<dot/>
				<time-modification>
					<actual-notes>6</actual-notes>
					<normal-notes>4</normal-notes>
				</time-modification>
				<stem>up</stem>
				<staff>1</staff>
				<notations>
					<tuplet type="stop" number="1"></tuplet>
				</notations>
				<lyric number="1">
					<syllabic>single</syllabic>
					<text>blest.</text>
				</lyric>
				<lyric number="2">
					<syllabic>end</syllabic>
					<text>more.</text>
				</lyric>
				<lyric number="3">
					<syllabic>single</syllabic>
					<text>thee.</text>
				</lyric>
				<lyric number="4">
					<syllabic>single</syllabic>
					<text>praise.</text>
				</lyric>
			</note>
			<note>
				<chord/>
				<pitch>
					<step>E</step>
					<octave>4</octave>
				</pitch>
				<duration>240</duration>
				<instrument id="P1-S0V0"/>
				<voice>1</voice>
				<type>half</type>
				<dot/>
				<time-modification>
					<actual-notes>6</actual-notes>
					<normal-notes>4</normal-notes>
				</time-modification>
				<stem>up</stem>
				<staff>1</staff>
				<notations></notations>
			</note>
			<backup>
				<duration>240</duration>
			</backup>
			<note>
				<pitch>
					<step>E</step>
					<octave>3</octave>
				</pitch>
				<duration>360</duration>
				<instrument id="P1-S1V0"/>
				<voice>5</voice>
				<type>half</type>
				<dot/>
				<stem>down</stem>
				<staff>2</staff>
				<lyric number="1">
					<syllabic>single</syllabic>
					<text>6.6.8.4.D.</text>
				</lyric>
			</note>
			<forward>
				<duration>120</duration>
			</forward>
			<barline location="right">
				<bar-style>light-heavy</bar-style>
			</barline>
		</measure>
	</part>
</score-partwise>